<svg width="240" height="272" viewBox="0 0 240 272" fill="none" xmlns="http://www.w3.org/2000/svg">
<path fill-rule="evenodd" clip-rule="evenodd" d="M97.6195 1.19748C97.4945 1.42398 97.3228 2.91452 97.2377 4.5096C96.9403 10.0966 98.8265 15.5596 102.296 19.1579C107.157 24.201 113.191 25.3121 118.777 22.1934L120.57 21.1925L124.168 25.235C126.147 27.4583 127.566 29.2774 127.321 29.2774C127.077 29.2774 126.943 29.351 127.023 29.441C127.103 29.5313 127.474 29.5153 127.848 29.4058C128.453 29.2287 128.33 29.0228 126.723 27.517C124.315 25.2602 117.675 17.5412 117.913 17.2745C118.017 17.1582 117.841 16.7312 117.524 16.3255C117.206 15.9198 116.706 14.708 116.413 13.6324C115.984 12.053 113.976 7.96679 113.971 8.66122C113.971 8.76255 114.541 10.1198 115.239 11.6768C115.938 13.2338 116.509 14.7126 116.509 14.963C116.509 15.2133 115.259 14.3361 113.732 13.013C109.465 9.31795 108.542 8.57161 108.416 8.71313C108.352 8.78531 109.54 9.88153 111.055 11.1491C112.571 12.4171 114.802 14.6166 116.014 16.0371L118.216 18.6196L117.124 18.4415C116.191 18.2889 116.228 18.327 117.377 18.7035C118.116 18.9457 119.089 19.5573 119.539 20.0629L120.357 20.9824L118.513 21.9033C110.069 26.1196 100.941 21.035 98.239 10.6101C97.7078 8.56059 97.4643 2.49317 97.8941 2.01209C97.9972 1.89617 98.7643 2.12623 99.599 2.52304C101.263 3.31382 103.799 3.82442 108.892 4.39369C113.15 4.86979 117.172 5.68973 118.846 6.42327C124.117 8.73269 125.602 13.5809 122.605 18.6936C122.177 19.4236 121.679 19.9189 121.499 19.7941C120.669 19.2191 121.722 20.4401 122.628 21.1026L123.65 21.8496L122.799 21.0677L121.948 20.2858L122.915 18.9371C125.137 15.8405 125.025 11.349 122.659 8.58299C120.543 6.11073 117.02 4.79939 110.479 4.0495C101.805 3.05497 99.5952 2.5586 98.3863 1.33295C97.9943 0.935428 97.7846 0.898449 97.6195 1.19748ZM222.507 4.15652C215.944 7.47575 211.619 10.8825 207.85 15.7018C206.056 17.9963 204.012 22.5031 203.499 25.2947C203.134 27.287 203.091 33.0034 203.429 34.771C203.539 35.3477 203.63 33.5076 203.631 30.6819C203.632 26.0275 203.711 25.3039 204.464 22.9924C206.757 15.9532 211.846 10.6385 221.243 5.46572L225.21 3.28218L226.093 9.07972C227.268 16.7788 227.212 22.0356 225.927 25.0106L225.082 26.9662H221.814C219.169 26.9662 218.273 27.1077 217.115 27.7087C214.422 29.1053 212.36 32.267 212.382 34.9665C212.391 36.1161 212.436 36.057 212.967 34.1971C214.302 29.5185 216.217 27.8182 220.426 27.5703C221.884 27.4846 224.51 27.6653 226.486 27.9871C233.26 29.09 235.631 29.0986 238.12 28.0283C238.554 27.842 238.478 28.2765 237.705 30.4056C234.764 38.5105 231.552 42.037 225.886 43.3828C220.593 44.6405 214.071 42.527 210.498 38.396L209.432 37.1636L210.339 36.5758C211.314 35.9443 211.024 36.0382 208.073 37.3094C206.047 38.1819 206.018 38.4073 208.01 37.7872C209.195 37.4185 209.247 37.4448 211.04 39.3005C214.225 42.5963 218.057 44.2149 222.66 44.207C229.482 44.1956 233.545 41.1506 236.883 33.5442C237.87 31.2953 238.775 28.9905 238.894 28.4223C239.096 27.4619 239.057 27.4064 238.35 27.6322C236.693 28.1613 232.027 28.2914 229.466 27.88C225.057 27.1714 225.342 27.4509 226.456 24.9349C227.277 23.0795 227.432 22.2766 227.535 19.3556C227.612 17.1877 227.469 14.7766 227.143 12.7435C226.861 10.9834 226.473 8.26334 226.282 6.69884C225.734 2.21476 225.997 2.39148 222.507 4.15652ZM196.427 4.13128C195.558 6.17259 194.19 7.65851 192.218 8.70424C191.163 9.26319 190.514 9.71726 190.776 9.71299C191.605 9.69983 194.074 8.29356 195.011 7.3001C195.966 6.28638 197.634 2.96537 197.187 2.96537C197.042 2.96537 196.7 3.48983 196.427 4.13128ZM197.467 3.6765C197.457 3.77429 197.741 4.89433 198.097 6.16548C199.602 11.5282 200.02 18.3547 199.175 23.7821C197.979 31.4659 194.491 36.968 188.985 39.8577C187.346 40.7178 186.749 40.8334 183.952 40.8334C181.137 40.8334 180.579 40.7235 179.013 39.862C178.042 39.3279 176.691 38.3515 176.01 37.6927L174.773 36.4944L176.464 34.2273C177.394 32.9803 179.031 30.9002 180.101 29.6049L182.048 27.25L186.649 26.6355C189.179 26.2978 191.309 25.9536 191.383 25.8714C191.639 25.5845 189.642 25.7392 186.491 26.2508C184.746 26.5342 183.103 26.7646 182.841 26.7632C182.579 26.7618 183.222 25.8725 184.269 24.7866C185.317 23.701 185.995 22.9167 185.777 23.0436C185.076 23.4518 185.342 22.8413 187.205 19.7674C189.606 15.8056 190.034 15.0518 189.461 15.7872C187.715 18.0333 186.57 19.8022 185.641 21.6924C184.694 23.6157 182.815 25.8483 179.473 29.0182L178.809 29.6479L179.08 27.7168C179.228 26.6548 179.63 24.7781 179.972 23.5467C180.314 22.315 180.543 21.2505 180.481 21.1808C180.264 20.9383 179.052 25.5575 178.733 27.8388C178.425 30.0437 178.322 30.2353 176.104 32.7428L173.796 35.3523L172.959 34.3101C169.909 30.5109 170.155 22.5266 173.477 17.4686C175.695 14.0918 179.21 12.2781 186.474 10.7616C188.506 10.337 190.111 9.92526 190.041 9.84633C189.971 9.76775 188.112 10.027 185.91 10.4227C181.508 11.2138 178.481 12.3335 176.393 13.9432C170.115 18.7825 168.328 28.2978 172.536 34.4787C172.967 35.1119 173.32 35.7036 173.32 35.7932C173.32 35.8828 172.307 37.2934 171.069 38.9279C166.26 45.2769 160.843 55.406 159.914 59.7845C159.699 60.8018 159.444 61.6341 159.348 61.6341C159.252 61.6341 158.699 60.5543 158.12 59.2341C156.517 55.5845 154.07 51.5584 150.827 47.2336C149.214 45.0824 147.394 42.3776 146.783 41.2231C145.659 39.1021 144.363 35.1809 143.985 32.7595L143.78 31.4411L145.352 31.6498C147.347 31.9143 148.26 31.6523 149.537 30.4476C153.65 26.5708 152.532 16.9534 147.285 11.0755C146.271 9.93948 145.287 9.01003 145.099 9.01003C144.91 9.01003 144.756 9.65432 144.756 10.444C144.756 12.3616 143.671 14.6245 141.107 18.055C138.489 21.5577 138.017 22.5654 138.017 24.655C138.017 27.2891 139.089 29.0911 141.265 30.1162C142.323 30.6147 142.369 30.7175 142.717 33.4209C142.915 34.9555 143.184 36.771 143.315 37.4555L143.555 38.7L142.474 37.5444C141.879 36.9086 141.293 36.3888 141.17 36.3888C141.047 36.3888 140.97 37.389 140.999 38.6111L141.051 40.8334L141.237 38.8778L141.423 36.9221L142.931 38.6018C143.76 39.5256 144.438 40.2037 144.438 40.1084C144.438 40.0135 144.153 38.7807 143.804 37.3691C143.369 35.614 143.183 33.8458 143.214 31.7735L143.259 28.7441L143.491 31.0553C143.851 34.639 144.37 36.6693 145.698 39.6959C146.609 41.7703 146.787 42.4292 146.395 42.2638C146.104 42.1415 146.81 43.13 147.964 44.4598C152.057 49.1814 155.187 53.9436 157.924 59.6149C158.756 61.3397 159.537 62.6198 159.66 62.4594C159.782 62.2987 160.129 61.1275 160.431 59.8563C161.234 56.4731 163.74 50.8217 166.323 46.5716C168.777 42.5312 173.445 36.3042 176.354 33.1887L178.18 31.233L175.966 34.2554C169.221 43.4603 164.232 52.6752 162.073 59.9189C160.878 63.9272 161.113 64.137 162.401 60.2122C164.582 53.5699 168.781 45.2545 173.219 38.7942L174.645 36.7177L175.875 37.9629C179.646 41.7796 185.268 42.5369 190.141 39.8854C198.308 35.4419 202.119 22.1995 199.128 8.65659C198.687 6.66043 197.52 3.16129 197.467 3.6765ZM219.25 12.4768C218.469 13.9926 217.672 15.5525 217.478 15.9436C217.205 16.4976 217.159 16.0652 217.271 13.988C217.388 11.8354 217.36 11.5954 217.126 12.7435C216.967 13.5257 216.829 14.8638 216.819 15.7164C216.805 16.9314 216.444 17.9323 215.155 20.3388C213.581 23.2772 209.282 31.0638 208.306 32.7442C208.05 33.1841 207.909 33.5442 207.993 33.5442C208.076 33.5442 209.164 31.8176 210.409 29.7073C212.47 26.2163 212.868 25.7445 214.817 24.4812C217.92 22.4697 219.374 21.3749 219.201 21.1804C219.117 21.0865 217.757 21.9086 216.179 23.0077C214.601 24.1064 213.31 24.9214 213.31 24.819C213.31 24.7162 214.571 22.1973 216.112 19.2212C220.138 11.4453 220.993 9.72117 220.821 9.72117C220.738 9.72117 220.031 10.961 219.25 12.4768ZM147.353 11.771C150.165 15.1386 151.521 18.9798 151.531 23.6075C151.543 28.3921 149.706 31.1808 146.522 31.2156C144.19 31.2409 143.804 30.9742 143.804 29.3386C143.804 28.2363 144.069 27.602 145.112 26.2163L146.42 24.4773L145.112 25.9745C144.392 26.798 143.805 27.4381 143.806 27.3968C143.814 27.037 144.456 22.9942 144.599 22.3982C144.766 21.702 144.742 21.7092 144.34 22.4765L143.898 23.3202L143.705 22.4921C143.598 22.0366 143.439 21.7447 143.351 21.8439C143.262 21.9431 143.3 22.4839 143.434 23.0457C143.574 23.6349 143.514 24.8318 143.291 25.8725C143.079 26.8652 142.817 28.2673 142.709 28.988C142.519 30.262 142.487 30.2887 141.579 29.9342C140.314 29.4399 138.803 27.4334 138.547 25.907C138.105 23.2662 138.687 21.9932 143.02 16.1214C143.97 14.8335 144.639 13.4674 144.979 12.1213C145.263 10.9966 145.595 10.0767 145.716 10.0767C145.839 10.0767 146.575 10.8391 147.353 11.771ZM117.302 16.477C117.618 16.8681 117.805 17.1881 117.718 17.1881C117.631 17.1881 117.301 16.8681 116.985 16.477C116.669 16.0858 116.482 15.7658 116.569 15.7658C116.657 15.7658 116.987 16.0858 117.302 16.477ZM118.889 17.8992C119.205 18.2904 119.535 18.6104 119.622 18.6104C119.71 18.6104 119.523 18.2904 119.207 17.8992C118.891 17.5081 118.561 17.1881 118.474 17.1881C118.386 17.1881 118.574 17.5081 118.889 17.8992ZM120 18.7448C120 18.8184 120.25 19.0986 120.556 19.367C121.059 19.809 121.07 19.7965 120.676 19.2326C120.261 18.6402 120 18.4521 120 18.7448ZM180.818 19.8687C180.511 20.7626 180.602 20.9934 180.976 20.2727C181.161 19.9157 181.246 19.5487 181.164 19.4573C181.082 19.3656 180.926 19.5509 180.818 19.8687ZM124.203 22.3734C124.307 22.5611 125.071 23.2612 125.901 23.9293C126.731 24.5974 127.327 24.9907 127.223 24.8033C127.119 24.6156 126.355 23.9155 125.525 23.2473C124.695 22.5792 124.099 22.186 124.203 22.3734ZM127.617 25.14C127.617 25.2378 128.046 25.6595 128.569 26.0773C129.093 26.4951 129.522 26.7568 129.522 26.659C129.522 26.5612 129.093 26.1395 128.569 25.7217C128.046 25.3039 127.617 25.0422 127.617 25.14ZM129.998 27.144C130.106 27.3396 130.265 27.4996 130.352 27.4996C130.44 27.4996 130.423 27.3396 130.315 27.144C130.207 26.9485 130.047 26.7884 129.96 26.7884C129.873 26.7884 129.89 26.9485 129.998 27.144ZM143.381 28.4479C143.264 28.578 143.169 28.4713 143.169 28.2107C143.169 27.9501 143.264 27.8434 143.381 27.9736C143.497 28.104 143.497 28.3174 143.381 28.4479ZM131.033 28.4621C131.428 28.5471 131.999 28.5439 132.302 28.455C132.606 28.3661 132.283 28.2964 131.585 28.3003C130.886 28.3042 130.638 28.3771 131.033 28.4621ZM129.125 28.8017C129.343 28.9005 129.7 28.9005 129.918 28.8017C130.137 28.7032 129.958 28.6225 129.522 28.6225C129.085 28.6225 128.907 28.7032 129.125 28.8017ZM134.054 28.9546C135.762 29.4051 137.107 30.2279 138.567 31.7166L139.835 33.0109L138.725 31.6341C137.501 30.1162 134.884 28.5553 133.647 28.6054C133.056 28.6296 133.159 28.7181 134.054 28.9546ZM126.348 29.8108C126.348 29.9086 126.419 29.9886 126.506 29.9886C126.594 29.9886 126.665 29.9086 126.665 29.8108C126.665 29.713 126.594 29.633 126.506 29.633C126.419 29.633 126.348 29.713 126.348 29.8108ZM124.428 31.2914C123.72 32.0078 122.994 32.9277 122.814 33.3359C122.635 33.7437 122.862 33.5642 123.32 32.9366C123.778 32.309 124.61 31.3906 125.171 30.896C125.731 30.401 126.082 29.9946 125.952 29.9925C125.822 29.9903 125.136 30.5749 124.428 31.2914ZM129.045 31.579C128.296 32.0011 128.262 32.059 128.887 31.8517C129.921 31.509 133.227 31.5139 134.441 31.8603C135.245 32.0896 135.298 32.0676 134.783 31.7195C133.793 31.0499 130.144 30.9607 129.045 31.579ZM127.617 32.2998C127.617 32.3975 127.689 32.4775 127.776 32.4775C127.863 32.4775 127.935 32.3975 127.935 32.2998C127.935 32.202 127.863 32.122 127.776 32.122C127.689 32.122 127.617 32.202 127.617 32.2998ZM135.71 32.3506C135.885 32.5241 136.455 33.0635 136.978 33.5496C137.894 34.4019 137.905 34.4037 137.299 33.6001C136.953 33.1421 136.382 32.6023 136.031 32.4011C135.68 32.1998 135.536 32.1771 135.71 32.3506ZM125.943 33.8586C124.155 36.0759 123.815 39.6952 125.126 42.5686C126.292 45.1212 129.283 47.0974 131.88 47.0309C133.844 46.9805 134.112 46.4631 132.175 46.4631C127.477 46.4631 123.965 42.1447 124.788 37.3783C124.932 36.5406 125.057 35.736 125.064 35.5898C125.072 35.4437 125.595 34.6835 126.226 33.9009C126.857 33.1179 127.302 32.4775 127.215 32.4775C127.128 32.4775 126.555 33.0991 125.943 33.8586ZM131.743 33.1293C131.743 33.3576 131.537 33.5442 131.285 33.5442C131.033 33.5442 130.426 33.9599 129.936 34.468L129.045 35.3914L129.961 34.6458C131.668 33.2555 131.722 33.3974 131.724 39.2333C131.726 45.0785 131.664 45.2392 129.961 43.7846L129.045 43.0024L129.643 43.7754C129.971 44.2006 130.543 44.6543 130.912 44.7834C131.282 44.9125 131.656 45.139 131.743 45.2865C131.83 45.4341 132.086 45.3324 132.311 45.0607C132.566 44.7539 132.591 44.5669 132.378 44.5669C132.146 44.5669 132.049 42.7311 132.077 38.8507C132.099 35.7068 132.034 33.04 131.93 32.9245C131.828 32.8089 131.743 32.9014 131.743 33.1293ZM139.836 33.5442C139.944 33.7398 140.104 33.8998 140.191 33.8998C140.278 33.8998 140.262 33.7398 140.154 33.5442C140.046 33.3487 139.886 33.1887 139.799 33.1887C139.712 33.1887 139.728 33.3487 139.836 33.5442ZM84.7949 33.9091C82.5399 34.4396 80.5712 35.2275 73.586 38.3942C65.5721 42.0274 62.459 42.9373 58.8761 42.6937C57.4637 42.5977 55.9924 42.33 55.6061 42.0982C53.9313 41.094 53.9459 41.7913 55.6842 45.8113C60.6766 57.3574 66.9134 65.1009 74.2026 68.8038C81.9162 72.7222 91.4986 71.9314 99.1153 66.7476C100.193 66.014 101.613 64.8108 102.271 64.0733L103.468 62.7325L106.894 63.578C108.778 64.0431 110.963 64.5075 111.748 64.6102C112.826 64.7507 112.67 64.6632 111.114 64.254C100.241 61.3948 94.6438 59.5381 90.2665 57.3378C89.1138 56.7586 88.0962 56.3682 88.0048 56.4702C87.9137 56.5726 88.0343 56.6562 88.2727 56.6562C88.5768 56.6562 88.6066 56.7682 88.372 57.031C88.188 57.2372 86.6242 57.5714 84.8967 57.7734C80.3858 58.3018 78.7853 58.8177 82.2453 58.6278C83.7367 58.546 85.9111 58.2104 87.0775 57.8822L89.1982 57.2855L92.1419 58.6036C93.7611 59.3286 95.144 59.9857 95.2151 60.0636C95.2862 60.1415 94.4292 60.6791 93.3108 61.2587C92.1923 61.8386 91.5071 62.32 91.788 62.3289C92.0689 62.3378 93.1235 61.8791 94.1318 61.3095L95.9647 60.2734L99.1753 61.3561C100.941 61.9517 102.507 62.5622 102.657 62.7133C103.064 63.1268 99.513 66.1253 96.9825 67.5035C92.232 70.091 84.3731 71.1989 79.057 70.0305C72.1625 68.5155 66.1431 63.3448 60.7962 54.345C58.7482 50.8974 54.7873 42.8388 55.0152 42.5831C55.0618 42.5312 56.0273 42.7325 57.161 43.0308C61.3942 44.1441 64.7616 43.2971 74.3255 38.7128C81.1837 35.4256 84.7161 34.2618 87.85 34.2579C92.4326 34.2522 95.6772 35.7534 98.9262 39.3827C102.507 43.3825 104.47 48.9948 104.435 55.1301C104.422 57.3865 104.06 60.4096 103.764 60.742C103.692 60.8224 102.964 60.6962 102.147 60.4611C100.871 60.0945 100.52 59.782 99.6679 58.2562C98.551 56.2558 96.5131 53.7665 95.0859 52.66C94.5622 52.2539 94.9272 52.7869 95.8968 53.8443C97.5208 55.6154 100.127 59.4822 99.8824 59.7567C99.693 59.969 92.2317 57.3239 92.1301 57.0082C91.5931 55.3406 86.2983 49.8485 85.7838 50.4252C85.6921 50.5276 85.6769 50.6613 85.7495 50.7225C85.8225 50.7833 86.6277 51.4336 87.5392 52.1675C89.3807 53.6502 91.8286 56.5876 91.5874 57.0249C91.1783 57.7666 106.233 62.4239 108.689 62.3154C109.062 62.2987 108.225 62.0171 106.829 61.6896C104.89 61.2345 104.32 60.9685 104.417 60.5639C104.487 60.2727 104.611 58.1051 104.692 55.7477C104.815 52.1455 104.732 51.0268 104.172 48.7373C102.796 43.1197 98.6037 37.1867 94.4356 34.9583C92.5027 33.9247 91.8753 33.7711 89.2188 33.6811C87.558 33.6246 85.5674 33.727 84.7949 33.9091ZM207.408 34.3105C207.267 34.5647 207.321 34.6245 207.548 34.4669C207.914 34.2138 208.039 33.8998 207.774 33.8998C207.697 33.8998 207.532 34.0847 207.408 34.3105ZM231.718 34.0776C231.718 34.1754 231.789 34.2554 231.876 34.2554C231.964 34.2554 232.035 34.1754 232.035 34.0776C232.035 33.9798 231.964 33.8998 231.876 33.8998C231.789 33.8998 231.718 33.9798 231.718 34.0776ZM121.926 35.2318C121.242 36.9079 121.15 39.6572 121.705 41.7973C122.21 43.7423 124.376 46.9655 125.72 47.7709C126.031 47.9579 125.456 47.1806 124.441 46.0432C123.025 44.457 122.478 43.5332 122.091 42.0733C121.477 39.7567 121.468 37.7399 122.063 35.8689C122.587 34.2188 122.501 33.8191 121.926 35.2318ZM229.374 35.2129C228.347 35.6951 226.499 36.3763 225.266 36.7269L223.026 37.3641L225.547 37.3613C227.034 37.3595 227.677 37.267 227.116 37.1355C226.167 36.9136 226.17 36.9108 227.592 36.4332C229.099 35.9276 231.4 34.7144 231.4 34.4261C231.4 34.3322 231.365 34.2735 231.321 34.2956C231.277 34.318 230.401 34.7304 229.374 35.2129ZM140.312 34.7887C140.312 34.8865 140.384 34.9665 140.471 34.9665C140.558 34.9665 140.63 34.8865 140.63 34.7887C140.63 34.691 140.558 34.6109 140.471 34.6109C140.384 34.6109 140.312 34.691 140.312 34.7887ZM138.435 35.8554C138.626 36.4421 138.794 37.8822 138.808 39.0556C138.83 40.8615 138.876 41.025 139.106 40.1223C139.45 38.7761 139.16 36.3362 138.552 35.459C138.13 34.8499 138.119 34.8862 138.435 35.8554ZM206.773 35.3772C206.633 35.6314 206.686 35.6912 206.913 35.5336C207.279 35.2805 207.404 34.9665 207.14 34.9665C207.062 34.9665 206.898 35.1514 206.773 35.3772ZM221.72 36.2423L220.768 37.1586L221.8 36.3941C222.367 35.9735 222.831 35.56 222.831 35.4757C222.831 35.2094 222.697 35.3022 221.72 36.2423ZM128.907 36.0428C128.879 36.7956 129.733 38.0838 130.569 38.551C131.118 38.8575 131.082 38.7629 130.402 38.1094C129.927 37.6518 129.4 36.8777 129.232 36.3888C129.064 35.8999 128.918 35.7441 128.907 36.0428ZM203.813 36.5961C203.829 37.0103 203.904 37.0946 204.005 36.8112C204.097 36.5545 204.085 36.2476 203.98 36.1296C203.875 36.0115 203.8 36.2213 203.813 36.5961ZM206.327 36.211C206.327 36.3088 206.399 36.3888 206.486 36.3888C206.573 36.3888 206.645 36.3088 206.645 36.211C206.645 36.1132 206.573 36.0332 206.486 36.0332C206.399 36.0332 206.327 36.1132 206.327 36.211ZM218.705 37.4864C217.206 37.6656 217.373 37.7033 219.895 37.7531C221.51 37.7851 222.831 37.7478 222.831 37.6706C222.831 37.3908 220.41 37.2827 218.705 37.4864ZM200.224 42.912L196.348 48.369L194.593 47.6596C192.052 46.6316 186.427 46.4105 183.386 47.2187C176.371 49.0826 170.842 54.4762 169.009 61.2434C168.766 62.1426 168.577 63.1986 168.591 63.5898C168.605 63.9809 168.797 63.5649 169.019 62.6649C169.523 60.6161 170.807 57.4527 171.782 55.8537C173.71 52.6944 178.412 49.2262 182.524 47.9313C185.263 47.0686 190.217 47.0413 192.962 47.8736C199.595 49.8858 204.474 55.2574 205.713 61.9118C206.213 64.6039 205.914 69.7151 205.08 72.7005C204.255 75.657 201.829 79.8567 199.793 81.8567C198.936 82.6987 198.521 83.2282 198.871 83.0337C200.172 82.3115 203.12 78.4024 204.236 75.9202C206.45 70.9952 207.039 64.7912 205.731 60.1863C204.978 57.5351 203.152 54.2188 201.45 52.4086C200.816 51.7344 200.297 51.0336 200.297 50.8512C200.297 50.5646 203.108 44.8339 205.602 40.0334C206.034 39.202 206.312 38.5222 206.22 38.5222C206.001 38.5222 203.31 43.551 201.415 47.5003C200.594 49.2117 199.853 50.6115 199.769 50.6115C199.447 50.6115 196.806 48.7544 196.814 48.5332C196.818 48.4052 198.258 46.3003 200.014 43.8557C203.652 38.7928 204.543 37.4555 204.283 37.4555C204.182 37.4555 202.356 39.911 200.224 42.912ZM216.483 37.6333C216.483 37.7311 216.555 37.8111 216.642 37.8111C216.729 37.8111 216.801 37.7311 216.801 37.6333C216.801 37.5355 216.729 37.4555 216.642 37.4555C216.555 37.4555 216.483 37.5355 216.483 37.6333ZM143.804 38.7C143.804 38.7978 143.732 38.8778 143.645 38.8778C143.558 38.8778 143.486 38.7978 143.486 38.7C143.486 38.6022 143.558 38.5222 143.645 38.5222C143.732 38.5222 143.804 38.6022 143.804 38.7ZM132.378 39.3578C132.378 39.4399 132.752 39.782 133.21 40.1183C133.668 40.4544 133.946 40.5536 133.827 40.3388C133.601 39.9285 132.378 39.1004 132.378 39.3578ZM140.63 41.4691C140.63 41.7714 140.742 42.0718 140.879 42.1373C141.601 42.4815 148.436 53.5571 151.964 60.0992L153.916 63.7192L152.272 64.116C149.701 64.7365 148.458 64.8751 142.851 65.1656L137.615 65.4373L142.217 65.4892C145.124 65.5219 147.988 65.3317 149.993 64.9722C151.738 64.6593 153.449 64.3806 153.794 64.3521C154.309 64.3102 155.154 65.9084 158.466 73.1901C161.692 80.2844 165.781 89.9989 166.899 93.2285C166.991 93.4938 166.407 93.1475 165.602 92.4587C162.613 89.9025 158.34 88.9251 153.505 89.6913C152.121 89.9111 150.934 90.1514 150.867 90.2261C150.8 90.3008 151.362 91.0756 152.115 91.9478C152.868 92.8203 154.254 95.1553 155.197 97.1373C156.139 99.1189 157.392 101.372 157.982 102.144C160.457 105.385 164.979 106.473 168.401 104.652C169.273 104.187 170.171 103.821 170.395 103.839C170.881 103.878 170.847 103.737 169.047 98.2577C164.478 84.3461 156.467 66.6317 148.992 53.9084C145.823 48.5154 140.63 40.7897 140.63 41.4691ZM138.136 42.3446C137.79 43.2513 137.798 43.2722 138.244 42.6322C138.509 42.2525 138.726 41.8126 138.726 41.6544C138.726 41.1139 138.51 41.3664 138.136 42.3446ZM134.282 42.6112C134.282 42.709 134.354 42.789 134.441 42.789C134.528 42.789 134.6 42.709 134.6 42.6112C134.6 42.5135 134.528 42.4335 134.441 42.4335C134.354 42.4335 134.282 42.5135 134.282 42.6112ZM140.312 42.6112C140.312 42.709 140.384 42.789 140.471 42.789C140.558 42.789 140.63 42.709 140.63 42.6112C140.63 42.5135 140.558 42.4335 140.471 42.4335C140.384 42.4335 140.312 42.5135 140.312 42.6112ZM133.965 43.3224C133.965 43.4202 134.036 43.5002 134.124 43.5002C134.211 43.5002 134.282 43.4202 134.282 43.3224C134.282 43.2246 134.211 43.1446 134.124 43.1446C134.036 43.1446 133.965 43.2246 133.965 43.3224ZM139.995 43.3224C139.995 43.4202 140.066 43.5002 140.154 43.5002C140.241 43.5002 140.312 43.4202 140.312 43.3224C140.312 43.2246 140.241 43.1446 140.154 43.1446C140.066 43.1446 139.995 43.2246 139.995 43.3224ZM135.552 45.4558C135.552 45.5536 135.623 45.6336 135.71 45.6336C135.798 45.6336 135.869 45.5536 135.869 45.4558C135.869 45.358 135.798 45.278 135.71 45.278C135.623 45.278 135.552 45.358 135.552 45.4558ZM134.388 46.2263C134.504 46.3564 134.695 46.3564 134.811 46.2263C134.927 46.0958 134.832 45.9891 134.6 45.9891C134.367 45.9891 134.272 46.0958 134.388 46.2263ZM126.665 48.3003C126.665 48.3981 126.737 48.4781 126.824 48.4781C126.911 48.4781 126.983 48.3981 126.983 48.3003C126.983 48.2025 126.911 48.1225 126.824 48.1225C126.737 48.1225 126.665 48.2025 126.665 48.3003ZM127.617 48.8337C127.879 49.0232 128.308 49.1697 128.569 49.1587C128.883 49.1459 128.829 49.0353 128.411 48.8337C127.538 48.4138 127.037 48.4138 127.617 48.8337ZM74.9323 49.3866C74.9323 49.6074 77.3929 50.8967 79.931 52.0061C82.5142 53.1353 81.9016 52.5316 78.6847 50.7776C75.9638 49.2941 74.9323 48.9115 74.9323 49.3866ZM129.601 49.4342C129.906 49.5238 130.406 49.5238 130.712 49.4342C131.017 49.345 130.767 49.2717 130.156 49.2717C129.545 49.2717 129.296 49.345 129.601 49.4342ZM132.001 49.4321C132.23 49.5349 132.504 49.5221 132.609 49.404C132.715 49.286 132.527 49.202 132.193 49.2173C131.823 49.2344 131.748 49.3187 132.001 49.4321ZM186.739 52.2955C187.573 52.3691 188.858 52.368 189.595 52.2937C190.332 52.2191 189.649 52.159 188.078 52.16C186.507 52.1611 185.904 52.2222 186.739 52.2955ZM184.369 52.6322C184.598 52.735 184.872 52.7222 184.977 52.6041C185.082 52.4861 184.895 52.4022 184.561 52.4175C184.191 52.4345 184.116 52.5188 184.369 52.6322ZM191.569 52.6504C191.918 52.7481 192.918 53.141 193.791 53.5233C194.664 53.9055 195.235 54.0709 195.06 53.8906C194.579 53.3935 192.105 52.384 191.484 52.4306C191.047 52.4633 191.065 52.5085 191.569 52.6504ZM82.232 52.8847C82.232 52.9615 82.4536 53.1197 82.7246 53.2363C83.0071 53.3576 83.1343 53.2978 83.0233 53.0966C82.837 52.7584 82.232 52.5967 82.232 52.8847ZM83.6301 53.8668C83.4895 54.121 83.5428 54.1807 83.7697 54.0232C84.1357 53.77 84.261 53.4561 83.9963 53.4561C83.9192 53.4561 83.7545 53.641 83.6301 53.8668ZM84.2648 54.2223C84.1242 54.4766 84.1776 54.5363 84.4045 54.3788C84.606 54.2394 84.7711 54.0548 84.7711 53.9684C84.7711 53.6719 84.4908 53.8124 84.2648 54.2223ZM84.932 54.5189C84.8168 54.7276 84.9593 54.7752 85.2827 54.6362C85.6499 54.4783 85.7533 54.5363 85.6001 54.814C85.449 55.0874 85.5471 55.1507 85.892 55.0024C86.3075 54.8239 86.3265 54.7194 85.9879 54.4787C85.4299 54.0826 85.1671 54.0922 84.932 54.5189ZM180.302 54.345C180.302 54.4428 180.374 54.5228 180.461 54.5228C180.548 54.5228 180.62 54.4428 180.62 54.345C180.62 54.2472 180.548 54.1672 180.461 54.1672C180.374 54.1672 180.302 54.2472 180.302 54.345ZM179.479 54.9335C179.338 55.1877 179.391 55.2474 179.618 55.0899C179.984 54.8367 180.11 54.5228 179.845 54.5228C179.768 54.5228 179.603 54.7077 179.479 54.9335ZM86.6753 55.0561C86.6753 55.1539 86.7467 55.2339 86.834 55.2339C86.9213 55.2339 86.9927 55.1539 86.9927 55.0561C86.9927 54.9583 86.9213 54.8783 86.834 54.8783C86.7467 54.8783 86.6753 54.9583 86.6753 55.0561ZM86.0406 55.4117C86.0406 55.5095 86.112 55.5895 86.1993 55.5895C86.2865 55.5895 86.358 55.5095 86.358 55.4117C86.358 55.3139 86.2865 55.2339 86.1993 55.2339C86.112 55.2339 86.0406 55.3139 86.0406 55.4117ZM87.6275 55.5895C87.8893 55.779 88.2464 55.934 88.4209 55.934C88.5955 55.934 88.5241 55.779 88.2622 55.5895C88.0004 55.4 87.6433 55.2449 87.4688 55.2449C87.2942 55.2449 87.3656 55.4 87.6275 55.5895ZM86.6753 55.7673C86.6753 55.865 86.7467 55.945 86.834 55.945C86.9213 55.945 86.9927 55.865 86.9927 55.7673C86.9927 55.6695 86.9213 55.5895 86.834 55.5895C86.7467 55.5895 86.6753 55.6695 86.6753 55.7673ZM189.051 56.1378C188.901 56.6341 188.514 56.8909 187.828 56.9495C185.092 57.1831 183.326 60.6798 184.576 63.3878C185.036 64.3848 187.68 66.6121 188.403 66.6121C188.791 66.6121 189.183 70.5738 189.187 74.5235C189.189 76.3426 189.118 76.568 188.544 76.568C187.586 76.568 185.939 75.7033 185.252 74.8392C184.481 73.87 183.981 73.8508 184.505 74.8104C185.051 75.8103 186.57 76.8144 187.981 77.1074C188.834 77.2845 189.189 77.5586 189.286 78.1151C189.417 78.8636 189.421 78.8628 189.463 78.0792C189.487 77.639 189.692 77.2792 189.919 77.2792C190.146 77.2792 190.93 76.8446 191.661 76.3134C193.265 75.1479 194.088 73.4141 193.813 71.7753C193.537 70.1294 192.008 67.9085 190.654 67.1888L189.506 66.5787V61.9449V57.3108L190.538 57.5039L191.569 57.6969L190.555 57.3083C189.934 57.0708 189.487 56.6267 189.405 56.1655C189.27 55.4177 189.268 55.4174 189.051 56.1378ZM87.3101 56.1228C87.3101 56.2206 87.3815 56.3006 87.4688 56.3006C87.5561 56.3006 87.6275 56.2206 87.6275 56.1228C87.6275 56.0251 87.5561 55.945 87.4688 55.945C87.3815 55.945 87.3101 56.0251 87.3101 56.1228ZM89.2144 56.3006C89.4762 56.4901 89.8333 56.6452 90.0078 56.6452C90.1824 56.6452 90.111 56.4901 89.8491 56.3006C89.5873 56.1111 89.2302 55.9561 89.0557 55.9561C88.8811 55.9561 88.9525 56.1111 89.2144 56.3006ZM177.574 56.7451L176.97 57.5451L177.684 56.8677C178.355 56.2313 178.542 55.945 178.288 55.945C178.228 55.945 177.907 56.3049 177.574 56.7451ZM90.5896 56.8934C90.7061 57.0235 90.8965 57.0235 91.013 56.8934C91.1291 56.7629 91.0339 56.6562 90.8013 56.6562C90.5686 56.6562 90.4734 56.7629 90.5896 56.8934ZM188.871 61.8119C188.871 64.2565 188.794 66.2565 188.7 66.2565C188.606 66.2565 187.975 65.9401 187.299 65.5536C185.144 64.3219 183.985 61.6608 184.821 59.867C185.347 58.7405 187.161 57.3673 188.125 57.3673C188.869 57.3673 188.871 57.3826 188.871 61.8119ZM191.728 57.9007C191.728 57.9985 191.799 58.0785 191.887 58.0785C191.974 58.0785 192.045 57.9985 192.045 57.9007C192.045 57.8029 191.974 57.7229 191.887 57.7229C191.799 57.7229 191.728 57.8029 191.728 57.9007ZM175.859 58.9674C175.859 59.0652 175.93 59.1452 176.018 59.1452C176.105 59.1452 176.176 59.0652 176.176 58.9674C176.176 58.8696 176.105 58.7896 176.018 58.7896C175.93 58.7896 175.859 58.8696 175.859 58.9674ZM175.542 59.6785C175.542 59.7763 175.613 59.8563 175.7 59.8563C175.788 59.8563 175.859 59.7763 175.859 59.6785C175.859 59.5807 175.788 59.5007 175.7 59.5007C175.613 59.5007 175.542 59.5807 175.542 59.6785ZM200.641 59.5007C200.627 59.5985 200.894 60.4785 201.235 61.4564C201.576 62.4342 201.857 62.9942 201.861 62.7008C201.867 62.197 200.694 59.1224 200.641 59.5007ZM175.224 60.3897C175.224 60.4874 175.296 60.5674 175.383 60.5674C175.47 60.5674 175.542 60.4874 175.542 60.3897C175.542 60.2919 175.47 60.2119 175.383 60.2119C175.296 60.2119 175.224 60.2919 175.224 60.3897ZM125.396 60.9244C128.94 61.2156 130.58 61.6804 133.111 63.1119C135.348 64.377 137.441 66.4699 138.638 68.6374L139.519 70.2339L145.708 70.0416C149.233 69.932 152.785 69.6298 153.96 69.3397C156.762 68.6477 156.061 68.6367 151.766 69.3055C149.477 69.6622 146.612 69.8236 143.883 69.75C139.708 69.6376 139.582 69.611 139.085 68.7455C138.805 68.2566 137.793 66.9261 136.837 65.7886C133.916 62.3147 129.726 60.5123 124.825 60.6222L122.381 60.677L125.396 60.9244ZM121.19 61.1584C121.409 61.2572 121.766 61.2572 121.984 61.1584C122.202 61.0599 122.023 60.9792 121.587 60.9792C121.151 60.9792 120.972 61.0599 121.19 61.1584ZM174.54 62.2564C173.967 64.0904 174.044 68.5091 174.69 70.9369C175.841 75.2627 179.36 79.5925 183.049 81.2228C185.432 82.2756 190.586 82.388 192.363 81.4261C192.974 81.0951 193.188 80.9308 192.839 81.0606C192.49 81.1908 190.825 81.371 189.139 81.4617C186.585 81.5986 185.733 81.4987 184.027 80.8626C178.708 78.8796 175.363 74.4986 174.607 68.5254C174.308 66.1673 174.51 63.157 175.074 61.5452C175.194 61.2028 175.217 60.923 175.124 60.923C175.032 60.923 174.769 61.5232 174.54 62.2564ZM119.941 61.5214C120.17 61.6242 120.444 61.6114 120.549 61.4933C120.654 61.3753 120.467 61.2914 120.133 61.3067C119.763 61.3237 119.688 61.408 119.941 61.5214ZM119.048 61.8119C119.048 61.9097 119.119 61.9897 119.207 61.9897C119.294 61.9897 119.365 61.9097 119.365 61.8119C119.365 61.7141 119.294 61.6341 119.207 61.6341C119.119 61.6341 119.048 61.7141 119.048 61.8119ZM90.8013 62.5231C90.8013 62.6208 90.8727 62.7008 90.96 62.7008C91.0472 62.7008 91.1186 62.6208 91.1186 62.5231C91.1186 62.4253 91.0472 62.3453 90.96 62.3453C90.8727 62.3453 90.8013 62.4253 90.8013 62.5231ZM109.923 62.5903C110.229 62.6799 110.729 62.6799 111.034 62.5903C111.34 62.501 111.09 62.4278 110.479 62.4278C109.868 62.4278 109.618 62.501 109.923 62.5903ZM112.006 62.9437C112.235 63.0465 112.509 63.0337 112.614 62.9156C112.72 62.7976 112.533 62.7136 112.198 62.7289C111.828 62.746 111.753 62.8303 112.006 62.9437ZM113.018 62.8786C113.018 62.9764 113.089 63.0564 113.177 63.0564C113.264 63.0564 113.335 62.9764 113.335 62.8786C113.335 62.7808 113.264 62.7008 113.177 62.7008C113.089 62.7008 113.018 62.7808 113.018 62.8786ZM113.97 62.8786C113.97 62.9764 114.041 63.0564 114.129 63.0564C114.216 63.0564 114.287 62.9764 114.287 62.8786C114.287 62.7808 114.216 62.7008 114.129 62.7008C114.041 62.7008 113.97 62.7808 113.97 62.8786ZM115.874 63.2342C115.874 63.332 115.946 63.412 116.033 63.412C116.12 63.412 116.192 63.332 116.192 63.2342C116.192 63.1364 116.12 63.0564 116.033 63.0564C115.946 63.0564 115.874 63.1364 115.874 63.2342ZM201.946 64.3009C201.952 64.8876 202.023 65.0846 202.104 64.7386C202.185 64.3926 202.179 63.9126 202.092 63.6719C202.005 63.4312 201.94 63.7142 201.946 64.3009ZM160.942 64.1231C160.942 64.3838 161.037 64.4904 161.154 64.3603C161.27 64.2298 161.27 64.0164 161.154 63.886C161.037 63.7558 160.942 63.8625 160.942 64.1231ZM168.242 65.1898C168.242 65.4505 168.337 65.5571 168.454 65.427C168.57 65.2965 168.57 65.0832 168.454 64.9527C168.337 64.8225 168.242 64.9292 168.242 65.1898ZM113.018 65.3676C113.018 65.4654 113.089 65.5454 113.177 65.5454C113.264 65.5454 113.335 65.4654 113.335 65.3676C113.335 65.2698 113.264 65.1898 113.177 65.1898C113.089 65.1898 113.018 65.2698 113.018 65.3676ZM122.573 65.5746C118.839 66.3963 115.139 69.4268 113.601 72.9234C112.966 74.3692 112.859 75.1504 112.859 78.3459C112.859 80.8512 112.997 82.3133 113.28 82.7905L113.701 83.5016L113.472 82.7905C113.346 82.3993 113.177 80.6197 113.095 78.8358C112.958 75.8675 113.02 75.4078 113.818 73.4145C114.88 70.7648 116.779 68.7096 119.467 67.3026C126.102 63.8298 133.559 66.4496 136.566 73.3103C137.168 74.6828 137.293 75.5493 137.295 78.3459C137.297 81.3308 137.194 81.9602 136.406 83.7569C132.218 93.3128 119.611 94.1071 114.579 85.1326C114.076 84.2355 113.662 83.6346 113.659 83.7971C113.647 84.3692 115.941 87.9458 116.899 88.849C123.04 94.6384 133.008 92.2258 136.583 84.0847C137.53 81.9293 137.614 81.4581 137.609 78.3523C137.604 75.4604 137.483 74.6785 136.777 72.9793C134.469 67.4292 128.437 64.2842 122.573 65.5746ZM161.65 65.9899C167.181 75.55 171.979 86.936 174.123 95.5909C174.607 97.5465 175.112 99.2849 175.245 99.4538C175.378 99.6227 175.589 98.8227 175.713 97.676C175.999 95.0377 177.241 90.1575 178.302 87.5017C178.752 86.3771 179.146 85.4572 179.178 85.4572C179.21 85.4572 179.913 85.7154 180.739 86.0304C181.565 86.3458 182.328 86.5058 182.435 86.386C182.542 86.2665 182.423 86.1684 182.171 86.1684C181.29 86.1684 177.269 83.7732 175.065 81.9357L172.844 80.0832L174.431 81.7241C175.304 82.6265 176.675 83.7832 177.479 84.2942L178.941 85.2236L177.713 88.1588C177.037 89.7735 176.179 92.5625 175.806 94.3567L175.127 97.6191L174.404 94.8272C172.958 89.238 171.638 85.5077 168.889 79.2348C166.451 73.6712 161.91 65.1898 161.37 65.1898C161.269 65.1898 161.395 65.5497 161.65 65.9899ZM202.001 68.0344C201.567 71.3547 200.558 74.0278 198.779 76.5638L197.405 78.5236L198.738 76.9236C200.91 74.3169 202.811 68.8031 202.453 66.1463C202.395 65.7182 202.192 66.5676 202.001 68.0344ZM191.017 68.0326C193.181 69.511 193.975 72.6866 192.652 74.5715C192.001 75.4988 190.495 76.568 189.839 76.568C189.624 76.568 189.506 74.936 189.506 71.9456C189.506 69.4033 189.613 67.3239 189.744 67.3247C189.875 67.3254 190.448 67.644 191.017 68.0326ZM110.173 68.7277C108.248 71.7565 107.108 76.8201 107.607 80.1237C107.811 81.477 107.85 81.2512 107.86 78.6584C107.873 75.0241 108.465 72.5128 109.967 69.7233C111.151 67.5234 111.254 67.027 110.173 68.7277ZM125.085 69.19C125.08 69.622 124.824 69.8122 124.247 69.8122C123.046 69.8122 120.952 72.2407 120.952 73.6335C120.952 74.9776 121.891 76.3212 123.628 77.4612C124.969 78.3419 124.99 78.385 125.189 80.7499C125.3 82.0676 125.392 83.9059 125.393 84.835C125.395 86.3735 125.329 86.5239 124.647 86.5239C124.234 86.5239 123.413 86.157 122.822 85.7086C120.961 84.2984 120.766 84.2476 121.746 85.4266C122.295 86.0884 123.263 86.7426 124.036 86.9744C124.771 87.1952 125.433 87.6241 125.506 87.9277C125.623 88.412 125.644 88.4099 125.676 87.9114C125.696 87.5988 126.249 87.0686 126.903 86.7334C127.558 86.398 128.357 85.7221 128.68 85.2318C129.93 83.3345 129.013 80.1752 126.831 78.8589L125.713 78.1841V74.2252V70.2663L126.586 70.3822C127.097 70.4497 127.195 70.4163 126.824 70.3008C126.475 70.1927 125.942 69.7582 125.641 69.3358C125.167 68.6719 125.091 68.652 125.085 69.19ZM125.078 74.0883V78.0084L124.205 77.4733C121.15 75.5998 120.502 73.0319 122.587 71.0663C123.111 70.5721 123.886 70.1678 124.309 70.1678C125.077 70.1678 125.078 70.1767 125.078 74.0883ZM139.995 71.5901C139.995 71.8507 140.09 71.9574 140.207 71.8272C140.323 71.6967 140.323 71.4834 140.207 71.3529C140.09 71.2227 139.995 71.3294 139.995 71.5901ZM140.312 72.6568C140.312 72.9174 140.408 73.0241 140.524 72.8939C140.64 72.7634 140.64 72.5501 140.524 72.4196C140.408 72.2895 140.312 72.3961 140.312 72.6568ZM169.194 72.6568C169.194 72.9174 169.289 73.0241 169.406 72.8939C169.522 72.7634 169.522 72.5501 169.406 72.4196C169.289 72.2895 169.194 72.3961 169.194 72.6568ZM140.655 74.2863C140.67 74.7006 140.745 74.7848 140.847 74.5014C140.938 74.2447 140.927 73.9379 140.822 73.8198C140.716 73.7018 140.641 73.9116 140.655 74.2863ZM140.909 78.8792C140.677 83.0781 139.999 85.3022 137.901 88.7427C135.289 93.0283 131.517 95.5052 126.506 96.2253C120.759 97.0505 114.491 94.1032 111.052 88.9581C109.403 86.4919 109.269 86.3803 110.177 88.2271C110.59 89.0659 111.795 90.6855 112.855 91.8258C116.029 95.241 119.627 96.84 124.113 96.8301C128.942 96.8194 133.059 95.0103 136.378 91.4404C139.748 87.8146 141.359 83.4212 141.199 78.2922L141.106 75.3235L140.909 78.8792ZM68.1134 77.3808C66.2669 77.9124 63.7209 80.981 61.1174 85.8128C59.2918 89.201 58.2543 90.6329 55.0634 94.1686C50.6645 99.0428 50.0393 100.367 50.0291 104.836C50.0228 107.739 50.9083 110.1 52.6437 111.807C53.5673 112.715 53.6279 112.874 53.128 113.076C48.8148 114.826 45.3992 117.428 40.8286 122.447C38.726 124.756 36.3628 127.056 35.5773 127.559C34.7917 128.061 34.3182 128.474 34.5251 128.477C35.6293 128.489 36.9693 127.361 40.1516 123.737C46.683 116.301 53.8462 112.137 61.1526 111.53C63.9373 111.298 63.8602 111.26 65.1783 113.514C66.1856 115.237 67.346 116.087 68.9687 116.292C70.5661 116.494 72.6408 115.531 73.4711 114.203L73.9564 113.427L75.317 114.106C77.7998 115.345 82.1121 118.824 84.0696 121.169C87.1279 124.831 89.1477 129.168 91.0241 136.1L91.5947 138.207L95.2446 140.659C99.8358 143.743 103.819 146.727 107.396 149.761C110.602 152.479 110.553 152.225 108.689 156.52L107.554 159.136L105.128 158.897C95.5251 157.952 89.0811 155.539 85.17 151.423L83.473 149.637L83.8138 147.682C84.1966 145.485 84.248 137.818 83.8922 136.019C83.7535 135.317 83.6507 136.888 83.6361 139.93C83.5974 148.135 81.9115 156.089 79.2633 160.558C77.1946 164.05 76.0101 164.433 67.3412 164.415C60.409 164.4 55.1164 162.983 49.1925 159.556C46.7776 158.158 46.3145 157.738 45.7505 156.433C44.5581 153.673 44.9063 150.328 46.8845 145.537C47.8179 143.276 48.2455 142.666 49.627 141.626C51.2177 140.427 54.7949 137.015 54.4601 137.015C54.3687 137.015 53.4746 137.763 52.4733 138.678C48.341 142.453 44.4283 144.806 39.4759 146.495C36.9594 147.353 36.1784 147.449 31.4513 147.475C25.3799 147.509 22.4314 146.919 15.6525 144.317C13.4318 143.464 11.5713 142.815 11.5177 142.874C11.3507 143.058 16.4967 145.168 19.3709 146.094C23.6209 147.464 27.1429 148.036 31.3288 148.037C36.7509 148.038 40.4163 147.133 44.9199 144.683C46.0739 144.055 46.9728 143.633 46.9175 143.745C44.6067 148.411 43.9167 153.667 45.2284 156.612C45.7042 157.681 45.6848 157.788 44.6746 159.723C42.3692 164.137 40.6747 168.943 39.3928 174.705C37.9824 181.044 37.6783 183.688 37.672 189.665L37.6659 195.202L34.1621 195.631C22.7253 197.033 8.24169 200.507 7.74119 201.969C7.60376 202.37 6.91441 202.464 4.5128 202.41L1.45898 202.341L1.23935 203.724C1.11843 204.484 1.01116 206.986 1.00132 209.284C0.979737 214.166 1.20412 214.433 3.08967 211.773C4.65785 209.56 5.4294 208.857 6.29901 208.847C6.88045 208.841 7.01312 209.035 7.01312 209.892C7.01312 211.051 6.6567 210.873 11.9325 212.358C15.1396 213.262 22.6177 214.703 27.1667 215.294C29.0868 215.544 34.0878 215.754 38.2801 215.761L45.9022 215.773L48.0592 214.584C54.6727 210.939 61.6293 198.239 66.7379 180.483C67.5389 177.698 68.2588 175.772 68.4977 175.772C69.0931 175.772 68.9957 177.49 68.2461 180.21C67.4742 183.009 63.9453 192.597 62.5329 195.731L61.5484 197.917L64.9174 204.131C66.8924 207.774 68.2207 210.585 68.1277 210.926C68.0404 211.245 67.751 214.306 67.485 217.729C66.6893 227.967 66.9042 236.568 68.2115 246.788C68.7142 250.719 68.7869 250.957 69.5368 251.152C70.5626 251.418 70.7026 252.635 70.0132 255.293C69.6978 256.509 69.6089 257.42 69.7863 257.618C70.2674 258.157 78.3917 258.749 79.2559 258.308C80.2373 257.807 79.9409 256.999 78.4638 256.147C76.65 255.102 75.4595 253.517 75.7378 252.519C76.0358 251.449 76.4427 251.164 77.6792 251.157C78.6447 251.152 78.7148 251.046 79.626 248.219C81.5658 242.197 84.1058 233.017 85.3563 227.507C88.9792 211.541 89.1093 204.097 86.0053 190.35C84.6762 184.464 81.1729 172.458 79.1487 166.85L77.9172 163.44L79.0078 161.872C80.3439 159.951 81.6176 156.903 82.5605 153.371C82.9522 151.904 83.3409 150.569 83.4244 150.403C83.5082 150.238 84.2382 150.828 85.0465 151.715C88.924 155.97 95.2186 158.355 104.948 159.259L107.51 159.496L108.503 157.762C109.049 156.809 109.726 155.413 110.007 154.66C110.482 153.384 110.586 153.306 111.53 153.517C112.086 153.641 112.59 153.9 112.648 154.092C112.707 154.285 112.885 154.351 113.045 154.241C113.204 154.13 113.335 154.21 113.335 154.417C113.335 154.623 113.629 154.793 113.989 154.793C114.361 154.793 114.554 154.952 114.438 155.163C114.326 155.367 113.956 155.434 113.617 155.314C112.957 155.079 110.161 156.409 110.161 156.958C110.161 157.136 109.931 157.282 109.65 157.282C109.261 157.282 109.317 157.449 109.888 157.981C110.3 158.366 110.519 158.686 110.375 158.693C110.231 158.699 110.559 159.125 111.105 159.64L112.097 160.575L113.221 159.906C114.409 159.199 115.258 157.792 114.996 156.964C114.868 156.56 115.257 156.502 117.113 156.651C118.364 156.751 119.468 156.923 119.566 157.032C119.663 157.142 118.48 159.141 116.936 161.476C115.392 163.811 112.85 167.694 111.287 170.105L108.446 174.489L107.665 172.553C107.081 171.102 106.882 169.991 106.875 168.127C106.864 165.276 107.319 163.47 108.624 161.193L109.541 159.593L108.568 160.838C108.007 161.557 107.317 163.11 106.935 164.516C106.13 167.475 106.297 169.95 107.504 172.963L108.317 174.994L106.383 177.742C104.813 179.973 104.449 180.736 104.449 181.795C104.449 185.363 108.776 191.012 113.452 193.548C117.669 195.834 121.608 196.614 124.076 195.65C125.175 195.22 127.058 192.773 128.265 190.206C128.963 188.722 129.398 188.336 132.378 186.556C134.211 185.462 137.21 183.591 139.043 182.398C140.876 181.206 144.518 179.007 147.136 177.512C149.754 176.017 151.897 174.58 151.897 174.318C151.897 174.057 151.458 173.701 150.921 173.529C150.112 173.269 149.213 173.52 145.684 174.994C143.341 175.972 140.312 177.209 138.955 177.744C137.597 178.278 136.535 178.769 136.594 178.835C136.758 179.02 146.119 175.564 147.287 174.887C147.856 174.558 148.59 174.367 148.919 174.463C149.248 174.56 149.443 174.505 149.353 174.341C149.075 173.836 149.801 173.573 150.796 173.818C151.817 174.07 151.787 174.705 150.754 174.705C150.408 174.705 149.952 174.866 149.741 175.062C149.53 175.258 148.072 176.162 146.501 177.071C144.93 177.98 140.324 180.859 136.265 183.47C132.206 186.081 128.827 188.216 128.758 188.216C128.688 188.216 128.498 187.777 128.335 187.239C127.595 184.799 129.291 182.705 134.018 180.221C136.749 178.785 136.689 178.593 133.905 179.86C132.832 180.348 131.918 180.709 131.875 180.66C131.832 180.612 132.559 179.196 133.489 177.514C134.42 175.833 136.046 172.603 137.103 170.337C138.852 166.587 138.994 166.119 138.685 165.127C137.847 162.433 130.04 156.52 125.273 154.967C122.94 154.207 121.602 154.47 120.679 155.869C120.084 156.771 119.876 156.877 119.338 156.555C118.988 156.345 117.816 156.143 116.733 156.105C115.025 156.046 114.763 155.947 114.763 155.356C114.763 154.573 112.407 153.015 111.222 153.015C110.728 153.015 110.477 152.807 110.473 152.393C110.464 151.317 101.252 143.944 94.8552 139.893L91.8213 137.972L91.2691 135.626C89.7412 129.136 87.2104 123.991 83.5879 120.009C82.4621 118.771 81.5896 117.711 81.6487 117.654C81.7077 117.596 82.2558 117.271 82.8668 116.93C84.2556 116.157 85.9485 114.393 86.5627 113.079C86.9603 112.229 86.9762 111.457 86.668 107.953C86.4687 105.684 86.2859 102.054 86.2621 99.8873L86.2186 95.9465L87.3863 93.8131C88.9966 90.87 89.4495 88.8124 88.9249 86.8215C88.3308 84.5662 86.3935 81.8724 84.5803 80.7797C81.9803 79.2131 80.8013 79.1917 76.6779 80.6364C76.1929 80.8064 75.9136 80.6005 75.4937 79.7631C74.5222 77.8253 70.7743 76.6153 68.1134 77.3808ZM127.655 80.0817C128.668 81.2174 128.885 81.7063 128.877 82.8374C128.866 84.3205 128.534 84.9715 127.308 85.918C125.825 87.0637 125.713 86.8326 125.713 82.6127C125.713 79.9676 125.828 78.7014 126.068 78.7014C126.263 78.7014 126.977 79.3226 127.655 80.0817ZM172.05 78.8358C172.05 78.9094 172.3 79.1896 172.606 79.4581C173.109 79.9 173.12 79.8876 172.726 79.3237C172.311 78.7313 172.05 78.5432 172.05 78.8358ZM196.489 78.8792C196.489 78.977 196.56 79.057 196.647 79.057C196.735 79.057 196.806 78.977 196.806 78.8792C196.806 78.7814 196.735 78.7014 196.647 78.7014C196.56 78.7014 196.489 78.7814 196.489 78.8792ZM194.267 80.3015C193.831 80.581 193.625 80.8153 193.81 80.8224C193.994 80.8291 194.423 80.5998 194.762 80.3129C195.545 79.6487 195.295 79.643 194.267 80.3015ZM107.965 82.4644C107.98 82.8786 108.055 82.9629 108.157 82.6795C108.248 82.4228 108.237 82.1159 108.131 81.9979C108.026 81.8798 107.951 82.0896 107.965 82.4644ZM108.257 83.6794C108.257 83.94 108.352 84.0467 108.469 83.9165C108.585 83.786 108.585 83.5727 108.469 83.4422C108.352 83.3121 108.257 83.4187 108.257 83.6794ZM232.035 86.5061C227.181 92.1316 222.172 93.3771 209.819 92.0299C203.52 91.3433 196.999 91.3426 194.108 92.0285C192.886 92.3186 190.673 93.2257 189.189 94.0442C187.046 95.2268 185.957 96.1378 183.892 98.4749C181.613 101.055 181.277 101.321 181.159 100.637C181.061 100.076 181.011 100.169 180.98 100.971C180.956 101.583 180.37 103.343 179.677 104.882C178.193 108.181 177.529 110.858 177.243 114.693L177.035 117.492L176.1 117.262C175.586 117.135 174.714 117.032 174.163 117.033C172.753 117.036 169.13 117.809 168.56 118.228C168.167 118.517 168.181 118.545 168.642 118.384C173.523 116.681 179.792 117.637 183.557 120.657L185.343 122.09L186.391 120.631C187.635 118.896 189.864 117.004 192.068 115.813L193.665 114.95L196.108 115.8C198.724 116.711 200.615 117.183 200.615 116.927C200.615 116.841 199.365 116.348 197.837 115.832C196.31 115.316 194.949 114.778 194.813 114.637C194.677 114.495 196.105 113.872 197.989 113.252C201.086 112.232 201.864 112.118 206.171 112.053L210.929 111.982L207.121 111.787L203.312 111.591L205.534 110.914C214.591 108.154 220.057 105.297 223.942 101.29C225.126 100.069 225.083 100.086 223.307 101.543C220.827 103.578 218.027 105.447 215.846 106.524C213.495 107.685 209.816 109.04 209.618 108.819C209.394 108.567 210.968 105.147 212.187 103.236C213.588 101.041 213.818 100.572 213.328 100.912C212.76 101.305 210.24 105.75 209.523 107.622C209.055 108.846 208.677 109.293 207.86 109.586C205.646 110.383 199.572 112.142 199.461 112.018C199.306 111.845 200.736 107.938 202.085 104.849C203.056 102.623 203.088 102.465 202.376 103.413C201.523 104.549 199.456 109.634 199.149 111.353C198.987 112.262 198.739 112.454 197.033 112.985C195.97 113.316 194.055 114.128 192.778 114.789L190.456 115.991L190.65 115.036C191.174 112.456 193.092 106.571 194.167 104.245C195.72 100.883 195.816 100.521 194.586 102.651C193.076 105.266 191.506 109.52 190.723 113.117C190.156 115.722 189.874 116.432 189.257 116.802C188.837 117.054 187.722 118.193 186.779 119.334L185.065 121.408L184.032 120.54C182.578 119.318 180.635 118.274 178.917 117.789C177.187 117.301 177.168 117.2 177.934 112.285C179.393 102.909 185.724 95.1024 193.791 92.7304C196.864 91.8269 202.317 91.6967 208.708 92.3741C222.579 93.8444 227.426 92.7976 232.324 87.2742L234.358 84.98L234.142 87.5789C233.442 96.0201 230.145 106.194 225.555 114.08C223.062 118.364 219.136 123.413 216.813 125.325C210.894 130.194 202.321 133.223 194.352 133.261C191.65 133.274 190.462 133.385 191.02 133.572C194.871 134.867 206.075 132.54 212.084 129.199C221.959 123.708 230.41 109.794 233.794 93.4575C234.261 91.2007 234.841 83.6314 234.54 83.7135C234.472 83.732 233.344 84.9889 232.035 86.5061ZM108.584 84.5683C108.584 84.7639 108.723 85.1639 108.892 85.4572C109.061 85.7506 109.199 85.8306 109.199 85.635C109.199 85.4394 109.061 85.0394 108.892 84.7461C108.723 84.4527 108.584 84.3727 108.584 84.5683ZM109.209 86.3461C109.209 86.4439 109.281 86.5239 109.368 86.5239C109.455 86.5239 109.527 86.4439 109.527 86.3461C109.527 86.2484 109.455 86.1684 109.368 86.1684C109.281 86.1684 109.209 86.2484 109.209 86.3461ZM182.947 86.7611C183.063 86.8912 183.254 86.8912 183.37 86.7611C183.486 86.6306 183.391 86.5239 183.159 86.5239C182.926 86.5239 182.831 86.6306 182.947 86.7611ZM183.82 89.8129C182.511 92.8584 181.243 97.4075 181.27 98.9617C181.279 99.4545 181.632 98.3377 182.056 96.4798C182.48 94.622 183.445 91.7021 184.199 89.9907C184.954 88.2797 185.461 86.8795 185.326 86.8795C185.191 86.8795 184.514 88.1994 183.82 89.8129ZM159.662 90.1024C164.091 90.9074 167.239 93.7924 168.839 98.513C169.383 100.12 169.829 101.549 169.829 101.688C169.829 101.827 169.327 101.285 168.713 100.482C166.904 98.113 161.586 94.217 161.024 94.8474C160.921 94.963 160.987 95.0576 161.172 95.0576C162.349 95.0576 170.146 101.899 170.146 102.931C170.146 103.091 169.539 103.582 168.797 104.022C167.726 104.658 166.925 104.825 164.909 104.83C160.454 104.84 158.526 103.184 155.508 96.7522C154.582 94.7809 153.333 92.6322 152.731 91.9769C152.129 91.322 151.71 90.7043 151.799 90.6044C151.988 90.3929 155.269 89.8293 156.657 89.7699C157.181 89.7479 158.533 89.8972 159.662 90.1024ZM77.3041 91.4834C78.0778 93.1599 79.8206 94.4304 81.6106 94.6231C83.4888 94.8254 83.4765 94.7493 82.3669 99.2853C80.4836 106.982 78.5479 109.652 75.2757 109.066C74.0468 108.846 74.0255 108.861 73.6894 110.217C73.5022 110.973 73.3483 112.024 73.3473 112.551C73.3451 113.63 71.8356 115.146 70.2592 115.652C68.4492 116.234 65.893 114.643 65.0729 112.424C64.6216 111.204 64.8704 109.557 66.3926 103.685C67.2749 100.282 67.3047 99.9776 66.8496 98.9916C66.2685 97.7325 66.2136 95.7228 66.7439 95.1287C66.9534 94.894 67.5862 94.702 68.1505 94.702C68.9275 94.702 69.3404 94.9601 69.8526 95.7662C70.5083 96.7977 70.5575 96.8141 71.457 96.2928C72.9274 95.4409 74.5702 93.6694 75.4506 91.9865C75.8968 91.1332 76.3878 90.4352 76.5411 90.4352C76.6947 90.4352 77.0381 90.907 77.3041 91.4834ZM75.1408 94.6131C75.0605 94.76 75.4049 94.8965 75.906 94.9171C76.4072 94.9377 76.7417 94.8176 76.6493 94.6504C76.4427 94.2757 75.3408 94.2483 75.1408 94.6131ZM81.324 96.8048C81.7363 97.1792 82.1295 97.4228 82.1981 97.3467C82.4301 97.0886 81.5224 96.1243 81.0472 96.1243C80.7254 96.1243 80.8137 96.3412 81.324 96.8048ZM75.1637 97.4057C75.0364 97.5483 74.9323 97.9103 74.9323 98.2104C74.9323 98.6104 75.0262 98.6502 75.2855 98.3601C75.4795 98.1425 75.5839 97.7805 75.5169 97.5554C75.4499 97.3304 75.2909 97.2632 75.1637 97.4057ZM80.3214 99.1551C80.1005 99.4531 80.0002 99.787 80.098 99.8968C80.196 100.007 80.4357 99.7628 80.6305 99.355C81.0463 98.4845 80.892 98.385 80.3214 99.1551ZM78.0312 100.036C77.9026 100.524 77.7954 101.295 77.7932 101.748C77.7893 102.43 77.6656 102.534 77.0746 102.352C76.3805 102.138 76.378 102.148 76.9765 102.684C78.1477 103.733 78.5241 103.194 78.3641 100.698C78.28 99.3838 78.2292 99.2824 78.0312 100.036ZM71.7585 103.469C71.7585 104.542 72.5215 106.08 73.0534 106.08C73.2219 106.08 73.1394 105.703 72.8693 105.241C72.5996 104.78 72.4599 104.165 72.5592 103.876C72.6583 103.587 72.5189 103.144 72.2492 102.894C71.8258 102.5 71.7585 102.579 71.7585 103.469ZM73.028 104.125C73.028 104.222 73.0994 104.302 73.1867 104.302C73.274 104.302 73.3454 104.222 73.3454 104.125C73.3454 104.027 73.274 103.947 73.1867 103.947C73.0994 103.947 73.028 104.027 73.028 104.125ZM170.781 104.658C170.781 104.919 170.876 105.025 170.993 104.895C171.109 104.765 171.109 104.551 170.993 104.421C170.876 104.291 170.781 104.397 170.781 104.658ZM171.098 105.725C171.098 105.985 171.193 106.092 171.31 105.962C171.426 105.831 171.426 105.618 171.31 105.487C171.193 105.357 171.098 105.464 171.098 105.725ZM171.416 106.791C171.416 107.052 171.511 107.159 171.627 107.028C171.743 106.898 171.743 106.685 171.627 106.554C171.511 106.424 171.416 106.531 171.416 106.791ZM171.733 107.858C171.733 108.119 171.828 108.225 171.945 108.095C172.061 107.965 172.061 107.751 171.945 107.621C171.828 107.491 171.733 107.597 171.733 107.858ZM172.05 108.925C172.05 109.185 172.146 109.292 172.262 109.162C172.378 109.031 172.378 108.818 172.262 108.688C172.146 108.557 172.05 108.664 172.05 108.925ZM172.368 110.525C172.368 110.623 172.439 110.703 172.526 110.703C172.614 110.703 172.685 110.623 172.685 110.525C172.685 110.427 172.614 110.347 172.526 110.347C172.439 110.347 172.368 110.427 172.368 110.525ZM172.71 111.621C172.725 112.035 172.801 112.12 172.902 111.836C172.994 111.579 172.982 111.273 172.877 111.154C172.771 111.036 172.697 111.246 172.71 111.621ZM173.056 112.836C173.062 113.129 173.18 113.769 173.32 114.258C173.524 114.973 173.576 115.008 173.583 114.436C173.588 114.045 173.47 113.405 173.32 113.014C173.153 112.578 173.051 112.509 173.056 112.836ZM173.662 115.888C173.678 116.302 173.753 116.386 173.854 116.103C173.946 115.846 173.934 115.539 173.829 115.421C173.724 115.303 173.649 115.513 173.662 115.888ZM166.972 118.881C166.71 119.07 166.639 119.225 166.814 119.225C166.988 119.225 167.345 119.07 167.607 118.881C167.869 118.691 167.94 118.536 167.766 118.536C167.591 118.536 167.234 118.691 166.972 118.881ZM166.02 119.414C166.02 119.512 166.092 119.592 166.179 119.592C166.266 119.592 166.338 119.512 166.338 119.414C166.338 119.316 166.266 119.236 166.179 119.236C166.092 119.236 166.02 119.316 166.02 119.414ZM164.891 120.145C164.299 120.676 164.303 120.682 164.989 120.31C165.381 120.097 165.703 119.848 165.703 119.757C165.703 119.485 165.538 119.564 164.891 120.145ZM163.441 121.281C163.046 121.845 163.057 121.857 163.56 121.415C163.866 121.147 164.116 120.866 164.116 120.793C164.116 120.5 163.855 120.688 163.441 121.281ZM171.098 121.878C165.739 123.549 162.464 128.107 162.577 133.739L162.625 136.126L162.827 133.439C163.27 127.538 166.259 123.802 171.812 122.208C177.057 120.703 182.53 123.426 184.924 128.733C185.745 130.554 185.853 131.163 185.855 133.992C185.856 136.713 185.731 137.493 185.016 139.201C182.884 144.295 177.927 147.169 172.843 146.259C171.658 146.047 170.412 145.708 170.073 145.505C169.734 145.301 169.392 145.208 169.312 145.297C169.04 145.602 171.729 146.608 173.399 146.826C176.872 147.279 180.459 145.91 183.031 143.149C187.145 138.732 187.453 130.74 183.699 125.819C181.387 122.789 178.476 121.349 174.771 121.401C173.536 121.419 171.884 121.633 171.098 121.878ZM161.705 122.881L161.101 123.681L161.815 123.003C162.486 122.367 162.673 122.081 162.42 122.081C162.359 122.081 162.038 122.441 161.705 122.881ZM160.556 124.481C160.075 125.098 159.101 127.052 159.453 126.694C159.738 126.403 161.253 123.859 161.14 123.859C161.086 123.859 160.822 124.139 160.556 124.481ZM174.626 124.969C174.602 125.35 174.18 125.619 173.381 125.762C171.324 126.13 169.872 128.56 170.5 130.58C170.846 131.692 172.395 133.218 173.774 133.805C174.584 134.151 174.589 134.178 174.589 138.25C174.589 142.155 174.558 142.348 173.934 142.348C173.134 142.348 172.13 141.791 171.178 140.82C170.785 140.419 170.463 140.265 170.463 140.477C170.463 141.153 172.347 142.667 173.488 142.907C174.117 143.039 174.589 143.35 174.589 143.632C174.589 143.904 174.732 144.126 174.907 144.126C175.081 144.126 175.224 143.906 175.224 143.636C175.224 143.366 175.655 142.946 176.183 142.701C177.583 142.051 178.722 140.379 178.683 139.032L178.65 137.904L178.334 139.234C177.989 140.69 176.395 142.447 175.579 142.272C175.151 142.18 175.051 141.526 174.975 138.344C174.926 136.244 174.98 134.526 175.097 134.526C175.661 134.526 177.508 136.121 177.914 136.958C178.166 137.478 178.378 137.709 178.385 137.472C178.406 136.77 176.487 134.537 175.665 134.306C174.921 134.097 174.907 134.016 174.907 130.036V125.979L175.78 126.165L176.652 126.352L175.799 125.972C175.33 125.763 174.882 125.322 174.804 124.992C174.68 124.465 174.659 124.462 174.626 124.969ZM174.589 129.87C174.589 133.641 174.571 133.743 173.919 133.552C173.551 133.444 172.694 132.763 172.015 132.04C170.718 130.658 170.411 129.208 171.106 127.753C171.507 126.915 172.917 126.025 173.875 126.006C174.573 125.992 174.589 126.081 174.589 129.87ZM188.237 127.059C188.237 127.319 188.332 127.426 188.448 127.296C188.565 127.165 188.565 126.952 188.448 126.822C188.332 126.691 188.237 126.798 188.237 127.059ZM158.772 127.963C158.569 128.462 158.409 129.062 158.415 129.298C158.422 129.533 158.639 129.181 158.896 128.516C159.439 127.116 159.324 126.606 158.772 127.963ZM33.2963 128.724C33.5251 128.827 33.799 128.814 33.9044 128.696C34.0097 128.578 33.8225 128.494 33.4879 128.509C33.1182 128.526 33.043 128.61 33.2963 128.724ZM25.1037 130.084C16.5707 132.048 11.4564 133.914 11.4564 135.063C11.4564 135.86 10.7246 135.597 6.61639 133.318C3.75046 131.728 3.20457 131.527 3.20457 132.063C3.20457 133.316 3.89677 134.728 5.29546 136.327C6.71066 137.945 6.71351 137.953 6.07114 138.604C5.71631 138.964 5.42622 139.572 5.42622 139.956C5.42622 140.542 5.56587 140.612 6.29901 140.398C6.77921 140.257 7.92146 140.064 8.83805 139.968C10.4929 139.794 10.5043 139.8 10.5091 140.804C10.5119 141.36 10.6525 142.055 10.8217 142.348C11.0508 142.745 11.1305 142.545 11.1343 141.563C11.1368 140.837 11.3012 139.022 11.4993 137.529L11.8598 134.815L13.2534 134.145C15.3735 133.127 19.8784 131.856 26.3733 130.443C33.0338 128.994 33.367 128.895 31.61 128.886C30.9118 128.882 27.984 129.421 25.1037 130.084ZM157.969 131.002C157.858 131.62 157.789 133.026 157.814 134.126C157.854 135.868 157.89 135.736 158.097 133.103C158.348 129.91 158.301 129.139 157.969 131.002ZM189.189 130.437C189.189 130.534 189.26 130.614 189.348 130.614C189.435 130.614 189.506 130.534 189.506 130.437C189.506 130.339 189.435 130.259 189.348 130.259C189.26 130.259 189.189 130.339 189.189 130.437ZM9.66387 135.435C11.1803 136.062 11.2013 136.092 11.0162 137.344C10.9131 138.043 10.8271 138.8 10.8252 139.025C10.8229 139.295 10.4091 139.374 9.62007 139.255C8.88661 139.145 7.9405 139.298 7.19117 139.649C5.63379 140.378 5.40115 140.121 6.47897 138.861L7.32637 137.869L5.87468 136.286C4.48551 134.771 3.52195 133.19 3.52195 132.425C3.52195 132.228 4.55755 132.681 5.82295 133.432C7.08834 134.183 8.8171 135.085 9.66387 135.435ZM189.568 133.637C189.574 134.223 189.646 134.42 189.726 134.074C189.807 133.728 189.801 133.248 189.714 133.008C189.627 132.767 189.562 133.05 189.568 133.637ZM189.065 136.971C188.793 139.266 187.015 143.205 185.405 145.08C182.388 148.593 179.201 150.194 174.73 150.444C169.797 150.72 166.179 149.344 162.605 145.833L160.783 144.043L162.749 146.19C166.947 150.775 172.81 152.293 178.685 150.316L179.447 150.059L179.235 161.404C179.118 167.644 179.156 177.629 179.319 183.594C179.481 189.559 179.552 194.508 179.477 194.593C179.401 194.678 179.17 194.558 178.964 194.326C178.145 193.409 178.128 194.014 178.909 196.306C179.425 197.821 179.95 200.605 180.333 203.861C181.013 209.65 181.932 215.048 182.612 217.261C183.039 218.649 183.027 218.785 182.408 219.479C182.045 219.885 181.905 220.218 182.097 220.218C182.289 220.218 182.642 219.953 182.882 219.629C183.121 219.306 183.794 218.818 184.376 218.545C185.334 218.096 185.537 218.117 186.518 218.766C187.709 219.553 187.964 219.273 186.972 218.267C186.474 217.762 186.017 217.671 184.785 217.835L183.227 218.042L182.582 215.129C182.228 213.528 181.839 211.457 181.719 210.528L181.5 208.839H186.309C197.094 208.839 204.556 210.824 208.311 214.689C209.337 215.745 209.501 216.129 209.501 217.463C209.501 223.085 199.789 228.866 187.302 230.677C171.677 232.943 153.653 231.65 145.867 227.706C143.887 226.703 141.929 224.933 141.385 223.656C140.119 220.682 142.899 216.682 148.307 213.697C153.152 211.024 158.625 209.6 166.424 208.986C168.996 208.783 169.501 208.825 169.384 209.234C169.306 209.506 169.007 210.971 168.719 212.49L168.196 215.251L167.383 214.534C166.412 213.679 165.368 213.624 163.991 214.356C162.907 214.933 161.884 216.531 161.911 217.606C161.92 217.994 162.118 217.747 162.395 216.999C162.894 215.655 164.25 214.529 165.371 214.529C166.551 214.529 167.925 215.539 167.92 216.404C167.913 217.418 167.662 217.783 166.522 218.44C166.012 218.733 165.527 219.213 165.444 219.506C165.325 219.926 165.427 219.906 165.92 219.418C166.953 218.392 168.387 218.616 169.326 219.951C169.864 220.715 170.14 220.912 170.143 220.532C170.147 219.793 168.951 218.084 168.429 218.084C168.133 218.084 168.262 216.946 168.924 213.728C169.846 209.247 171.207 200.414 171.583 196.483C171.723 195.024 171.936 194.261 172.206 194.261C172.854 194.261 172.993 193.37 172.508 192.324C172.127 191.501 172.129 190.65 172.523 186.324C173.304 177.75 174.748 153.074 174.486 152.781C174.319 152.594 174.1 155.569 173.29 169.016C172.907 175.372 172.562 180.617 172.524 180.671C172.486 180.726 172.016 180.311 171.479 179.749C170.593 178.822 167.306 177.1 167.007 177.405C166.81 177.605 169.829 181.444 170.665 182.058C171.306 182.529 171.497 182.539 171.944 182.125C172.427 181.677 172.451 181.863 172.249 184.483C172.129 186.048 171.946 188.077 171.843 188.993L171.657 190.659L170.857 189.594C170.384 188.965 169.941 188.66 169.773 188.848C169.3 189.377 169.868 192.125 170.67 193.193L171.421 194.193L170.808 198.939C170.47 201.549 170.024 204.772 169.817 206.103C169.444 208.499 169.431 208.521 168.552 208.304C166.357 207.764 156.259 209.714 151.592 211.579C146.529 213.603 142.141 217.035 141.052 219.824C140.371 221.567 140.134 227.944 140.614 231.619C142.629 247.058 153.478 258.993 169.281 263.156C174.109 264.428 181.53 264.511 185.698 263.34C187.181 262.922 188.646 262.473 188.951 262.34C189.43 262.132 189.506 262.32 189.506 263.709C189.506 264.943 189.708 265.589 190.368 266.468C192.649 269.504 200.276 271.322 209.184 270.953C216.119 270.665 220.643 269.307 222.481 266.962C223.315 265.898 223.425 265.452 223.638 262.291C223.767 260.369 223.796 254.593 223.701 249.455C223.508 238.99 223.495 238.927 221.214 237.623C219.239 236.494 215.431 235.527 211.965 235.272C209.264 235.074 208.866 234.965 209.054 234.475C212.046 226.701 212.077 217.954 209.124 214.571C207.679 212.915 203.556 210.691 200.124 209.715C196.407 208.659 189.406 208.024 184.874 208.334L181.352 208.574L180.964 204.228C180.62 200.379 180.632 199.813 181.073 199.266C181.738 198.444 181.701 197.878 180.886 196.395C180.225 195.192 180.195 194.673 180.014 181.105C179.911 173.38 179.878 163.14 179.942 158.349L180.058 149.637L181.688 148.771C184.055 147.512 186.748 144.34 188.066 141.261C189.077 138.895 189.796 135.798 189.428 135.386C189.343 135.291 189.18 136.004 189.065 136.971ZM158.136 137.015C158.136 137.504 158.208 137.704 158.296 137.459C158.384 137.215 158.384 136.815 158.296 136.57C158.208 136.326 158.136 136.526 158.136 137.015ZM162.854 136.691C162.828 138.611 166.067 143.533 168.196 144.81C169.293 145.468 168.977 144.964 167.766 144.126C166.215 143.052 164.504 140.6 163.615 138.178C163.2 137.049 162.858 136.38 162.854 136.691ZM158.428 138.437C158.406 139.055 159.872 142.704 160.142 142.704C160.242 142.704 160.091 142.199 159.806 141.582C159.521 140.964 159.099 139.884 158.868 139.181C158.637 138.479 158.439 138.144 158.428 138.437ZM160.466 143.415C160.574 143.61 160.734 143.77 160.821 143.77C160.908 143.77 160.891 143.61 160.783 143.415C160.675 143.219 160.516 143.059 160.429 143.059C160.341 143.059 160.358 143.219 160.466 143.415ZM174.272 151.949C174.272 152.209 174.367 152.316 174.484 152.186C174.6 152.055 174.6 151.842 174.484 151.711C174.367 151.581 174.272 151.688 174.272 151.949ZM126.604 155.903C130.102 157.239 136.927 162.537 138.058 164.793C138.309 165.294 138.416 165.99 138.297 166.339C138.107 166.893 137.776 166.953 135.737 166.807C133.798 166.667 132.941 166.383 130.745 165.15C129.286 164.332 127.202 162.864 126.113 161.888C123.875 159.884 121.587 156.833 121.587 155.854C121.587 154.695 123.489 154.713 126.604 155.903ZM113.761 156.126C114.111 156.468 114.292 156.549 114.165 156.304C114.037 156.06 114.084 155.86 114.269 155.86C114.453 155.86 114.605 156.34 114.605 156.926C114.605 158.271 114.197 158.282 113.357 156.961C112.363 155.397 112.574 154.963 113.761 156.126ZM113.274 157.288C114.006 158.277 114.178 158.704 113.841 158.704C113.575 158.704 112.996 158.107 112.553 157.377C112.11 156.647 111.748 156.235 111.748 156.461C111.748 156.687 112.123 157.371 112.581 157.981C113.533 159.248 113.495 159.644 112.509 158.748C111.496 157.828 111.068 156.765 111.509 156.27C112.036 155.679 112.115 155.725 113.274 157.288ZM122.946 159.111C125.919 163.407 132.639 167.594 136.562 167.594C137.228 167.594 137.773 167.699 137.773 167.828C137.773 168.148 135.035 173.803 132.942 177.807C131.874 179.85 130.817 181.396 130.141 181.906C128.963 182.796 127.624 185.121 127.634 186.261C127.637 186.652 127.828 187.352 128.057 187.816C128.435 188.58 128.353 188.897 127.19 191.146C125.399 194.612 124.113 195.525 121.133 195.446C115.052 195.285 108.098 190.551 105.622 184.886C104.305 181.873 104.437 181.023 106.712 177.905C107.783 176.438 111.451 170.929 114.863 165.661C120.193 157.435 121.116 156.175 121.407 156.731C121.593 157.086 122.286 158.157 122.946 159.111ZM112.13 159.722C111.502 159.881 110.479 158.528 110.479 157.539C110.479 156.931 110.661 157.042 111.559 158.2C112.416 159.306 112.534 159.62 112.13 159.722ZM158.848 175.88C159.355 176.31 160.199 177.18 160.724 177.816C161.766 179.077 162.546 179.272 163.172 178.428C164.227 177.003 161.95 175.042 159.286 175.08L157.927 175.1L158.848 175.88ZM162.873 183.772C162.879 183.967 163.197 185.087 163.581 186.261C164.114 187.895 164.425 188.394 164.911 188.394C166.128 188.394 165.858 186.936 164.303 185.11C163.51 184.179 162.866 183.576 162.873 183.772ZM166.751 198.528C166.856 199.017 167.04 200.137 167.159 201.017C167.398 202.773 167.773 203.506 168.433 203.506C169.708 203.506 168.916 199.979 167.276 198.35L166.56 197.639L166.751 198.528ZM7.55425 203.266C7.46538 203.525 7.29082 204.805 7.16609 206.111C6.95726 208.295 6.8795 208.484 6.19079 208.484C5.27674 208.484 4.47408 206.933 4.47408 205.167C4.47408 203.823 4.86573 203.301 6.06098 203.055C7.49903 202.759 7.71738 202.79 7.55425 203.266ZM174.696 205.106C174.839 206.809 175.039 207.398 175.688 208.027C176.501 208.812 177.446 208.788 177.446 207.982C177.446 207.748 176.787 206.525 175.981 205.264L174.517 202.973L174.696 205.106ZM196.342 216.786C195.573 217.416 195.975 218.084 197.123 218.084C198.272 218.084 198.674 217.416 197.905 216.786C197.583 216.522 197.231 216.306 197.123 216.306C197.015 216.306 196.664 216.522 196.342 216.786ZM155.278 217.332C155.042 217.499 154.9 217.937 154.963 218.305C155.112 219.189 157.048 219.46 157.33 218.636C157.724 217.485 156.319 216.593 155.278 217.332ZM177.171 219.727C176.584 220.187 176.279 220.223 175.657 219.905C174.375 219.25 173.109 219.434 172.147 220.414L171.257 221.322L172.273 220.77C173.579 220.06 174.892 220.068 175.813 220.79C176.499 221.329 176.572 221.318 177.013 220.613C177.6 219.672 178.218 219.66 179.033 220.573C179.504 221.102 179.667 221.152 179.667 220.771C179.667 220.313 178.53 219.151 178.081 219.151C177.984 219.151 177.574 219.41 177.171 219.727ZM152.236 221.955C151.948 222.478 152.978 223.237 153.374 222.794C153.561 222.584 153.618 222.239 153.501 222.026C153.244 221.561 152.478 221.517 152.236 221.955ZM160.112 223.573C159.751 224.627 160.239 225.248 161.337 225.129C162.201 225.036 162.37 224.872 162.37 224.129C162.37 223.385 162.201 223.222 161.337 223.128C160.625 223.051 160.244 223.19 160.112 223.573ZM190.595 224.169C190.377 224.564 190.972 225.185 191.569 225.185C192.167 225.185 192.762 224.564 192.543 224.169C192.423 223.951 191.985 223.773 191.569 223.773C191.153 223.773 190.715 223.951 190.595 224.169ZM214.285 236.06C219.921 236.94 222.831 238.461 222.831 240.527C222.831 243.998 215.333 246.885 206.318 246.885C198.916 246.885 193.173 245.581 190.976 243.402C190.486 242.916 190.396 242.901 190.516 243.33C190.72 244.046 193.682 245.687 195.926 246.325C199.408 247.315 205.064 247.707 209.517 247.266C215.983 246.625 219.856 245.273 222.117 242.866L223.148 241.768L223.147 245.304C223.146 249.774 222.743 250.632 219.919 252.186C216.796 253.904 213.767 254.416 206.486 254.455C201.595 254.482 199.592 254.353 197.758 253.89C194.784 253.141 191.708 251.473 190.614 250.017C189.823 248.963 189.787 248.752 189.95 246.028C190.044 244.446 190.129 242.678 190.138 242.099C190.173 240.003 191.608 238.638 195.19 237.292C199.822 235.552 207.758 235.04 214.285 236.06ZM192.314 252.206C195.595 254.1 200.615 255.089 206.962 255.091C214.392 255.094 219.634 253.825 222.064 251.434L223.148 250.367V253.577C223.148 256.497 223.076 256.883 222.34 257.862C221.257 259.306 218.783 260.564 215.522 261.332C211.586 262.259 201.14 262.259 197.599 261.333C194.505 260.523 191.779 259.035 190.659 257.544C189.891 256.52 189.824 256.172 189.824 253.192V249.952L190.696 250.864C191.177 251.366 191.904 251.97 192.314 252.206ZM75.3382 252.308C75.1053 253.407 74.3578 253.998 73.2054 253.992C71.3669 253.982 70.8064 253.642 70.8064 252.533V251.508H73.1569C75.4334 251.508 75.5023 251.533 75.3382 252.308ZM192.727 260.066C199.775 264.104 217.491 263.399 222.067 258.898L223.148 257.834V261.226C223.148 263.091 223.012 265.021 222.844 265.514C222.486 266.57 219.874 268.357 217.594 269.108C214.904 269.993 211.502 270.369 206.188 270.371C199.847 270.372 196.53 269.768 193.418 268.046C190.077 266.196 189.824 265.716 189.824 261.255V257.586L190.696 258.495C191.177 258.994 192.09 259.702 192.727 260.066Z" fill="#2D2D2D" stroke="black"/>
</svg>
