<svg width="290" height="272" viewBox="0 0 290 272" fill="none" xmlns="http://www.w3.org/2000/svg">
<path fill-rule="evenodd" clip-rule="evenodd" d="M181.898 3.67318C181.898 5.41244 182.064 7.10229 182.266 7.4284C182.521 7.83831 182.634 7.04497 182.634 4.85904C182.634 3.11978 182.469 1.42993 182.266 1.10382C182.012 0.693904 181.898 1.48724 181.898 3.67318ZM189.551 6.60976C188.704 8.13794 188.151 9.47875 188.323 9.58903C188.664 9.80842 191.566 4.32579 191.272 4.01945C191.172 3.91549 190.398 5.08119 189.551 6.60976ZM170.493 4.79144C170.491 5.1389 172.398 10.2776 172.632 10.5579C172.708 10.6484 172.863 10.6263 172.976 10.5081C173.089 10.3903 172.886 9.5159 172.524 8.56485C171.819 6.71016 170.495 4.25109 170.493 4.79144ZM178.248 12.5039C175.334 13.9229 174.072 16.6228 174.39 20.7527C174.537 22.6592 174.874 23.7727 175.746 25.2317C176.384 26.2998 176.744 27.2773 176.547 27.4042C175.922 27.8062 176.16 29.1438 176.948 29.6561C177.366 29.9277 177.708 30.4629 177.708 30.8456C177.708 31.3238 178.005 31.5409 178.658 31.5409C179.18 31.5409 179.607 31.363 179.607 31.1456C179.607 30.9282 180.086 30.7503 180.671 30.7503C181.963 30.7503 182.646 30.1076 182.646 28.8924C182.646 28.341 182.874 27.9833 183.226 27.9833C184.195 27.9833 187.048 24.6799 187.765 22.7268C188.233 21.45 188.386 20.2163 188.264 18.6877C188.071 16.2721 187.401 15.0788 185.189 13.2158C183.371 11.6844 180.529 11.3931 178.248 12.5039ZM184.144 13.3466C187.728 15.2491 188.826 19.4898 186.807 23.6351C184.597 28.1754 179.855 29.1261 176.825 25.6357C173.439 21.7358 174.223 14.9843 178.278 13.1217C179.941 12.3572 182.463 12.4541 184.144 13.3466ZM193.851 15.3341C193.545 15.8492 196.694 15.8492 197.46 15.3341C197.868 15.0594 197.471 14.9491 196.058 14.9448C194.973 14.9416 193.98 15.1167 193.851 15.3341ZM26.9132 90.4907V163.012L25.6472 163.489C24.2118 164.029 23.3636 165.379 23.4096 167.053C23.435 167.989 23.1938 168.311 22.0433 168.875C20.1289 169.814 16.9717 171.931 17.1734 172.141C17.2642 172.236 18.7319 171.584 20.4347 170.693L23.5307 169.073L24.5134 169.877C25.0539 170.32 25.8109 170.682 26.1957 170.682C26.8422 170.682 26.9033 171.179 27.0089 177.303L27.1229 183.924L27.2079 177.303C27.2881 171.079 27.3367 170.682 28.0189 170.682C29.1987 170.682 30.7115 168.474 30.7115 166.753V165.256L39.1268 161.237L47.5421 157.219L48.388 158.046C50.8862 160.488 54.9694 157.497 53.82 154.066C53.3388 152.629 52.8408 153.299 63.2893 141.323C68.3829 135.484 71.7224 131.959 72.0905 132.033C72.6078 132.137 72.6834 133.332 72.6834 141.392V150.632L71.0384 151.138C70.1336 151.416 69.0476 151.969 68.6253 152.366C66.2087 154.642 65.9197 159.307 68.0433 161.758C69.2554 163.157 72.3875 164.017 74.2605 163.465C77.6232 162.473 81.7995 163.29 81.7995 164.94C81.7995 167.061 76.8331 168.296 71.354 167.537C67.578 167.014 65.909 166.488 65.1118 165.572C64.4828 164.848 64.493 164.787 65.3397 164.217C65.8274 163.889 66.704 163.498 67.2886 163.348C67.8728 163.198 68.2747 162.997 68.1816 162.9C67.8322 162.536 64.9917 163.593 64.357 164.323C63.4656 165.348 64.0771 166.512 65.8597 167.183C66.7625 167.523 67.2863 168.016 67.4592 168.691C67.8097 170.057 67.8097 175.225 67.4592 177.402C67.2092 178.955 67.2309 179.055 67.6324 178.192C67.9104 177.594 68.0984 175.319 68.1087 172.426L68.1254 167.648L69.6447 168.012C70.4804 168.213 72.8167 168.311 74.8367 168.232L78.509 168.087L78.73 169.236C78.8512 169.868 78.9507 171.082 78.9507 171.934C78.9507 173.91 79.9349 178.889 80.9308 181.947C82.2333 185.95 83.9581 188.957 86.3013 191.312L88.5393 193.562L88.3782 197.394C88.2244 201.05 88.1671 201.268 87.1274 202.131C86.5281 202.628 84.6566 203.522 82.969 204.118C80.2505 205.077 79.3587 205.198 75.1524 205.179C68.1938 205.147 62.8297 203.715 60.2438 201.197C59.2365 200.217 59.1992 200.036 59.1992 196.153V192.126L61.803 188.766C64.2097 185.661 66.796 181.501 66.796 180.737C66.796 180.558 66.1852 181.469 65.4388 182.761C64.1025 185.073 62.3071 187.593 59.8685 190.58C58.6671 192.052 58.6257 192.223 58.4992 196.24C58.3887 199.751 58.47 200.498 59.0321 201.145C59.6733 201.882 59.5764 202.036 56.1127 205.762C50.9165 211.353 40.1645 223.85 23.887 243.217C3.17306 267.862 0.693868 270.875 1.02698 270.995C1.2754 271.084 61.83 270.081 273.332 266.484C281.949 266.337 289 266.09 289 265.934C289 265.778 281.567 258.78 272.482 250.384C254.766 234.01 254.466 233.679 250.015 225.599C246.883 219.913 245.335 213.791 244.543 203.955C244.132 198.84 244.315 198.166 246.219 197.794C248.982 197.255 250.608 194.927 249.864 192.58C249.239 190.609 247.33 189.57 243.921 189.342L241.097 189.153L242.048 188.12C243.453 186.594 244.179 184.443 244.179 181.812C244.179 177.554 242.519 174.325 239.324 172.37C237.814 171.447 237.113 171.277 234.873 171.292C232.678 171.306 231.864 171.509 230.201 172.453C224.686 175.585 223.662 182.983 228.045 188.032L229.365 189.553L226.992 189.83C222.472 190.357 219.705 192.431 220.476 194.714C220.896 195.955 222.844 197.406 224.843 197.966C226.161 198.336 226.303 198.511 226.516 200.041C226.644 200.96 226.697 203.707 226.633 206.147L226.517 210.582L217.469 202.886L208.42 195.189H195.913C188.268 195.189 183.406 195.044 183.406 194.814C183.406 194.608 183.888 193.673 184.479 192.739C188.109 186.987 188.51 180.493 185.489 176.371C183.794 174.058 183.369 168.725 184.632 165.626C184.872 165.037 186.08 162.979 187.315 161.053C191.503 154.524 192.313 151.638 192.324 143.209C192.328 139.948 192.2 135.813 192.038 134.019C191.828 131.684 191.866 130.758 192.172 130.758C192.407 130.758 193.999 130.075 195.708 129.241C200.182 127.06 203.351 123.868 205.497 119.381C207.133 115.96 207.145 115.904 207.126 111.784C207.11 108.236 206.958 107.239 206.08 104.914C205.515 103.418 204.379 101.144 203.556 99.8606L202.058 97.5268L203.026 96.0579C203.883 94.759 203.97 94.3147 203.781 92.2173C203.664 90.9129 202.972 87.6221 202.243 84.9045L200.918 79.9634L203.842 77.2118C205.45 75.6987 208.683 72.5123 211.027 70.1311C213.813 67.3 215.348 65.9948 215.46 66.36C215.554 66.6676 215.819 88.976 216.049 115.934C216.497 168.419 216.786 185.128 217.236 184.631C217.392 184.459 217.37 177.56 217.188 169.298C217.006 161.037 216.737 134.577 216.592 110.499L216.328 66.7213H217.356C217.925 66.7213 218.778 66.3122 219.265 65.8059L220.144 64.8904L225.989 68.4989C230.736 71.4292 231.856 72.2882 231.946 73.0708C232.467 77.6119 238.315 78.4685 239.994 74.2496C240.572 72.7969 240.293 71.4917 239.086 69.9983L238.17 68.8662L241.199 64.5326C242.865 62.1491 247.678 55.243 251.895 49.186L259.563 38.173L259.635 48.3955C260.148 120.639 260.659 172.366 260.907 177.006C261.131 181.216 261.171 179.433 261.055 170.286C260.969 163.438 260.784 130.601 260.644 97.3157C260.409 41.2989 260.437 36.7274 261.021 35.8598C261.807 34.6925 261.841 34.0478 261.082 34.7032C260.579 35.1376 260.503 34.1837 260.431 26.5492L260.35 17.9035L260.146 26.9951L259.943 36.0867L248.792 52.2934C238.252 67.6111 237.582 68.4934 236.564 68.3792C235.325 68.2396 233.439 69.1444 232.71 70.2275C232.236 70.9311 231.887 70.7877 226.236 67.5617C221.94 65.1098 220.26 63.9504 220.256 63.4341C220.242 61.7585 218.76 60.0355 217.315 60.0141C216.609 60.0034 216.497 59.8224 216.633 58.9144C216.722 58.3168 216.863 48.8445 216.948 37.8654C217.032 26.8864 216.973 19.6823 216.816 21.8563C216.66 24.0304 216.408 33.458 216.256 42.8065L215.981 59.8038L215.081 60.7051C213.954 61.8336 213.573 63.3369 214.106 64.5536C214.556 65.5817 215.306 64.7291 204.952 74.9642C202.701 77.1893 200.712 78.9147 200.531 78.7985C200.35 78.6823 200.086 78.0965 199.944 77.4965C199.487 75.5627 195.656 67.7566 194.4 66.1996C193.175 64.6805 191.657 63.5413 188.154 61.5115C186.628 60.6276 186.434 60.4098 187.168 60.4039C188.12 60.3964 190.622 58.6583 190.622 58.0049C190.622 57.7985 190.136 57.6298 189.542 57.6298C187.585 57.6298 187.159 56.6257 186.192 49.739C186.066 48.839 185.523 47.9026 184.608 47.0041C183.335 45.7542 183.223 45.4711 183.298 43.6825C183.418 40.8151 182.683 39.6763 179.692 38.0991C178.288 37.3583 176.54 36.0973 175.809 35.2977C175.078 34.4976 173.807 33.4825 172.984 33.0418C171.15 32.0583 168.208 31.984 166.883 32.888C166.175 33.371 165.92 33.4074 165.882 33.0323C165.853 32.7556 165.706 29.683 165.553 26.2045L165.276 19.8799L165.241 27.3904C165.222 31.5211 165.096 35.4597 164.963 36.1432C164.802 36.9618 164.945 37.8801 165.38 38.8351C166.021 40.2387 166.016 40.3439 165.234 42.1385C163.383 46.3854 163.235 50.43 164.827 53.2263C165.514 54.4315 165.636 55.211 165.58 58.025C165.542 59.873 165.385 61.5174 165.231 61.6791C165.077 61.8407 163.877 62.0898 162.566 62.2325L160.181 62.4918L157.75 59.9841C156.413 58.6049 155.245 57.5554 155.155 57.6519C155.066 57.7483 154.751 59.0726 154.457 60.5944L153.922 63.3614L152.36 63.2895C149.757 63.1697 146.676 61.3103 143.316 57.8298C141.636 56.0893 139.514 53.4567 138.6 51.9799C137.561 50.3 136.749 49.3706 136.432 49.4971C136.08 49.6379 135.912 49.3121 135.879 48.4271C135.836 47.3025 135.8 47.3507 135.567 48.841C135.389 49.9806 134.888 50.9735 134.021 51.9044C132.622 53.4065 131.614 53.6144 130.316 52.6685C129.467 52.0495 128.26 50.179 129.028 50.6731C129.246 50.813 129.903 50.3008 130.491 49.5351C131.077 48.7694 131.824 48.1429 132.15 48.1429C132.476 48.1429 133.042 47.9148 133.409 47.6361C133.98 47.2009 133.842 47.1515 132.437 47.2887L130.798 47.4484L131.513 46.6198C132.481 45.498 133.446 45.2367 134.487 45.8139C135.277 46.2518 135.308 46.2356 134.835 45.6384C134.548 45.2767 134.095 44.9806 133.828 44.9806C133.556 44.9806 133.138 44.0722 132.875 42.9053C132.316 40.4269 131.869 39.4466 131.298 39.4466C131.003 39.4466 130.944 40.4601 131.103 42.8065C131.335 46.2265 131.164 46.7871 130.317 45.3759C129.68 44.3153 128.92 44.3802 128.019 45.5715L127.274 46.5574L128.562 48.0211C129.387 48.9588 129.719 49.622 129.485 49.8655C129.069 50.298 127.603 48.6908 127.582 47.7804C127.575 47.4725 127.455 47.3393 127.316 47.4847C127.176 47.6298 127.245 48.1488 127.468 48.6378C127.69 49.1264 128.084 50.1106 128.342 50.8245C128.869 52.2799 130.362 53.6769 131.39 53.6769C131.944 53.6769 131.865 53.8896 130.959 54.8323C130.348 55.4679 129.849 56.2735 129.849 56.6226C129.849 57.5029 131.931 61.7146 133.735 64.482C135.508 67.2024 139.337 71.6759 140.956 72.9186L142.099 73.7966L141.007 74.0357C137.196 74.8702 130.407 77.4447 125.735 79.8271C122.742 81.3533 120.264 82.5419 120.228 82.4688C120.192 82.3952 120.271 74.9532 120.403 65.9308C120.731 43.4267 120.696 17.2868 120.344 22.0991C120.191 24.1889 119.938 38.8125 119.782 54.5951L119.499 83.2914L116.792 84.95C107.422 90.6907 94.6721 102.282 92.245 107.265C91.4302 108.938 91.2954 109.748 91.2954 112.97C91.2954 116.371 91.4093 116.976 92.5052 119.383C95.5507 126.073 101.679 129.882 108.774 129.494C112.883 129.27 115.362 128.036 117.967 124.92C119.021 123.658 120.783 122.123 121.909 121.485C124.208 120.184 125.761 120.072 130.171 120.892C133.348 121.483 133.252 121.191 132.115 126.805C131.095 131.84 129.535 137.082 129.056 137.082C128.505 137.082 124.552 139.925 122.378 141.884L120.543 143.539L120.258 134.698C120.101 129.835 119.828 125.705 119.649 125.519C119.371 125.23 119.427 138.403 119.719 142.122C119.775 142.829 119.702 143.407 119.558 143.407C119.413 143.407 115.815 142.531 111.563 141.462C107.31 140.392 102.733 139.28 101.393 138.991C99.1037 138.498 98.9464 138.393 98.818 137.28C98.6277 135.627 96.7582 133.92 95.1389 133.92C93.7662 133.92 91.8651 135.199 91.8651 136.123C91.8651 136.433 91.7371 136.676 91.5803 136.663C91.4234 136.65 88.1344 135.083 84.2711 133.181L77.2471 129.722L77.0071 128.187C76.7621 126.619 75.2561 124.828 74.1815 124.828C73.7071 124.828 73.6262 119.102 73.5814 82.434C73.5532 59.1168 73.4142 35.0589 73.2729 28.9715C73.1217 22.4596 72.9869 39.911 72.9447 71.366C72.8836 117.093 72.7959 124.828 72.3374 124.828C72.0426 124.828 71.3589 125.376 70.818 126.045C69.7541 127.361 69.5433 129.097 70.2958 130.351C70.6805 130.992 70.6274 131.27 69.9752 132.026C68.8262 133.357 58.6773 145.481 55.5908 149.208C53.4569 151.785 52.8058 152.349 52.2923 152.064C50.2207 150.912 47.046 152.77 47.0433 155.136C47.0422 156.203 46.6628 156.441 38.592 160.436C30.1752 164.603 30.1384 164.616 29.2359 163.895C28.7375 163.497 28.0884 163.171 27.7933 163.171C27.3325 163.171 27.271 152.948 27.3587 90.8551C27.4146 51.0814 27.3375 18.411 27.187 18.2541C27.0363 18.0976 26.9132 50.6039 26.9132 90.4907ZM165.553 18.4964C165.553 18.7862 165.667 18.9047 165.807 18.7601C165.946 18.615 165.946 18.3778 165.807 18.2328C165.667 18.0881 165.553 18.2067 165.553 18.4964ZM179.48 21.4026C179.314 22.2402 179.275 23.0256 179.393 23.1485C179.511 23.2711 179.607 23.2023 179.607 22.9952C179.607 22.788 179.949 22.6189 180.367 22.6189C180.785 22.6189 181.127 22.7774 181.127 22.9714C181.127 23.1655 181.372 23.2264 181.672 23.1066C182.478 22.7849 182.614 23.6917 181.929 24.821C181.39 25.7096 181.389 25.7602 181.924 25.3218C182.525 24.8289 184.741 20.8681 184.416 20.8681C184.319 20.8681 183.884 21.4464 183.449 22.1528C183.014 22.8592 182.656 23.196 182.652 22.9011C182.649 22.5876 182.409 22.4592 182.076 22.5924C181.74 22.7264 181.506 22.5971 181.506 22.2761C181.506 21.9346 181.235 21.8065 180.776 21.9315C180.199 22.0888 180.017 21.8931 179.913 21.0053C179.791 19.9526 179.763 19.9783 179.48 21.4026ZM178.908 24.4257C178.908 24.9692 178.994 25.1918 179.099 24.9198C179.205 24.6483 179.205 24.2036 179.099 23.9316C178.994 23.66 178.908 23.8822 178.908 24.4257ZM178.848 25.8092C178.848 25.9179 178.933 26.0069 179.037 26.0069C179.142 26.0069 179.227 25.9179 179.227 25.8092C179.227 25.7005 179.142 25.6116 179.037 25.6116C178.933 25.6116 178.848 25.7005 178.848 25.8092ZM181.127 26.2045C181.127 26.3132 181.212 26.4021 181.317 26.4021C181.421 26.4021 181.506 26.3132 181.506 26.2045C181.506 26.0958 181.421 26.0069 181.317 26.0069C181.212 26.0069 181.127 26.0958 181.127 26.2045ZM178.599 27.7856C179.349 28.1118 180.481 28.3786 181.114 28.3786C182.376 28.3786 182.653 29.1336 181.694 29.9613C181.053 30.5159 178.269 30.2131 177.442 29.4988C177.008 29.1241 176.715 27.1927 177.092 27.1927C177.171 27.1927 177.849 27.4595 178.599 27.7856ZM179.037 30.7503C179.167 30.9677 179.006 31.1456 178.68 31.1456C178.355 31.1456 178.088 30.9677 178.088 30.7503C178.088 30.5329 178.249 30.355 178.445 30.355C178.642 30.355 178.908 30.5329 179.037 30.7503ZM172.497 33.2584C173.17 33.5505 174.68 34.7031 175.853 35.819C177.027 36.9353 178.736 38.1848 179.651 38.5963C183.026 40.1119 183.376 41.3258 181.892 46.3463C181.262 48.4749 180.747 50.4616 180.747 50.7609C180.747 51.102 180.322 51.3052 179.607 51.3052C178.262 51.3052 178.224 51.1593 179.227 49.8319C180.678 47.9132 180.037 46.3178 177.611 45.8056C176.63 45.5984 176.354 45.3261 176.259 44.4723C176.144 43.4465 176.044 43.3995 173.98 43.3955C168.865 43.3864 163.831 38.4473 165.543 35.119C166.621 33.0212 169.922 32.1381 172.497 33.2584ZM132.346 43.2726C132.626 45.2031 132.125 46.54 131.707 44.9766C131.562 44.4351 131.429 43.1919 131.412 42.2136C131.373 40.0565 131.978 40.7427 132.346 43.2726ZM169.713 43.0591C170.35 43.3524 170.871 43.8157 170.871 44.0888C170.871 44.362 171.17 44.5825 171.536 44.5794C172.103 44.5742 172.117 44.5177 171.631 44.1952C171.242 43.9378 171.787 43.8592 173.34 43.9481C175.523 44.0734 175.618 44.1228 175.604 45.1225C175.591 46.0107 175.751 46.1665 176.673 46.1665C179.183 46.1665 179.965 47.8508 178.411 49.907C177.523 51.0814 177.725 51.4491 179.529 51.9487C180.334 52.172 180.392 52.374 180.289 54.6026L180.177 57.0147L177.361 58.2353C174.709 59.3852 174.491 59.5754 173.614 61.5075C173.102 62.6361 172.563 63.5591 172.417 63.5591C171.853 63.5591 170.027 58.9239 170.273 58.1187C170.476 57.4507 170.29 57.227 169.227 56.8617C167.298 56.1992 165.254 53.8567 164.598 51.557C163.925 49.1991 163.904 48.4156 164.445 45.7905C164.81 44.022 164.972 43.7884 165.87 43.741C166.765 43.6935 166.783 43.6671 166.028 43.5157C165.012 43.3121 165.01 43.2947 165.762 41.78L166.351 40.5953L167.453 41.5606C168.059 42.0914 169.076 42.7658 169.713 43.0591ZM130.233 45.7795C130.459 46.2186 130.528 46.772 130.387 47.0092C130.246 47.2468 130.367 47.5958 130.655 47.7855C131.016 48.0235 131.035 48.1326 130.715 48.137C130.447 48.1405 130.342 48.4342 130.465 48.8346C130.589 49.2359 130.185 48.9837 129.504 48.2354C128.858 47.5254 128.333 46.6361 128.338 46.2589C128.343 45.8482 128.591 46.0882 128.955 46.8582C129.29 47.5646 129.733 48.1429 129.94 48.1429C130.147 48.1429 130.04 47.7045 129.702 47.1685C129.019 46.083 128.895 44.9806 129.456 44.9806C129.657 44.9806 130.007 45.3399 130.233 45.7795ZM182.682 47.8682C182.007 48.571 181.857 47.9504 182.358 46.527L182.833 45.1782L182.959 46.3135C183.028 46.9377 182.904 47.6373 182.682 47.8682ZM165.233 46.5617C165.233 47.1053 165.32 47.3278 165.425 47.0558C165.531 46.7843 165.531 46.3396 165.425 46.0676C165.32 45.7961 165.233 46.0182 165.233 46.5617ZM167.452 46.3641C167.452 46.4728 167.538 46.5617 167.642 46.5617C167.747 46.5617 167.832 46.4728 167.832 46.3641C167.832 46.2554 167.747 46.1665 167.642 46.1665C167.538 46.1665 167.452 46.2554 167.452 46.3641ZM170.579 47.3523C170.579 48.1132 170.658 48.4247 170.753 48.0441C170.849 47.6634 170.849 47.0412 170.753 46.6606C170.658 46.2799 170.579 46.5914 170.579 47.3523ZM135.166 46.7594C135.166 46.8681 135.252 46.957 135.356 46.957C135.461 46.957 135.546 46.8681 135.546 46.7594C135.546 46.6507 135.461 46.5617 135.356 46.5617C135.252 46.5617 135.166 46.6507 135.166 46.7594ZM185.154 48.3472C185.512 48.9157 185.92 50.7771 186.107 52.691C186.477 56.4929 186.905 57.4436 188.506 58.0246C189.527 58.395 189.577 58.4915 189.04 59.0504C188.236 59.888 185.674 60.1932 184.115 59.6374C182.565 59.0848 180.747 56.515 180.747 54.877C180.747 52.5306 181.604 49.5711 182.598 48.4824C183.846 47.1163 184.362 47.0891 185.154 48.3472ZM166.53 48.5065C165.901 49.2303 165.906 49.2857 166.636 49.6924C167.058 49.9272 167.628 50.113 167.902 50.1055C168.177 50.0976 168.029 49.8754 167.574 49.6114C166.929 49.2374 166.828 48.9781 167.118 48.4394C167.607 47.5314 167.353 47.5606 166.53 48.5065ZM139.048 53.5899C141.646 57.3657 145.769 61.4585 148.261 62.7349C149.286 63.2598 150.968 63.7737 151.998 63.8769L153.872 64.0642L153.639 66.0845C153.51 67.1957 153.404 69.35 153.402 70.8718L153.398 73.6388L147.823 73.591L142.247 73.5432L140.185 71.651C137.008 68.7357 134.15 64.8947 132.295 61.0482C131.367 59.1239 130.608 57.2606 130.608 56.9072C130.608 56.1933 135.855 50.5146 136.515 50.5146C136.745 50.5146 137.885 51.8985 139.048 53.5899ZM171.821 52.359C171.204 52.8737 171.186 52.948 171.726 52.7543C172.091 52.6231 172.39 52.6986 172.39 52.9219C172.39 53.1456 172.561 53.2184 172.77 53.084C173.211 52.8005 173.287 51.6945 172.865 51.7131C172.708 51.7198 172.238 52.0108 171.821 52.359ZM169.067 57.3554C169.432 57.4926 169.732 57.8772 169.732 58.2104C169.732 58.918 169.549 58.9536 168.609 58.4298C168.034 58.1096 167.83 58.2598 167.404 59.3192C167.123 60.0204 166.932 60.728 166.982 60.8909C167.032 61.0537 166.902 61.1873 166.693 61.1873C166.476 61.1873 166.313 59.9924 166.313 58.3935V55.5996L167.358 56.3526C167.932 56.7668 168.701 57.2183 169.067 57.3554ZM181.506 58.8125C181.506 59.8129 176.896 63.6357 176.36 63.0788C176.282 62.997 175.957 62.3155 175.638 61.5644L175.058 60.1991L175.292 61.9779C175.421 62.9562 175.637 63.886 175.773 64.0441C175.908 64.2022 177.532 63.2835 179.381 62.0032L182.742 59.675L185.753 60.9964C189.622 62.6942 192.197 64.4263 193.896 66.4723C195.487 68.3879 198.811 75.3674 200.432 80.1923C202.015 84.9065 203.634 92.6351 203.336 94.0502C202.91 96.0682 201.453 97.3841 198.128 98.7557C196.402 99.4672 192.973 101 190.507 102.162C188.041 103.323 185.961 104.274 185.884 104.274C185.709 104.274 182.266 97.1256 182.266 96.7615C182.266 96.6137 182.915 96.2907 183.709 96.0433C185.906 95.3582 188.617 93.3119 189.902 91.3682C192.023 88.1601 194.09 80.135 193.996 75.473C193.956 73.4882 193.896 73.6776 193.441 77.1964C192.08 87.7284 189.949 92.3553 185.356 94.7523C182.15 96.4251 165.407 100.27 163.499 99.772C162.888 99.6127 162.329 98.8561 161.644 97.2639C159.703 92.7502 159.715 92.8537 161.04 92.0987C164.231 90.2804 166.882 88.2455 170.871 84.5507L175.239 80.505L175.269 75.6884C175.285 73.0392 175.421 70.4271 175.572 69.8836C175.82 68.9855 175.803 68.9662 175.384 69.6698C175.103 70.141 174.91 72.1024 174.891 74.6785C174.862 78.6151 174.814 78.8705 174.222 78.3151C173.063 77.23 172.391 75.1528 172.368 72.5909C172.357 71.2106 172.192 69.3698 172.002 68.5001C171.745 67.317 171.692 67.9886 171.793 71.1679L171.928 75.4172L168.458 71.5632C166.548 69.4437 163.992 66.6154 162.777 65.2785L160.568 62.8475H161.827C162.52 62.8475 164.083 62.5459 165.301 62.1775C167.484 61.517 167.529 61.5198 168.386 62.3574L169.255 63.2072L169.46 62.0985C169.715 60.7165 169.472 60.3837 169.058 61.5478C168.751 62.4143 168.746 62.4147 168.067 61.6336C167.309 60.762 167.527 59.2109 168.408 59.2109C168.989 59.2109 170.44 61.0767 171.406 63.0649C171.749 63.7713 172.18 64.3496 172.364 64.3496C172.548 64.3496 173.236 63.3571 173.894 62.1439C175.118 59.8864 176.782 58.7243 179.797 58.0219C181.182 57.6993 181.506 57.8491 181.506 58.8125ZM158.316 63.5591C162.728 71.341 165.67 78.489 166.831 84.2543C167.331 86.7394 167.32 86.8726 166.547 87.6241C165.314 88.8246 161.436 91.1524 160.2 91.4346C159.386 91.6212 159.096 91.9173 159.096 92.5648C159.096 93.0478 159.241 93.6115 159.419 93.8182C159.596 94.0246 160.016 94.9337 160.351 95.8377L160.961 97.4817L159.526 98.0798C157.613 98.8763 155.298 99.3091 155.298 98.8704C155.298 98.6763 155.842 98.3039 156.507 98.0426C157.172 97.7814 157.614 97.4608 157.489 97.3307C157.364 97.2007 156.917 97.2865 156.495 97.5217C156.073 97.7569 155.332 97.9415 154.848 97.9324C154.072 97.9177 154.125 97.8233 155.298 97.1299L156.627 96.3437L155.298 96.5722C154.03 96.7896 154.004 96.771 154.728 96.1718C155.146 95.8259 155.812 95.3183 156.209 95.044C156.906 94.5625 156.907 94.5072 156.255 93.47L155.578 92.3948L156.602 92.8004C157.165 93.0233 157.914 93.1972 158.266 93.1869C158.618 93.1767 158.062 92.8252 157.029 92.4059C155.997 91.9865 155.06 91.7398 154.948 91.8572C154.835 91.9746 155.048 92.6248 155.421 93.3016C155.989 94.3305 156.013 94.5835 155.57 94.8416C155.278 95.0116 154.627 95.4998 154.124 95.9267L153.209 96.703L153.933 98.1166C154.796 99.7993 155.83 99.9274 159.092 98.7553C160.239 98.3435 161.188 98.0379 161.201 98.0766C161.214 98.115 161.519 98.636 161.879 99.2336C162.636 100.493 163.446 100.57 167.71 99.791L170.438 99.2929L171.209 103.661C171.633 106.063 172.092 108.876 172.229 109.912L172.478 111.795L170.06 114.319C166.103 118.451 164.059 122.634 161.839 131.153C160.261 137.203 159.246 142.667 158.718 147.953L158.283 152.301L159.647 153.494C160.823 154.522 160.979 154.854 160.78 155.892C160.582 156.92 160.19 157.259 158.095 158.209C154.804 159.701 154.958 160.329 158.902 161.498C160.566 161.991 162.801 162.502 163.868 162.632L165.809 162.87L166.536 159.786L167.263 156.704L168.94 156.281L170.617 155.858L172.753 150.835C173.929 148.073 174.987 145.712 175.104 145.589C175.222 145.467 175.435 147.015 175.577 149.031C176.124 156.801 177.595 163.718 179.657 168.218C180.281 169.58 181.784 172.071 182.998 173.752C186.189 178.174 186.872 179.754 186.872 182.724C186.872 187.738 184.799 192.155 180.035 197.29C172.268 205.663 161.857 208.776 143.903 208.094C137.251 207.841 133.144 207.103 128.704 205.359C120.496 202.135 115.923 198.139 111.777 190.568C109.266 185.982 108.417 183.014 108.407 178.785C108.399 175.614 108.527 174.942 109.584 172.604C111.072 169.314 112.984 166.377 116.755 161.59C124.992 151.133 130.534 139.012 133.019 126.014L133.888 121.468L139.004 121.236C142.194 121.09 144.9 120.747 146.195 120.323C148.542 119.553 151.621 117.39 152.286 116.044C152.584 115.439 152.185 115.681 151.07 116.781C150.157 117.681 148.826 118.724 148.112 119.098C145.131 120.661 136.485 121.349 130.988 120.461C125.008 119.495 124.716 119.503 122.369 120.698C121.017 121.386 119.21 122.845 117.648 124.51C116.183 126.071 114.384 127.544 113.377 128.008C108.149 130.415 100.89 128.724 96.4084 124.055C94.0078 121.555 92.4854 118.506 91.8678 114.961C90.9892 109.919 92.7277 106.108 98.5487 100.315C109.545 89.3712 121.402 81.609 134.048 77.0747C140.306 74.831 144.08 74.0832 149.278 74.0567L153.704 74.0341L153.953 70.6742C154.262 66.5055 154.885 60.8984 155.175 59.6762C155.45 58.5211 155.479 58.5563 158.316 63.5591ZM167.712 71.7877C171.539 76.205 174.658 79.9405 174.643 80.0887C174.62 80.3235 173.262 81.5537 168.995 85.2034L167.953 86.0947L166.949 82.1087C165.6 76.749 163.069 70.6386 159.654 64.4939L156.828 59.4085L158.792 61.5826C159.872 62.7784 163.886 67.3708 167.712 71.7877ZM132.901 86.8549C132.685 87.2754 132.508 88.3977 132.508 89.3487C132.508 93.1747 134.876 93.5131 135.091 89.7179C135.264 86.6509 133.914 84.8851 132.901 86.8549ZM183.18 100.762C184.161 102.961 184.912 104.808 184.849 104.866C184.787 104.925 183.324 105.707 181.6 106.605C179.876 107.502 177.345 108.95 175.976 109.822C174.607 110.694 173.346 111.317 173.173 111.206C173 111.095 172.739 109.979 172.592 108.726C172.36 106.742 171.644 102.675 171.07 100.087C170.901 99.323 171.215 99.1894 175.152 98.3482C177.498 97.847 179.759 97.2967 180.177 97.1252C180.595 96.9536 181.04 96.8018 181.167 96.788C181.293 96.7746 182.2 98.5624 183.18 100.762ZM101.069 111.211C100.095 111.921 99.9465 113.28 100.805 113.623C101.598 113.939 102.94 112.605 102.802 111.639C102.653 110.598 102.098 110.461 101.069 111.211ZM102.501 111.736C102.501 112.234 101.386 113.127 101.115 112.846C100.726 112.441 101.307 111.389 101.919 111.389C102.239 111.389 102.501 111.545 102.501 111.736ZM83.2854 133.671C86.8555 135.49 90.1604 137.103 90.6307 137.255C91.1453 137.421 91.4853 137.847 91.4853 138.325C91.4853 138.762 91.9848 139.639 92.5956 140.275C94.1574 141.9 96.2997 141.893 97.8715 140.258L98.9985 139.085L109.391 141.753L119.783 144.42L119.973 149.942C120.133 154.576 120.208 155.114 120.444 153.289C120.599 152.093 120.728 149.5 120.729 147.526L120.733 143.936L122.537 142.612C123.529 141.883 125.341 140.507 126.563 139.553C127.785 138.6 128.844 137.881 128.916 137.956C128.988 138.031 128.318 139.879 127.427 142.061C125.282 147.313 121.074 154.621 117.66 159.021C109.863 169.069 107.789 172.893 107.521 177.72C107.253 182.529 108.769 187.422 112.182 192.772C112.929 193.943 113.441 195.004 113.32 195.13C113.199 195.255 110.373 195.409 107.041 195.471C103.708 195.534 98.2464 195.636 94.9038 195.699L88.8264 195.812V194.508C88.8264 193.436 88.4265 192.797 86.5919 190.935C82.5083 186.79 79.963 179.746 79.1729 170.4L78.9655 167.945L80.6531 167.168C83.7564 165.739 83.2269 163.117 79.7172 162.534C77.4846 162.162 77.341 161.942 78.1941 160.2C79.0837 158.384 79.1756 155.679 78.4003 154.119C77.6004 152.509 75.2743 150.522 74.1895 150.522H73.2532V141.233V131.944H74.1363C74.6221 131.944 75.3484 131.598 75.7506 131.176C76.1528 130.755 76.5524 130.399 76.6383 130.386C76.7245 130.373 79.7157 131.851 83.2854 133.671ZM191.484 133.754C191.644 135.041 191.803 139.029 191.838 142.616C191.924 151.634 191.167 154.342 186.631 161.234C184.09 165.095 183.617 166.556 183.605 170.579C183.596 173.715 183.572 173.804 182.958 172.958C178.889 167.353 176.675 159.359 175.979 147.755L175.729 143.605L178.333 138.268L180.937 132.932L183.494 132.638C184.901 132.476 187.037 132.097 188.242 131.795C189.447 131.493 190.604 131.283 190.812 131.33C191.021 131.376 191.323 132.467 191.484 133.754ZM76.1661 152.185C76.6193 152.617 77.3634 153.874 77.8196 154.978C79.1087 158.097 78.3836 160.756 75.7966 162.398C73.4913 163.861 69.7488 163.129 68.1592 160.905C66.532 158.628 67.1709 154.088 69.3253 152.619C71.9207 150.849 74.5898 150.68 76.1661 152.185ZM164.135 155.93C165.437 156.295 166.552 156.628 166.612 156.67C166.672 156.711 166.514 157.219 166.259 157.799C165.935 158.541 165.621 158.772 165.201 158.579C164.872 158.428 163.877 158.114 162.989 157.881C161.576 157.51 161.375 157.321 161.375 156.362C161.375 155.067 161.172 155.099 164.135 155.93ZM78.191 165.148C77.4086 165.409 77.3752 165.47 78.0011 165.497C78.4189 165.516 79.0172 165.358 79.3306 165.148C79.996 164.7 79.5341 164.7 78.191 165.148ZM68.7973 165.817C69.1669 165.917 69.6797 165.911 69.9368 165.802C70.194 165.694 69.8916 165.612 69.2649 165.62C68.6382 165.628 68.4277 165.716 68.7973 165.817ZM75.062 165.822C75.5345 165.917 76.2182 165.913 76.5813 165.814C76.9444 165.716 76.5577 165.638 75.7221 165.643C74.8865 165.647 74.5894 165.728 75.062 165.822ZM71.6434 166.218C72.1159 166.312 72.7996 166.309 73.1628 166.21C73.5259 166.111 73.1392 166.033 72.3036 166.038C71.4679 166.042 71.1709 166.123 71.6434 166.218ZM237.822 172.49C243.544 174.518 245.761 183.673 241.62 188.172C240.517 189.371 237.145 190.841 235.498 190.841C231.894 190.841 228.132 188.273 226.715 184.844C225.211 181.205 226.294 176.302 229.094 174.08C231.909 171.845 234.615 171.352 237.822 172.49ZM111.237 176.631C111.237 177.064 113.811 179.34 115.739 180.612C120.26 183.596 132.166 186.47 145.155 187.713C152.421 188.408 165.201 187.985 169.352 186.911C175.019 185.446 181.345 182.452 181.804 181.019C181.896 180.732 181.054 181.058 179.934 181.742C173.066 185.94 166.392 187.429 154.728 187.365C135.675 187.26 118.317 183.347 112.839 177.924C111.958 177.052 111.237 176.47 111.237 176.631ZM66.796 179.773C66.796 180.063 66.9099 180.182 67.0493 180.037C67.1883 179.892 67.1883 179.655 67.0493 179.51C66.9099 179.365 66.796 179.483 66.796 179.773ZM246.533 190.472C249.058 191.171 250.246 193.782 248.832 195.527C247.194 197.548 236.915 199.146 230.523 198.373C223.957 197.579 221.009 196.188 221.009 193.885C221.009 192.048 222.645 191.208 227.652 190.473C229.786 190.16 230.712 190.206 232.369 190.707C234.708 191.415 237.479 191.232 239.132 190.26C240.264 189.595 243.721 189.694 246.533 190.472ZM61.332 192.101C61.6788 192.684 65.0297 194.302 67.3403 195.001C70.2787 195.89 78.7445 195.68 81.0033 194.662C83.0343 193.746 82.563 193.496 80.2623 194.269C76.0921 195.67 67.3672 194.87 62.9767 192.683C61.9622 192.177 61.2219 191.916 61.332 192.101ZM246.332 192.195C245.719 193.857 239.054 195.387 232.594 195.348C227.129 195.315 224.75 194.813 223.872 193.509C223.397 192.802 223.288 192.766 223.288 193.313C223.288 196.543 238.051 196.909 245.077 193.854C246.362 193.295 247.195 192.266 246.742 191.795C246.638 191.687 246.453 191.867 246.332 192.195ZM116.793 198.674C119.175 201.135 120.555 202.171 123.581 203.768C131.987 208.206 135.055 208.84 147.891 208.79C160.322 208.741 165.573 207.814 171.821 204.567C174.777 203.03 179.175 199.576 181.156 197.236L182.721 195.387L184.01 196.968C187.346 201.059 190.243 208.86 192.497 219.82L193.295 223.699L192.078 225.462C188.848 230.143 181.391 233.94 170.491 236.454C157.9 239.357 140.712 240.167 128.573 238.428C121.307 237.387 111.821 234.078 106.43 230.702C103.91 229.125 99.5051 225.025 99.0946 223.876C98.9286 223.411 99.0193 222.288 99.3042 221.278C99.58 220.3 100.409 216.564 101.146 212.977C102.766 205.09 104.523 200.931 107.313 198.375C108.902 196.92 111.524 195.686 113.185 195.612C113.525 195.597 115.149 196.975 116.793 198.674ZM89.887 198.932C89.2207 200.338 88.6479 201.45 88.6141 201.402C88.5803 201.355 88.635 200.205 88.7353 198.846C88.9134 196.433 88.9434 196.375 90.0081 196.375H91.0982L89.887 198.932ZM243.919 202.601C244.175 207.21 245.351 215.038 246.309 218.511C247.196 221.727 249.058 225.362 252.884 231.351C254.783 234.324 256.431 237.357 256.595 238.18C257.046 240.449 256.957 243.739 256.367 246.577C255.934 248.659 255.557 249.423 254.378 250.609C252.516 252.481 247.564 254.187 241.205 255.146C237.244 255.744 235.96 255.774 231.333 255.375C221.643 254.541 215.905 252.49 214.665 249.417C214.341 248.615 213.893 246.849 213.668 245.49C212.794 240.215 214.618 234.947 219.109 229.777C225.609 222.293 227.79 215.45 227.386 203.809L227.212 198.776L232.562 198.987C235.505 199.103 238.938 199.029 240.191 198.823C241.445 198.617 242.743 198.426 243.077 198.4C243.585 198.36 243.722 199.045 243.919 202.601ZM185.146 202.107C184.985 202.542 184.673 203.399 184.453 204.011C183.896 205.557 181.234 207.571 176.758 209.832C167.298 214.613 153.343 216.934 141.054 215.771C131.818 214.897 115.56 210.906 110.589 208.292C108.213 207.042 107.44 206.318 106.517 204.478C106.144 203.732 105.923 203.544 105.921 203.971C105.918 205.097 108.19 207.428 110.449 208.615C114.249 210.611 124.449 213.695 132.698 215.342C144.338 217.667 157.567 216.962 169.653 213.372C178.889 210.629 186.152 205.526 185.585 202.179C185.443 201.343 185.429 201.34 185.146 202.107ZM64.9078 204.538C67.2533 205.387 68.6522 205.6 72.9713 205.764C79.2098 206.002 81.9244 205.548 85.528 203.664L88.1173 202.31L86.4996 205.47L84.8819 208.629H69.715C55.3264 208.629 54.5747 208.594 55.0659 207.937C55.3507 207.557 56.586 206.053 57.8109 204.596L60.0379 201.946L61.054 202.728C61.6127 203.158 63.3471 203.972 64.9078 204.538ZM223.305 208.89C225.126 210.476 226.327 211.819 226.327 212.27C226.327 214.047 225.016 218.924 223.852 221.476C222.556 224.316 219.662 228.557 217.73 230.447L216.641 231.513L203.983 231.794C192.665 232.046 191.343 232.142 191.497 232.705C191.591 233.051 195.954 240.799 201.193 249.923C206.431 259.046 210.637 266.595 210.539 266.697C210.333 266.911 156.669 267.86 142.705 267.897L133.34 267.922L133.125 263.87C133.007 261.642 132.812 255.261 132.692 249.69L132.474 239.561L140.942 239.756C156.397 240.111 171.802 237.768 182.021 233.511C185.111 232.223 186.221 231.951 188.377 231.951H190.99L190.365 230.587L189.74 229.224L191.102 227.655C193.868 224.469 193.841 224.581 192.918 220.003C192.211 216.502 190.135 208.249 189.584 206.752C189.44 206.361 192.646 206.257 204.842 206.257H220.283L223.305 208.89ZM101.206 209.321C101.093 209.701 100.759 211.169 100.464 212.582C100.169 213.995 99.4539 217.115 98.8739 219.515C97.851 223.75 97.8396 223.91 98.4937 224.949C99.2856 226.206 104.065 230.028 106.831 231.616L108.768 232.727L90.6307 232.734C80.6554 232.738 72.4935 232.656 72.4935 232.552C72.4935 232.383 81.1093 215.966 83.9596 210.704L85.0839 208.629H93.2481C100.849 208.629 101.398 208.677 101.206 209.321ZM71.6704 233.486C71.6009 233.678 67.2708 241.86 62.048 251.667L52.5521 269.498L42.6764 269.517C37.2447 269.527 25.964 269.691 17.6083 269.883C9.25233 270.074 2.36515 270.178 2.30361 270.113C2.2417 270.049 4.89068 266.814 8.18993 262.924C11.4892 259.035 18.4463 250.741 23.6496 244.495L33.111 233.137H52.4541C63.4956 233.137 71.7429 233.287 71.6704 233.486ZM217.781 236.914C218.953 237.938 222.887 239.715 224.998 240.173C228.544 240.943 237.514 241.543 242.09 241.317C246.674 241.091 251.41 240.039 252.285 239.051C252.63 238.663 252.575 238.61 252.035 238.808C251.655 238.948 249.603 239.439 247.477 239.899C240.874 241.326 227.317 240.779 222.161 238.876C221.228 238.532 219.69 237.8 218.743 237.25C217.796 236.7 217.363 236.548 217.781 236.914Z" fill="black" stroke="black"/>
</svg>
