<svg width="187" height="270" viewBox="0 0 187 270" fill="none" xmlns="http://www.w3.org/2000/svg">
<mask id="path-1-inside-1_2026_116" fill="white">
<path fill-rule="evenodd" clip-rule="evenodd" d="M31.6908 0.237073C31.5741 0.367162 31.4787 1.08691 31.4787 1.83652C31.4787 2.96182 31.5893 3.19889 32.1147 3.19889C32.6105 3.19889 32.7508 3.43597 32.7508 4.27443V5.34961L31.7439 4.76777C28.4993 2.89251 23.6919 6.44399 24.3181 10.2532C24.6295 12.1458 27.4463 15.0351 31.2357 17.3487C34.3031 19.2214 35.1087 19.9042 34.25 19.9042C33.6531 19.9042 32.7508 21.054 32.7508 21.8143C32.7508 22.8237 34.2045 24.1694 35.2951 24.1694C36.6139 24.1694 37.8393 22.7878 37.8393 21.3007V20.1768L39.1124 21.4624C39.8124 22.1694 40.5601 22.7477 40.7732 22.7477C40.9866 22.7477 40.8393 22.9997 40.4459 23.3075C39.9577 23.6899 39.7319 24.2252 39.7348 24.9958C39.737 25.6164 39.7291 26.4442 39.7173 26.8351C39.6639 28.6119 40.1511 31.5055 40.596 32.055C40.8654 32.3877 41.393 32.709 41.7683 32.7687C42.3754 32.8654 42.4419 33.0737 42.3691 34.6547C42.266 36.8907 41.4732 38.1695 40.0954 38.322C38.9025 38.4539 38.6894 38.88 39.0857 40.3416L39.3748 41.4079L39.4021 40.2527C39.4285 39.1402 39.4791 39.0965 40.7811 39.0695C41.5247 39.0542 41.9639 38.9646 41.7578 38.8704C41.504 38.7549 41.6325 38.2879 42.1553 37.4274C42.7113 36.5118 42.9279 35.6705 42.9279 34.4272C42.9279 32.8352 42.9883 32.6998 43.7004 32.6998C44.719 32.6998 45.6155 31.722 45.1595 31.1078C44.9757 30.8601 44.9152 30.3952 45.0253 30.0746C45.1353 29.754 45.0593 29.2681 44.8561 28.9947C44.6036 28.6546 44.5921 28.4253 44.8205 28.2675C45.3926 27.8727 45.1884 27.3654 44.3072 26.9908C43.8037 26.7769 43.5779 26.5025 43.7506 26.3141C44.9639 24.9901 45.7787 27.2311 45.7854 31.9114C45.7905 35.4487 46.2993 37.4953 47.2865 37.9474C47.6284 38.1041 46.7735 38.2893 45.1541 38.4094L42.4508 38.6096L45.8697 38.676L49.2885 38.7421V39.7978V40.8534L45.2336 40.9646L41.1787 41.0755L45.3926 41.153L49.6065 41.2302V39.6307C49.6065 38.1937 49.5315 38.0313 48.8668 38.0313C47.5304 38.0313 46.7039 36.5772 46.4059 33.7024C45.9498 29.3015 45.9924 28.8249 46.8238 29.0527C47.4837 29.2336 47.4719 29.1881 46.6724 28.4673C46.1956 28.0372 45.6534 27.0544 45.4677 26.2828C45.1347 24.9012 44.746 24.5359 44.3577 25.2382C44.0556 25.7845 42.2918 26.7221 42.2918 26.3365C42.2918 26.1499 42.7739 25.4259 43.3629 24.7278C44.1971 23.7393 44.6818 23.4585 45.5539 23.4585C46.998 23.4585 47.802 24.2597 48.6623 26.5551L49.3566 28.4076L48.5907 29.9317C48.1694 30.7698 47.5784 31.873 47.2773 32.3831C46.7605 33.2589 46.7602 33.3378 47.275 33.8048C47.6726 34.1649 47.753 34.1741 47.5727 33.8389C47.283 33.3001 49.8435 28.0792 50.3975 28.0792C50.5953 28.0792 51.0138 28.2889 51.3277 28.5455C51.8633 28.983 51.7991 29.2336 50.2894 32.5956L48.6801 36.1795L52.8804 40.7532C59.9623 48.4653 69.8541 56.7508 76.0923 60.1957C77.4427 60.9414 78.546 61.6576 78.5441 61.7873C78.5422 61.917 78.3205 62.8227 78.0511 63.8001C76.0872 70.929 74.3705 79.3346 73.3086 87.0216C72.4232 93.4314 71.6949 101.223 71.9544 101.513C72.052 101.621 72.5065 101.436 72.9642 101.101C73.4221 100.765 73.8594 100.561 73.9358 100.646C74.0121 100.731 73.5112 103.305 72.8226 106.365C71.4599 112.422 70.5287 118.13 69.9095 124.224C69.4652 128.594 69.3494 143.537 69.731 147.238C69.9696 149.551 69.9537 149.637 69.2845 149.637C68.8832 149.637 68.0967 150.235 67.4177 151.057L66.2441 152.478L65.8873 151.146C65.3702 149.218 63.8423 146.681 62.5184 145.552C60.3297 143.686 56.782 144.108 53.7146 146.598C51.1391 148.688 50.5098 151.737 51.9788 155.006L52.7605 156.746L51.4222 156.751C48.1156 156.765 44.6424 158.471 43.8215 160.484C43.5576 161.132 43.0834 161.385 41.5829 161.68C39.4025 162.109 37.465 163.079 37.2491 163.848C37.1342 164.257 37.222 164.24 37.6399 163.773C38.2051 163.141 39.6756 162.585 41.8147 162.194C42.7768 162.018 43.4357 161.55 44.518 160.272C46.2853 158.187 48.6009 157.302 51.7145 157.524C52.8292 157.603 53.741 157.64 53.741 157.605C53.741 157.571 53.2401 156.613 52.6279 155.477C51.3952 153.189 51.1929 151.363 51.9835 149.655C52.6657 148.18 54.8678 146.205 56.5381 145.569C61.1518 143.812 64.1302 146.301 66.0228 153.494C66.0959 153.772 66.5831 153.249 67.1804 152.25C67.9128 151.025 68.4545 150.494 69.0508 150.417C69.8777 150.31 69.8955 150.354 70.266 153.438C70.4727 155.159 70.9631 158.511 71.3555 160.886L72.0692 165.204L70.9354 165.412C70.3118 165.527 65.4366 165.79 60.1016 165.997C54.7666 166.204 50.187 166.439 49.9246 166.521C49.34 166.702 62.5235 166.413 68.2115 166.12L72.3459 165.907L73.2612 170.123C73.7646 172.442 74.7744 176.396 75.5052 178.91L76.8337 183.481L75.2737 184.419C69.7364 187.751 65.2595 191.152 60.8178 195.399C59.3358 196.816 58.0134 197.976 57.8792 197.976C57.745 197.976 57.4387 197.711 57.1986 197.388C56.1062 195.915 53.1078 195.429 50.7992 196.35C49.6154 196.822 49.6065 196.819 49.6034 195.89C49.5945 193.207 46.5929 189.045 43.4049 187.296C42.0386 186.547 41.3666 186.424 38.6344 186.424C35.7483 186.424 35.2839 186.521 33.6155 187.465C32.6045 188.038 31.1276 189.283 30.3334 190.232C28.2083 192.771 27.5646 194.644 27.4053 198.754L27.2717 202.198L26.1154 201.351C23.6675 199.56 19.693 199.298 16.7846 200.736C13.9744 202.125 11.7819 205.52 11.7676 208.503L11.7606 209.967L8.50077 210.145C1.89586 210.506 -1.88746 213.56 0.957347 216.235C2.19291 217.397 3.41638 217.767 8.10323 218.394C13.7814 219.155 17.78 219.38 29.8192 219.619L40.722 219.835L38.8481 222.687C36.0952 226.877 30.3849 236.53 27.2838 242.235C22.8282 250.433 13.4303 269.625 13.7159 269.944C13.7804 270.016 14.9053 267.813 16.2156 265.049C20.0355 256.991 22.3995 252.314 26.6732 244.36L30.6836 236.896L30.8808 241.694C31.0891 246.759 31.6552 249.214 32.7683 249.879C34.7961 251.092 36.3255 249.574 43.8807 238.847C47.3991 233.852 49.1381 232.097 50.5718 232.097C51.8369 232.097 52.347 233.218 53.589 238.729C55.3792 246.673 58.0939 251.562 61.8562 253.619C63.3421 254.432 63.9088 254.55 65.7543 254.434C69.8121 254.178 73.4597 251.238 78.1735 244.426C82.2409 238.548 84.5345 236.364 87.2168 235.816C88.1633 235.622 88.7736 235.769 90.1472 236.52C92.2758 237.684 93.8065 239.581 96.9016 244.893C100.417 250.927 101.126 252.057 102.211 253.365C104.26 255.833 106.165 256.18 108.515 254.514C111.15 252.647 113.808 247.675 119.226 234.473C121.109 229.885 121.899 228.898 123.689 228.898C126.156 228.898 128.961 231.813 135.27 240.932C144.38 254.099 146.184 254.123 148.483 241.109C150.152 231.663 150.981 229.005 152.858 227.085C154.607 225.295 154.522 225.219 158.612 232.208C165.511 243.995 169.938 252.417 175.149 263.661C176.808 267.239 178.232 270.091 178.315 269.998C178.512 269.778 172.332 256.684 168.3 248.777C161.506 235.455 156.477 227.049 147.137 213.401L146.554 212.549L160.017 212.548C173.077 212.547 180.837 212.186 183.23 211.467C188.496 209.885 185.066 206.146 176.739 204.39C174.814 203.984 174.613 203.858 174.433 202.941C174.02 200.842 171.52 199.178 169.468 199.637L168.551 199.842V197.189C168.551 192.11 166.036 188.438 161.643 187.103C158.821 186.245 156.788 186.57 152.57 188.549C152.093 188.773 152.013 188.606 152.013 187.388C152.013 185.185 150.876 181.63 149.546 179.68C145.142 173.218 136.564 171.573 130.638 176.053C127.199 178.654 125.616 182.218 125.616 187.364V190.13L123.072 188.292L120.528 186.454V184.485C120.528 183.401 120.97 175.317 121.511 166.52C122.188 155.506 122.51 147.454 122.545 140.663L122.595 130.799H124.357C127.993 130.799 131.731 129.044 133.856 126.34C137.486 121.719 137.525 118.429 134.024 111.961C133.548 111.081 133.316 110.523 133.509 110.721C134.295 111.525 136.723 116.762 137.079 118.42L137.46 120.197L138.614 118.94C140.942 116.406 144.148 115.841 148.183 117.255C149.312 117.651 150.286 117.92 150.345 117.854C150.405 117.787 149.218 116.002 147.707 113.888C146.196 111.773 143.518 107.715 141.756 104.871C139.994 102.026 138.063 98.9392 137.464 98.0105C136.865 97.0817 136.449 96.3222 136.538 96.3222C136.627 96.3222 138.739 99.4809 141.231 103.342C151.51 119.266 152.538 120.28 158.374 120.244C162.902 120.216 166.718 118.447 168.359 115.613C168.727 114.978 169.11 114.456 169.21 114.453C169.311 114.451 171.074 116.688 173.129 119.425C175.183 122.162 176.995 124.401 177.155 124.401C177.599 124.401 180.034 120.797 181.681 117.704C184.23 112.915 186.323 105.995 186.804 100.765L187 98.6325L184.534 96.5123C171.804 85.5703 158.239 74.5996 147.302 66.4026C141.516 62.0656 140.273 60.9925 140.573 60.5898C141.232 59.7016 142.041 59.6778 145.37 60.4491C150.588 61.6572 153.309 60.9975 156.235 57.815C158.463 55.392 159.158 53.3952 159.163 49.4051C159.168 45.7388 158.627 43.984 156.828 41.8195C155.081 39.7178 154.081 39.4125 145.665 38.4091C140.451 37.7878 139.208 36.611 137.569 30.7474C136.423 26.6468 135.287 24.8216 133.154 23.6554C130.667 22.2956 127.932 22.3393 122.818 23.82C117.119 25.4703 116.852 25.3583 114.479 20.3261C113.28 17.7819 111.087 15.3984 108.85 14.2066C106.098 12.7408 100.598 12.8819 97.7905 14.4906C93.5186 16.9385 90.6932 21.4248 89.8482 27.1017C89.4911 29.5009 88.9857 28.6034 89.097 25.7681C89.1997 23.1472 88.9848 22.3279 88.6069 23.9028C88.5017 24.3425 88.4133 25.7024 88.411 26.924C88.4069 28.9102 88.474 29.1455 89.0426 29.1455C89.535 29.1455 89.6787 29.3825 89.6787 30.1943C89.6787 34.9557 92.3362 40.1671 95.7274 42.0555C97.3713 42.9711 97.4553 43.3627 96.0069 43.3627C94.8592 43.3627 93.4983 43.951 92.6902 44.7973C92.0535 45.4634 91.9822 45.453 87.7597 44.0836C78.9133 41.2138 69.1541 36.8935 55.6775 29.8812C52.6778 28.3205 50.0225 27.1294 49.7767 27.235C49.4676 27.3676 49.208 26.9731 48.9358 25.9576C48.7192 25.1497 48.148 24.0567 47.6665 23.5293L46.791 22.57L48.0396 21.5694L49.2885 20.5689V21.4969C49.2885 22.7825 50.609 24.1694 51.8328 24.1694C52.9055 24.1694 54.377 22.8291 54.377 21.852C54.377 20.9602 53.7674 19.9042 53.2528 19.9042C52.2424 19.9042 52.9112 19.2403 55.7287 17.4471C61.1193 14.0158 62.6459 12.2944 62.6459 9.64572C62.6459 7.69085 61.9707 6.27978 60.5014 5.16408C59.0006 4.0242 56.9025 3.95561 55.3747 4.99667C54.7867 5.39724 54.267 5.67661 54.2199 5.61725C53.9448 5.26964 54.5189 3.19889 54.89 3.19889C55.2007 3.19889 55.3311 2.72617 55.3311 1.59945V0H43.617C37.174 0 31.8072 0.10663 31.6908 0.237073ZM54.6951 1.59945V2.84346H43.2459H31.7967V1.78178V0.720106L43.0074 0.622007C49.1731 0.567981 54.3252 0.485876 54.4565 0.43967C54.5879 0.393463 54.6951 0.915238 54.6951 1.59945ZM53.8513 4.8872C53.4627 8.24248 52.1422 13.2971 50.9114 16.1381C49.5391 19.3071 46.7067 22.7477 45.4702 22.7477C45.0984 22.7477 44.4964 22.9257 44.1322 23.1436C43.6501 23.4319 43.1552 23.434 42.3109 23.1514C39.5672 22.2327 36.9014 18.8109 35.2792 14.1256C34.3095 11.3251 33.0819 5.68941 33.073 3.99861L33.0688 3.19889H43.5579H54.0469L53.8513 4.8872ZM32.1077 5.63467C32.5409 5.99223 32.988 6.79089 33.1013 7.40899L33.307 8.53322L32.2089 7.77473C31.6046 7.35745 30.5351 6.99917 29.8319 6.97856C28.8037 6.94835 28.4039 7.1353 27.7898 7.93325C27.3697 8.47884 27.0262 9.21281 27.0262 9.56397C27.0262 10.9338 28.5477 12.6662 31.6482 14.8269C33.3916 16.0421 35.3628 17.6849 36.0284 18.4779C37.0916 19.7443 37.2274 20.1015 37.1416 21.4112C37.0264 23.1763 35.9871 24.0852 34.5467 23.681C32.7864 23.1873 32.6417 20.4374 34.3756 20.4374C34.9354 20.4374 35.1643 20.6616 35.2435 21.2868C35.3351 22.0112 35.2467 22.1054 34.6412 21.9288C34.1342 21.7805 34.0293 21.8307 34.2739 22.104C34.8193 22.7136 35.6131 22.1438 35.6131 21.1425C35.6131 19.9255 34.5397 18.8664 31.0369 16.6264C25.0592 12.803 23.4509 9.80069 25.8336 6.91103C27.6607 4.69491 30.315 4.155 32.1077 5.63467ZM59.248 5.01942C60.5523 5.76831 61.7017 7.25118 62.0283 8.60644C62.6637 11.2441 61.1295 13.2612 55.9866 16.5504C51.6496 19.3238 50.4255 20.8788 51.6696 22.0329C52.1985 22.5234 53.1049 22.281 53.1049 21.649C53.1049 21.3622 52.9542 21.3789 52.6037 21.7038C52.1899 22.0876 52.056 22.0851 51.8379 21.6906C51.4254 20.9446 51.8245 20.2596 52.6717 20.2596C54.1023 20.2596 54.0752 22.6567 52.6368 23.3892C51.0988 24.1726 49.6065 22.7864 49.6065 20.5749C49.6065 19.4905 52.3464 16.6872 55.2001 14.8525C58.3362 12.8357 59.7836 11.1243 59.7836 9.43246C59.7836 6.88046 56.8723 5.96416 54.6359 7.81205L53.7203 8.56876L53.9334 7.57213C54.2158 6.25277 54.6572 5.67377 55.8082 5.11325C56.996 4.53461 58.3397 4.498 59.248 5.01942ZM40.5588 8.30894C39.7628 9.55544 39.1115 10.6644 39.1115 10.7728C39.1115 10.8812 39.5383 11.3095 40.0595 11.7246L41.0079 12.4792L41.6487 11.3045L42.2896 10.1298L42.2905 13.9507L42.2918 17.7716H44.089H45.8862L45.6807 14.3062C45.5678 12.4003 45.4747 9.76088 45.4737 8.44152L45.4721 6.04235H43.7392H42.0059L40.5588 8.30894ZM58.6848 7.98123C60.3134 9.80105 59.3972 11.2903 54.5879 14.6403L51.2769 16.9463L52.0265 15.0522C52.4389 14.0101 52.9411 12.3964 53.1427 11.4659C53.5683 9.50177 54.7393 7.93361 56.1141 7.48683C57.6102 7.0006 57.8487 7.04645 58.6848 7.98123ZM32.1357 8.26913C32.9655 8.89434 33.3325 9.55047 33.7765 11.2015C34.0907 12.3715 34.6326 14.078 34.9805 14.9939C35.3285 15.9099 35.6131 16.7451 35.6131 16.8496C35.6131 17.2008 29.1017 12.3861 28.3778 11.4997C26.1586 8.78202 29.2677 6.10917 32.1357 8.26913ZM96.8055 19.0156C97.1172 20.1886 97.7062 21.8278 98.1145 22.6588L98.8568 24.1694H97.7663C96.7578 24.1694 96.6754 24.2529 96.6754 25.2737C96.6754 26.1346 96.5644 26.3304 96.1723 26.1623C95.8956 26.0436 95.3947 25.9466 95.0592 25.9466C94.5758 25.9466 94.4492 25.6921 94.4492 24.721C94.4492 23.5008 94.4425 23.4951 92.8489 23.3882L91.2482 23.2808L92.0821 21.4144C93.0092 19.3401 95.6418 16.0918 96.0053 16.5738C96.1338 16.7437 96.4938 17.8427 96.8055 19.0156ZM42.633 24.7505C41.7168 26.0521 41.7457 27.1522 42.6893 26.8945C43.4017 26.7001 44.8017 27.5254 44.4417 27.9277C44.0511 28.3639 41.781 28.4804 40.9182 28.1087C40.2443 27.8186 40.0468 27.524 40.1231 26.9233C40.1921 26.3788 40.4074 26.1591 40.7993 26.2334C41.3087 26.3301 41.2973 26.2569 40.6984 25.5876C39.7844 24.5661 40.3515 23.814 42.0358 23.814H43.292L42.633 24.7505ZM93.0578 24.0176L93.9722 24.2209L93.8666 26.6834C93.7508 29.3825 93.7956 29.3399 91.5074 28.9173C90.1589 28.6681 90.1036 28.4456 90.6875 25.6181C91.0803 23.7155 91.2342 23.6117 93.0578 24.0176ZM99.7368 25.5474C99.9773 25.9306 100.882 27.1721 101.748 28.3056C102.613 29.4394 103.264 30.4307 103.194 30.5085C103.068 30.65 96.9407 29.916 96.7839 29.7408C96.7384 29.69 96.789 28.4787 96.8965 27.0491L97.0914 24.4495L98.1956 24.6499C98.8031 24.7601 99.4967 25.1639 99.7368 25.5474ZM91.8041 25.1113C91.6849 25.2449 91.5869 25.7408 91.5869 26.2131C91.5869 27.197 92.3184 27.1426 92.4914 26.146C92.6132 25.4436 92.1419 24.7338 91.8041 25.1113ZM98.1648 26.1776C97.8391 26.5419 97.903 28.0792 98.2443 28.0792C98.6765 28.0792 99.0155 26.6425 98.6736 26.2604C98.5133 26.0813 98.2844 26.044 98.1648 26.1776ZM96.1777 28.533C96.1545 30.4712 95.8568 30.2953 100.256 30.9425C101.787 31.1679 103.264 31.256 103.538 31.1387C103.825 31.0157 104.512 31.3314 105.162 31.8851C105.905 32.5185 106.613 32.8171 107.244 32.7634C108.474 32.6589 109.079 33.2379 109.079 34.5203C109.079 36.2306 107.936 37.1516 106.021 36.9852C105.418 36.9326 105.296 37.2536 104.823 40.1418C104.534 41.9101 104.207 44.0907 104.097 44.9878C103.922 46.4134 103.733 46.7322 102.592 47.5227C101.874 48.02 100.982 48.7362 100.61 49.1147C99.9404 49.7957 99.9226 49.7954 98.861 49.0721C98.271 48.6704 97.5379 48.3409 97.232 48.3402C96.553 48.3384 96.5371 47.7022 97.1525 45.1399C97.8261 42.3348 97.7796 42.0345 96.6268 41.7512C96.0257 41.6037 94.8948 40.7023 93.8039 39.5017C91.7955 37.2905 90.7142 34.7058 90.401 31.3669L90.2257 29.5009L91.1448 29.5428C92.1043 29.5869 94.1776 30.0966 93.6948 30.1698C93.1262 30.2558 94.2355 31.2777 94.8855 31.2667C95.5362 31.256 95.5394 31.2361 94.9698 30.7538C94.4117 30.2814 94.4059 30.1574 94.8709 28.6326C95.1425 27.7419 95.2421 27.0129 95.0926 27.0129C94.9428 27.0129 94.7482 27.213 94.6597 27.4571C94.5672 27.7141 94.489 27.6292 94.4743 27.256C94.4549 26.7562 94.647 26.6357 95.3238 26.7228C96.1453 26.8284 96.1971 26.9382 96.1777 28.533ZM42.3974 28.7954C43.1263 28.7986 43.9376 28.9585 44.2 29.1508C44.6239 29.4621 44.6239 29.5421 44.2 29.872C43.5512 30.3767 40.701 30.0717 40.3546 29.4607C39.9247 28.7022 40.0131 28.3361 40.5687 28.5743C40.8454 28.693 41.6681 28.7925 42.3974 28.7954ZM61.9278 33.9914C71.0273 38.5527 81.5056 42.815 88.7246 44.8915C91.4107 45.6638 91.7459 45.8486 91.7459 46.5567C91.7459 47.2291 91.1846 47.6326 88.1375 49.1499C86.153 50.138 84.4531 51.1677 84.3602 51.4378C84.2677 51.7083 84.511 52.3093 84.9012 52.7735C85.2914 53.2377 85.5242 53.7744 85.4183 53.966C85.3124 54.1576 84.2954 54.9225 83.1584 55.6657C81.7505 56.5863 81.1348 57.1923 81.2286 57.5651C81.7571 59.6718 82.1012 62.7132 82.1458 65.6736C82.1909 68.6749 82.064 69.6011 81.1863 72.6859C79.2231 79.5827 77.6866 87.5469 76.9316 94.7384L76.5567 98.3083L74.6284 99.4386C73.5681 100.06 72.6414 100.503 72.5695 100.423C72.2425 100.057 73.8865 86.4248 75.0785 79.6169C75.849 75.2145 77.8679 66.1051 79.0103 61.874C79.4546 60.2284 79.7612 58.818 79.6915 58.7402C79.6219 58.6623 79.3967 59.1692 79.1906 59.8665C78.9848 60.5639 78.7511 61.1344 78.6713 61.1344C77.8851 61.1344 72.0953 57.2349 67.5697 53.6578C61.2443 48.6573 52.4571 40.3469 50.2502 37.2777L49.3111 35.9715L50.7864 32.408L52.2618 28.8444L54.7479 30.2413C56.1154 31.0097 59.3463 32.6973 61.9278 33.9914ZM44.8147 31.1533C45.2066 31.5414 44.096 32.055 42.8178 32.0764C41.4795 32.0991 40.3836 31.5784 40.3836 30.9201C40.3836 30.6582 44.5358 30.8768 44.8147 31.1533ZM97.9476 33.6708C96.9811 34.2623 96.7747 34.4926 97.3115 34.3799C97.7488 34.2878 98.3572 34.0952 98.6631 33.9516C99.4624 33.5759 99.4051 34.9806 98.5836 35.8987C98.2338 36.2896 98.085 36.6095 98.2532 36.6095C98.9188 36.6095 99.8558 35.0119 99.8558 33.8766C99.8558 32.5146 99.8399 32.5132 97.9476 33.6708ZM96.5409 45.8451C96.247 47.661 96.0181 48.1366 94.9743 49.0984C93.6093 50.3555 93.463 50.2734 92.8043 47.8821C92.4796 46.7031 92.5114 46.4202 93.0613 45.5966C93.6548 44.7088 95.2761 43.8049 96.3825 43.7452C96.8236 43.7214 96.8427 43.9787 96.5409 45.8451ZM105.986 45.5167C105.851 45.6567 105.418 45.8796 105.024 46.0125C104.457 46.2041 104.308 46.1138 104.308 45.5785C104.308 44.5989 104.59 44.4258 105.462 44.8698C105.886 45.0859 106.123 45.377 105.986 45.5167ZM112.482 46.0544C121.436 48.1216 139.363 60.105 166.641 82.257C179.289 92.5276 186.189 98.5681 186.306 99.4699C186.608 101.809 184.591 109.535 182.354 114.605C181.082 117.489 177.563 123.36 177.138 123.308C176.912 123.281 171.904 116.697 164.722 106.985C156.393 95.7222 150.243 87.6091 145.222 81.2618C141.231 76.2161 141.017 75.8663 140.504 73.5596C139.567 69.3459 137.846 66.2153 134.389 62.4392C128.961 56.5081 120.784 51.9635 113.393 50.7692C110.191 50.2517 105.849 50.7142 102.668 51.9116C101.606 52.3122 100.7 52.5915 100.656 52.5329C100.612 52.4743 100.482 51.8444 100.367 51.1336C100.165 49.8803 100.209 49.8035 101.836 48.6157C103.915 47.0966 105.896 46.2041 107.966 45.8533C108.84 45.7054 109.669 45.5639 109.808 45.5398C109.946 45.5152 111.149 45.747 112.482 46.0544ZM92.3597 48.5432C92.5315 49.3088 92.2863 49.7954 90.8599 51.5171C89.922 52.6491 88.7357 54.3165 88.224 55.2218C87.7123 56.127 87.2159 56.8681 87.1208 56.8685C87.026 56.8688 86.7795 56.1633 86.5731 55.3007C86.3667 54.438 85.8458 53.2786 85.4158 52.7238L84.6338 51.7154L88.1897 49.6902C90.1456 48.5762 91.8378 47.6564 91.9501 47.6464C92.062 47.6361 92.2465 48.0399 92.3597 48.5432ZM99.4576 50.2915C100.439 51.5668 100.39 53.0732 99.3358 53.9998C97.5764 55.5466 94.766 54.5304 94.2698 52.1686C94.1057 51.3881 94.2606 50.9829 95.0681 50.0804C95.9618 49.0817 96.2146 48.9825 97.406 49.1609C98.305 49.2956 98.9758 49.6653 99.4576 50.2915ZM93.3281 50.3417C93.9279 51.2583 93.5368 52.4984 92.4958 52.9804C91.2081 53.5765 89.4217 56.0069 89.0073 57.7261C88.558 59.5921 88.8235 61.2623 89.8438 62.9855L90.6706 64.382L89.8635 67.112C87.774 74.1809 86.4106 83.0027 85.8102 93.3415L85.4365 99.7798L82.8664 99.1365C81.4531 98.7828 79.6527 98.2742 78.8656 98.0066L77.4344 97.5196L77.5232 95.7656C77.6806 92.6577 79.204 83.1299 80.333 78.1951C83.0344 66.3862 86.9048 56.9037 91.2501 51.4488C91.9899 50.5201 92.6746 49.7605 92.7716 49.7605C92.8686 49.7605 93.1192 50.0221 93.3281 50.3417ZM114.665 51.5558C121.606 52.9296 129.799 57.9323 134.879 63.8975C142.491 72.838 141.867 81.5245 133.13 88.2233C130.659 90.1181 126.889 92.0353 122.595 93.5814C117.325 95.4787 116.92 95.5246 116.181 94.3094C114.669 91.8242 114.682 91.6514 116.595 88.8016C118.298 86.2659 123.078 77.6964 123.067 77.1988C123.057 76.7346 118.32 73.1629 116.076 71.9274C113.642 70.5871 111.278 69.577 111.083 69.7941C111.016 69.8691 111.637 70.3109 112.463 70.7751C113.749 71.4984 114.026 71.8492 114.389 73.2191C115.014 75.5756 117.348 85.8717 117.348 86.2737C117.348 86.4639 116.627 87.683 115.747 88.9828C114.433 90.9228 113.984 91.3461 113.242 91.3461C111.344 91.3461 110.33 91.7815 109.86 92.7977C108.642 95.4293 109.927 99.037 112.319 99.7041C113.015 99.8982 113.381 99.7208 114.28 98.7544C116.545 96.32 116.925 96.0289 117.991 95.9102L119.081 95.789L119.472 98.0993C120.206 102.444 120.393 102.13 116.314 103.378C110.923 105.026 108.723 105.374 103.672 105.376C99.4414 105.379 94.7765 104.758 94.7609 104.19C94.7577 104.066 94.5421 101.885 94.2822 99.3433C93.1612 88.3854 93.3552 76.3732 94.7784 68.5984C95.8167 62.9261 95.8781 62.7701 97.3904 61.9455C99.9626 60.5426 100.018 60.5543 100.436 62.5788C100.642 63.5737 100.81 64.5799 100.81 64.8152C100.81 65.0505 99.7718 66.4378 98.5032 67.8982C97.2342 69.3584 95.783 71.433 95.2783 72.5082C94.204 74.7954 94.4683 74.5551 96.1822 71.6864C96.8608 70.5501 98.3353 68.6791 99.4585 67.5289L101.501 65.4376L100.977 63.4219C100.242 60.5973 100.42 60.2746 102.558 60.5554L104.293 60.7832L104.15 59.8036C103.78 57.2655 103.335 52.507 103.455 52.373C103.529 52.2905 104.502 52.0015 105.619 51.7307C108.093 51.1307 112.124 51.0525 114.665 51.5558ZM103.187 55.3586C103.3 56.8734 103.462 58.5305 103.547 59.0405C103.699 59.9454 103.654 59.9725 101.7 60.1594C100.598 60.2646 99.4557 60.4601 99.1612 60.5938C98.6908 60.8074 98.7032 60.6712 99.2629 59.4752C99.7429 58.4494 99.8586 57.6938 99.7327 56.4139C99.5196 54.2511 99.7193 53.7041 100.937 53.1115C102.825 52.1931 102.961 52.33 103.187 55.3586ZM94.3493 53.7321C94.7539 54.1572 95.0853 54.6264 95.0853 54.775C95.0853 54.9232 94.6337 55.8569 94.0816 56.8493C93.5294 57.842 92.7601 59.8843 92.3721 61.3878L91.6667 64.1218L90.6961 63.037C88.4727 60.5518 89.3292 55.6931 92.3537 53.6315C93.5651 52.8059 93.462 52.8009 94.3493 53.7321ZM86.5063 56.545C86.7309 57.4197 86.5009 58.2404 85.0939 61.5836C84.1694 63.7802 83.2583 65.9771 83.069 66.4659C82.7694 67.2393 82.7208 67.0783 82.6925 65.2218C82.6743 64.0489 82.4568 61.8157 82.2084 60.2589C81.9604 58.7021 81.8335 57.3426 81.9263 57.2378C82.0192 57.1329 82.9072 56.4654 83.8991 55.7549C85.8563 54.3534 85.9514 54.3822 86.5063 56.545ZM99.1472 57.1311C98.9405 59.9159 97.7024 61.4319 94.8789 62.3574L94.1951 62.5813L94.8105 59.4585C95.1492 57.7411 95.4908 56.0961 95.5703 55.8029C95.6752 55.4147 96.2 55.2644 97.5014 55.2502L99.2881 55.2306L99.1472 57.1311ZM95.0853 56.336C95.0853 56.4338 95.0137 56.5137 94.9263 56.5137C94.8388 56.5137 94.7672 56.4338 94.7672 56.336C94.7672 56.2383 94.8388 56.1583 94.9263 56.1583C95.0137 56.1583 95.0853 56.2383 95.0853 56.336ZM94.1576 59.8648C93.2947 63.38 93.297 63.4002 94.4861 63.1344C95.3995 62.93 95.4602 62.9752 95.2624 63.712C93.9181 68.7097 92.8616 78.0529 92.8609 84.9483C92.8606 89.0322 93.3246 97.5925 93.6662 99.8022L93.8468 100.972L92.1603 100.758C89.4166 100.409 86.0557 99.8555 85.9482 99.7354C85.752 99.5161 86.8285 86.8126 87.4573 81.9272C88.1417 76.6113 89.2029 70.9941 90.3027 66.8671C90.9038 64.6116 91.0453 64.3645 91.5608 64.673C92.0805 64.9837 92.201 64.7495 92.6975 62.4665C93.2318 60.0105 94.4343 56.7341 94.6947 57.0252C94.7637 57.1023 94.522 58.3801 94.1576 59.8648ZM114.637 92.7408C114.744 93.1172 115.171 93.9841 115.586 94.6676C116.315 95.869 116.321 95.9301 115.756 96.5006C115.436 96.8255 114.553 97.3071 113.795 97.5715C112.592 97.9909 112.534 98.0549 113.331 98.0755C114.107 98.0958 114.185 98.18 113.849 98.6325C113.384 99.2598 112.474 99.3192 111.575 98.7818C110.291 98.0133 109.548 94.2976 110.43 93.0543C110.953 92.3186 111.505 92.1188 113.112 92.0851C114.159 92.063 114.484 92.2027 114.637 92.7408ZM135.157 94.0119C135.157 94.1096 135.086 94.1896 134.998 94.1896C134.911 94.1896 134.839 94.1096 134.839 94.0119C134.839 93.9141 134.911 93.8341 134.998 93.8341C135.086 93.8341 135.157 93.9141 135.157 94.0119ZM136.152 95.5224C136.548 96.0862 136.536 96.0986 136.032 95.6568C135.502 95.1922 135.334 94.9004 135.596 94.9004C135.662 94.9004 135.912 95.1805 136.152 95.5224ZM81.2413 99.3142C84.7047 100.455 89.1609 101.295 91.7675 101.297L93.6971 101.298L93.9938 103.164L94.2902 105.03L96.3574 105.453C99.9025 106.179 105.2 106.399 108.284 105.948C110.957 105.558 115.578 104.478 116.752 103.968C117.173 103.786 117.453 104.389 118.264 107.231C122.145 120.816 122.634 134.304 120.529 169.719C120.192 175.388 119.817 183.03 119.696 186.7L119.475 193.373L114.691 193.275L109.907 193.177L108.706 190.867C106.945 187.481 103.398 178.719 100.694 171.077C94.2059 152.737 89.9754 135.828 88.9724 124.224C88.7526 121.682 88.5217 120.083 88.4591 120.669C88.0809 124.206 89.8578 136.192 92.0919 145.176C93.3631 150.289 93.3622 149.734 92.1167 157.812C90.7492 166.682 89.6787 180.062 89.6787 188.284V191.933H85.2698H80.8606L80.0458 189.89C73.3929 173.205 70.1006 155.462 70.1693 136.664C70.2129 124.724 71.2675 115.119 73.7204 104.319C74.6011 100.442 74.6198 100.403 75.9419 99.5833C76.6753 99.1287 77.2754 98.5902 77.2754 98.3865C77.2754 98.1832 77.526 98.0968 77.832 98.1953C78.1379 98.2934 79.6724 98.797 81.2413 99.3142ZM131.341 106.807C131.341 106.905 131.269 106.985 131.182 106.985C131.095 106.985 131.023 106.905 131.023 106.807C131.023 106.71 131.095 106.63 131.182 106.63C131.269 106.63 131.341 106.71 131.341 106.807ZM131.818 107.696C131.926 107.891 131.943 108.051 131.856 108.051C131.768 108.051 131.608 107.891 131.5 107.696C131.392 107.501 131.375 107.341 131.463 107.341C131.55 107.341 131.71 107.501 131.818 107.696ZM132.941 109.493C133.424 110.502 133.094 110.338 132.458 109.252C132.157 108.739 132.068 108.428 132.26 108.561C132.453 108.693 132.759 109.113 132.941 109.493ZM98.902 168.297C99.8284 171.034 101.064 174.542 101.647 176.093C102.231 177.643 102.674 178.941 102.633 178.976C102.592 179.011 101.486 178.898 100.174 178.725C98.8619 178.551 96.1621 178.514 94.1744 178.641L90.5603 178.873L90.7743 176.251C91.6836 165.119 92.734 155.37 93.3739 152.125C93.5056 151.459 94.0081 152.748 95.3836 157.279C96.3924 160.602 97.9759 165.56 98.902 168.297ZM38.7934 165.454C38.7934 165.552 38.865 165.631 38.9524 165.631C39.0399 165.631 39.1115 165.552 39.1115 165.454C39.1115 165.356 39.0399 165.276 38.9524 165.276C38.865 165.276 38.7934 165.356 38.7934 165.454ZM39.4295 165.454C39.4295 165.552 39.501 165.631 39.5885 165.631C39.676 165.631 39.7475 165.552 39.7475 165.454C39.7475 165.356 39.676 165.276 39.5885 165.276C39.501 165.276 39.4295 165.356 39.4295 165.454ZM40.4631 165.876C40.7694 165.966 41.2699 165.966 41.5762 165.876C41.8825 165.787 41.6319 165.714 41.0197 165.714C40.4074 165.714 40.1568 165.787 40.4631 165.876ZM44.2795 166.248C45.1105 166.321 46.4698 166.321 47.3008 166.248C48.1318 166.175 47.4519 166.115 45.7901 166.115C44.1284 166.115 43.4485 166.175 44.2795 166.248ZM141.984 174.707C147.532 176.322 151.075 180.926 151.599 187.201C151.703 188.435 151.821 189.445 151.862 189.445C151.903 189.445 152.705 189.053 153.644 188.574C161.255 184.69 168.569 189.372 168.182 197.881L168.074 200.254L169.716 200.156C170.75 200.095 171.721 200.268 172.335 200.623C173.273 201.165 174.275 202.771 174.276 203.734C174.276 204.027 175.54 204.536 177.739 205.129C184.683 207.001 187.225 209.382 183.83 210.836C181.905 211.659 172.273 212.184 159.328 212.169L146.13 212.154L143.744 208.949C140.69 204.845 134.556 198.192 129.986 194.026C125.977 190.372 125.73 189.869 126.092 186.109C126.396 182.963 127.361 180.478 129.051 178.489C132.205 174.778 137.206 173.316 141.984 174.707ZM102.362 179.831C102.948 180.004 103.418 180.813 104.449 183.417C105.838 186.925 108.487 192.373 109.326 193.444C109.608 193.804 110.261 194.066 110.877 194.066C111.785 194.066 111.941 194.19 111.941 194.91C111.941 195.374 112.03 196.254 112.14 196.865C112.322 197.883 112.269 197.976 111.504 197.976C110.517 197.976 110.523 197.928 111.203 200.339C111.496 201.381 111.675 202.275 111.6 202.326C111.525 202.378 110.082 203.171 108.394 204.089C105.068 205.896 103.036 207.625 103.036 208.648C103.036 209.74 105.01 210.206 109.556 210.185C111.83 210.175 114.95 209.966 116.489 209.719C120.07 209.146 120.421 208.7 119.885 205.401C119.686 204.173 119.568 201.881 119.622 200.306C119.715 197.577 119.687 197.437 119.011 197.329C118.494 197.246 118.289 196.957 118.254 196.263L118.206 195.31L118.078 196.242C117.966 197.049 117.755 197.203 116.491 197.397C112.993 197.933 112.895 197.881 112.416 195.221L112.208 194.066H116.011H119.812L120.011 192.955C120.121 192.344 120.21 190.816 120.21 189.558V187.272L121.804 188.27C122.681 188.819 124.746 190.387 126.392 191.756C134.925 198.845 143.273 208.483 151.579 220.832L154.484 225.151L153.525 225.67C151.188 226.935 149.893 230.329 148.303 239.361C147.682 242.892 146.888 246.632 146.541 247.671C145 252.279 142.774 250.814 135.693 240.526C131.037 233.762 128.973 231.221 126.839 229.629C123.135 226.865 121.376 227.807 118.803 233.934C117.954 235.954 116.144 240.166 114.781 243.293C111.243 251.412 108.587 254.845 105.844 254.845C104.001 254.845 102.288 252.842 98.0967 245.786C93.0076 237.218 91.1156 235.296 87.7705 235.296C84.8099 235.296 82.0901 237.59 78.1812 243.384C73.2062 250.758 69.3322 253.925 65.332 253.887C60.0873 253.838 56.0957 248.254 54.0138 238.055C52.9863 233.02 52.0977 231.386 50.3867 231.386C48.8891 231.386 46.7252 233.722 42.3331 240.08C36.7688 248.134 34.8635 250.086 33.2453 249.392C31.9163 248.823 30.9806 243.202 31.3718 238.14C31.5744 235.519 31.6246 235.396 34.3445 230.853C37.611 225.397 41.6751 219.276 45.7892 213.615C49.3493 208.716 59.194 197.635 62.9639 194.283C67.5919 190.167 76.1391 184.224 76.9793 184.537C77.1609 184.604 77.9668 186.376 78.7702 188.474L80.2309 192.289H81.4563C82.4428 192.289 82.682 192.419 82.682 192.955C82.682 193.322 82.7701 194.114 82.8776 194.715C83.0538 195.699 82.9819 195.834 82.162 196.053C80.776 196.424 80.7719 196.437 81.4022 198.484L81.9918 200.4L78.759 202.198C71.9525 205.985 71.4096 207.875 76.9574 208.471C79.3948 208.733 87.5501 208.101 88.9949 207.538C90.2865 207.035 90.4458 206.262 90.0031 202.649C89.8078 201.053 89.7449 198.789 89.8632 197.618C90.0486 195.788 90.006 195.488 89.5607 195.488C88.7297 195.488 88.8378 192.787 89.6787 192.541C90.2731 192.367 90.3164 192.045 90.3383 187.613C90.3513 185.004 90.4585 182.15 90.5768 181.271L90.7918 179.671L93.1771 179.468C95.7353 179.251 101.12 179.463 102.362 179.831ZM43.1794 187.829C46.4424 189.486 49.2885 193.637 49.2885 196.74V197.511L50.9582 196.867C51.8763 196.512 52.9545 196.217 53.3536 196.21C54.2524 196.196 56.2277 197.097 56.9913 197.869C57.531 198.415 57.3688 198.667 53.9728 202.565C49.7659 207.393 46.7821 211.163 43.5929 215.682L41.2887 218.946L30.5796 218.945C14.8261 218.942 5.35988 218.126 2.03739 216.484C-0.175803 215.39 -0.232096 213.41 1.91463 212.186C3.76145 211.133 6.84032 210.427 9.61389 210.421L12.0786 210.416V209.235C12.0786 202.665 19.16 198.34 25.0143 201.335C26.0238 201.851 27.0739 202.501 27.3477 202.778C27.7965 203.232 27.8445 202.94 27.8334 199.829C27.8165 195.028 28.4449 193.129 30.9937 190.278C32.5876 188.496 33.3302 187.952 34.9974 187.348C37.8171 186.325 40.5315 186.485 43.1794 187.829ZM88.7246 194.029V195.414L86.1622 195.667C84.7527 195.807 83.5563 195.863 83.5031 195.793C83.45 195.723 83.3133 194.986 83.1994 194.155L82.9924 192.644H85.8585H88.7246V194.029ZM83.4036 198.209C83.1883 198.306 82.7589 198.312 82.4495 198.222C82.1401 198.132 82.3162 198.052 82.841 198.045C83.3658 198.038 83.6189 198.112 83.4036 198.209ZM83.8679 199.257C83.7623 199.375 83.4879 199.388 83.2586 199.285C83.0048 199.171 83.0802 199.087 83.4507 199.07C83.7859 199.055 83.9735 199.139 83.8679 199.257ZM112.975 199.988C112.756 200.087 112.398 200.087 112.18 199.988C111.961 199.89 112.14 199.809 112.577 199.809C113.014 199.809 113.193 199.89 112.975 199.988ZM113.611 201.055C113.392 201.153 113.034 201.153 112.816 201.055C112.597 200.956 112.776 200.875 113.213 200.875C113.65 200.875 113.829 200.956 113.611 201.055Z"/>
</mask>
<path fill-rule="evenodd" clip-rule="evenodd" d="M31.6908 0.237073C31.5741 0.367162 31.4787 1.08691 31.4787 1.83652C31.4787 2.96182 31.5893 3.19889 32.1147 3.19889C32.6105 3.19889 32.7508 3.43597 32.7508 4.27443V5.34961L31.7439 4.76777C28.4993 2.89251 23.6919 6.44399 24.3181 10.2532C24.6295 12.1458 27.4463 15.0351 31.2357 17.3487C34.3031 19.2214 35.1087 19.9042 34.25 19.9042C33.6531 19.9042 32.7508 21.054 32.7508 21.8143C32.7508 22.8237 34.2045 24.1694 35.2951 24.1694C36.6139 24.1694 37.8393 22.7878 37.8393 21.3007V20.1768L39.1124 21.4624C39.8124 22.1694 40.5601 22.7477 40.7732 22.7477C40.9866 22.7477 40.8393 22.9997 40.4459 23.3075C39.9577 23.6899 39.7319 24.2252 39.7348 24.9958C39.737 25.6164 39.7291 26.4442 39.7173 26.8351C39.6639 28.6119 40.1511 31.5055 40.596 32.055C40.8654 32.3877 41.393 32.709 41.7683 32.7687C42.3754 32.8654 42.4419 33.0737 42.3691 34.6547C42.266 36.8907 41.4732 38.1695 40.0954 38.322C38.9025 38.4539 38.6894 38.88 39.0857 40.3416L39.3748 41.4079L39.4021 40.2527C39.4285 39.1402 39.4791 39.0965 40.7811 39.0695C41.5247 39.0542 41.9639 38.9646 41.7578 38.8704C41.504 38.7549 41.6325 38.2879 42.1553 37.4274C42.7113 36.5118 42.9279 35.6705 42.9279 34.4272C42.9279 32.8352 42.9883 32.6998 43.7004 32.6998C44.719 32.6998 45.6155 31.722 45.1595 31.1078C44.9757 30.8601 44.9152 30.3952 45.0253 30.0746C45.1353 29.754 45.0593 29.2681 44.8561 28.9947C44.6036 28.6546 44.5921 28.4253 44.8205 28.2675C45.3926 27.8727 45.1884 27.3654 44.3072 26.9908C43.8037 26.7769 43.5779 26.5025 43.7506 26.3141C44.9639 24.9901 45.7787 27.2311 45.7854 31.9114C45.7905 35.4487 46.2993 37.4953 47.2865 37.9474C47.6284 38.1041 46.7735 38.2893 45.1541 38.4094L42.4508 38.6096L45.8697 38.676L49.2885 38.7421V39.7978V40.8534L45.2336 40.9646L41.1787 41.0755L45.3926 41.153L49.6065 41.2302V39.6307C49.6065 38.1937 49.5315 38.0313 48.8668 38.0313C47.5304 38.0313 46.7039 36.5772 46.4059 33.7024C45.9498 29.3015 45.9924 28.8249 46.8238 29.0527C47.4837 29.2336 47.4719 29.1881 46.6724 28.4673C46.1956 28.0372 45.6534 27.0544 45.4677 26.2828C45.1347 24.9012 44.746 24.5359 44.3577 25.2382C44.0556 25.7845 42.2918 26.7221 42.2918 26.3365C42.2918 26.1499 42.7739 25.4259 43.3629 24.7278C44.1971 23.7393 44.6818 23.4585 45.5539 23.4585C46.998 23.4585 47.802 24.2597 48.6623 26.5551L49.3566 28.4076L48.5907 29.9317C48.1694 30.7698 47.5784 31.873 47.2773 32.3831C46.7605 33.2589 46.7602 33.3378 47.275 33.8048C47.6726 34.1649 47.753 34.1741 47.5727 33.8389C47.283 33.3001 49.8435 28.0792 50.3975 28.0792C50.5953 28.0792 51.0138 28.2889 51.3277 28.5455C51.8633 28.983 51.7991 29.2336 50.2894 32.5956L48.6801 36.1795L52.8804 40.7532C59.9623 48.4653 69.8541 56.7508 76.0923 60.1957C77.4427 60.9414 78.546 61.6576 78.5441 61.7873C78.5422 61.917 78.3205 62.8227 78.0511 63.8001C76.0872 70.929 74.3705 79.3346 73.3086 87.0216C72.4232 93.4314 71.6949 101.223 71.9544 101.513C72.052 101.621 72.5065 101.436 72.9642 101.101C73.4221 100.765 73.8594 100.561 73.9358 100.646C74.0121 100.731 73.5112 103.305 72.8226 106.365C71.4599 112.422 70.5287 118.13 69.9095 124.224C69.4652 128.594 69.3494 143.537 69.731 147.238C69.9696 149.551 69.9537 149.637 69.2845 149.637C68.8832 149.637 68.0967 150.235 67.4177 151.057L66.2441 152.478L65.8873 151.146C65.3702 149.218 63.8423 146.681 62.5184 145.552C60.3297 143.686 56.782 144.108 53.7146 146.598C51.1391 148.688 50.5098 151.737 51.9788 155.006L52.7605 156.746L51.4222 156.751C48.1156 156.765 44.6424 158.471 43.8215 160.484C43.5576 161.132 43.0834 161.385 41.5829 161.68C39.4025 162.109 37.465 163.079 37.2491 163.848C37.1342 164.257 37.222 164.24 37.6399 163.773C38.2051 163.141 39.6756 162.585 41.8147 162.194C42.7768 162.018 43.4357 161.55 44.518 160.272C46.2853 158.187 48.6009 157.302 51.7145 157.524C52.8292 157.603 53.741 157.64 53.741 157.605C53.741 157.571 53.2401 156.613 52.6279 155.477C51.3952 153.189 51.1929 151.363 51.9835 149.655C52.6657 148.18 54.8678 146.205 56.5381 145.569C61.1518 143.812 64.1302 146.301 66.0228 153.494C66.0959 153.772 66.5831 153.249 67.1804 152.25C67.9128 151.025 68.4545 150.494 69.0508 150.417C69.8777 150.31 69.8955 150.354 70.266 153.438C70.4727 155.159 70.9631 158.511 71.3555 160.886L72.0692 165.204L70.9354 165.412C70.3118 165.527 65.4366 165.79 60.1016 165.997C54.7666 166.204 50.187 166.439 49.9246 166.521C49.34 166.702 62.5235 166.413 68.2115 166.12L72.3459 165.907L73.2612 170.123C73.7646 172.442 74.7744 176.396 75.5052 178.91L76.8337 183.481L75.2737 184.419C69.7364 187.751 65.2595 191.152 60.8178 195.399C59.3358 196.816 58.0134 197.976 57.8792 197.976C57.745 197.976 57.4387 197.711 57.1986 197.388C56.1062 195.915 53.1078 195.429 50.7992 196.35C49.6154 196.822 49.6065 196.819 49.6034 195.89C49.5945 193.207 46.5929 189.045 43.4049 187.296C42.0386 186.547 41.3666 186.424 38.6344 186.424C35.7483 186.424 35.2839 186.521 33.6155 187.465C32.6045 188.038 31.1276 189.283 30.3334 190.232C28.2083 192.771 27.5646 194.644 27.4053 198.754L27.2717 202.198L26.1154 201.351C23.6675 199.56 19.693 199.298 16.7846 200.736C13.9744 202.125 11.7819 205.52 11.7676 208.503L11.7606 209.967L8.50077 210.145C1.89586 210.506 -1.88746 213.56 0.957347 216.235C2.19291 217.397 3.41638 217.767 8.10323 218.394C13.7814 219.155 17.78 219.38 29.8192 219.619L40.722 219.835L38.8481 222.687C36.0952 226.877 30.3849 236.53 27.2838 242.235C22.8282 250.433 13.4303 269.625 13.7159 269.944C13.7804 270.016 14.9053 267.813 16.2156 265.049C20.0355 256.991 22.3995 252.314 26.6732 244.36L30.6836 236.896L30.8808 241.694C31.0891 246.759 31.6552 249.214 32.7683 249.879C34.7961 251.092 36.3255 249.574 43.8807 238.847C47.3991 233.852 49.1381 232.097 50.5718 232.097C51.8369 232.097 52.347 233.218 53.589 238.729C55.3792 246.673 58.0939 251.562 61.8562 253.619C63.3421 254.432 63.9088 254.55 65.7543 254.434C69.8121 254.178 73.4597 251.238 78.1735 244.426C82.2409 238.548 84.5345 236.364 87.2168 235.816C88.1633 235.622 88.7736 235.769 90.1472 236.52C92.2758 237.684 93.8065 239.581 96.9016 244.893C100.417 250.927 101.126 252.057 102.211 253.365C104.26 255.833 106.165 256.18 108.515 254.514C111.15 252.647 113.808 247.675 119.226 234.473C121.109 229.885 121.899 228.898 123.689 228.898C126.156 228.898 128.961 231.813 135.27 240.932C144.38 254.099 146.184 254.123 148.483 241.109C150.152 231.663 150.981 229.005 152.858 227.085C154.607 225.295 154.522 225.219 158.612 232.208C165.511 243.995 169.938 252.417 175.149 263.661C176.808 267.239 178.232 270.091 178.315 269.998C178.512 269.778 172.332 256.684 168.3 248.777C161.506 235.455 156.477 227.049 147.137 213.401L146.554 212.549L160.017 212.548C173.077 212.547 180.837 212.186 183.23 211.467C188.496 209.885 185.066 206.146 176.739 204.39C174.814 203.984 174.613 203.858 174.433 202.941C174.02 200.842 171.52 199.178 169.468 199.637L168.551 199.842V197.189C168.551 192.11 166.036 188.438 161.643 187.103C158.821 186.245 156.788 186.57 152.57 188.549C152.093 188.773 152.013 188.606 152.013 187.388C152.013 185.185 150.876 181.63 149.546 179.68C145.142 173.218 136.564 171.573 130.638 176.053C127.199 178.654 125.616 182.218 125.616 187.364V190.13L123.072 188.292L120.528 186.454V184.485C120.528 183.401 120.97 175.317 121.511 166.52C122.188 155.506 122.51 147.454 122.545 140.663L122.595 130.799H124.357C127.993 130.799 131.731 129.044 133.856 126.34C137.486 121.719 137.525 118.429 134.024 111.961C133.548 111.081 133.316 110.523 133.509 110.721C134.295 111.525 136.723 116.762 137.079 118.42L137.46 120.197L138.614 118.94C140.942 116.406 144.148 115.841 148.183 117.255C149.312 117.651 150.286 117.92 150.345 117.854C150.405 117.787 149.218 116.002 147.707 113.888C146.196 111.773 143.518 107.715 141.756 104.871C139.994 102.026 138.063 98.9392 137.464 98.0105C136.865 97.0817 136.449 96.3222 136.538 96.3222C136.627 96.3222 138.739 99.4809 141.231 103.342C151.51 119.266 152.538 120.28 158.374 120.244C162.902 120.216 166.718 118.447 168.359 115.613C168.727 114.978 169.11 114.456 169.21 114.453C169.311 114.451 171.074 116.688 173.129 119.425C175.183 122.162 176.995 124.401 177.155 124.401C177.599 124.401 180.034 120.797 181.681 117.704C184.23 112.915 186.323 105.995 186.804 100.765L187 98.6325L184.534 96.5123C171.804 85.5703 158.239 74.5996 147.302 66.4026C141.516 62.0656 140.273 60.9925 140.573 60.5898C141.232 59.7016 142.041 59.6778 145.37 60.4491C150.588 61.6572 153.309 60.9975 156.235 57.815C158.463 55.392 159.158 53.3952 159.163 49.4051C159.168 45.7388 158.627 43.984 156.828 41.8195C155.081 39.7178 154.081 39.4125 145.665 38.4091C140.451 37.7878 139.208 36.611 137.569 30.7474C136.423 26.6468 135.287 24.8216 133.154 23.6554C130.667 22.2956 127.932 22.3393 122.818 23.82C117.119 25.4703 116.852 25.3583 114.479 20.3261C113.28 17.7819 111.087 15.3984 108.85 14.2066C106.098 12.7408 100.598 12.8819 97.7905 14.4906C93.5186 16.9385 90.6932 21.4248 89.8482 27.1017C89.4911 29.5009 88.9857 28.6034 89.097 25.7681C89.1997 23.1472 88.9848 22.3279 88.6069 23.9028C88.5017 24.3425 88.4133 25.7024 88.411 26.924C88.4069 28.9102 88.474 29.1455 89.0426 29.1455C89.535 29.1455 89.6787 29.3825 89.6787 30.1943C89.6787 34.9557 92.3362 40.1671 95.7274 42.0555C97.3713 42.9711 97.4553 43.3627 96.0069 43.3627C94.8592 43.3627 93.4983 43.951 92.6902 44.7973C92.0535 45.4634 91.9822 45.453 87.7597 44.0836C78.9133 41.2138 69.1541 36.8935 55.6775 29.8812C52.6778 28.3205 50.0225 27.1294 49.7767 27.235C49.4676 27.3676 49.208 26.9731 48.9358 25.9576C48.7192 25.1497 48.148 24.0567 47.6665 23.5293L46.791 22.57L48.0396 21.5694L49.2885 20.5689V21.4969C49.2885 22.7825 50.609 24.1694 51.8328 24.1694C52.9055 24.1694 54.377 22.8291 54.377 21.852C54.377 20.9602 53.7674 19.9042 53.2528 19.9042C52.2424 19.9042 52.9112 19.2403 55.7287 17.4471C61.1193 14.0158 62.6459 12.2944 62.6459 9.64572C62.6459 7.69085 61.9707 6.27978 60.5014 5.16408C59.0006 4.0242 56.9025 3.95561 55.3747 4.99667C54.7867 5.39724 54.267 5.67661 54.2199 5.61725C53.9448 5.26964 54.5189 3.19889 54.89 3.19889C55.2007 3.19889 55.3311 2.72617 55.3311 1.59945V0H43.617C37.174 0 31.8072 0.10663 31.6908 0.237073ZM54.6951 1.59945V2.84346H43.2459H31.7967V1.78178V0.720106L43.0074 0.622007C49.1731 0.567981 54.3252 0.485876 54.4565 0.43967C54.5879 0.393463 54.6951 0.915238 54.6951 1.59945ZM53.8513 4.8872C53.4627 8.24248 52.1422 13.2971 50.9114 16.1381C49.5391 19.3071 46.7067 22.7477 45.4702 22.7477C45.0984 22.7477 44.4964 22.9257 44.1322 23.1436C43.6501 23.4319 43.1552 23.434 42.3109 23.1514C39.5672 22.2327 36.9014 18.8109 35.2792 14.1256C34.3095 11.3251 33.0819 5.68941 33.073 3.99861L33.0688 3.19889H43.5579H54.0469L53.8513 4.8872ZM32.1077 5.63467C32.5409 5.99223 32.988 6.79089 33.1013 7.40899L33.307 8.53322L32.2089 7.77473C31.6046 7.35745 30.5351 6.99917 29.8319 6.97856C28.8037 6.94835 28.4039 7.1353 27.7898 7.93325C27.3697 8.47884 27.0262 9.21281 27.0262 9.56397C27.0262 10.9338 28.5477 12.6662 31.6482 14.8269C33.3916 16.0421 35.3628 17.6849 36.0284 18.4779C37.0916 19.7443 37.2274 20.1015 37.1416 21.4112C37.0264 23.1763 35.9871 24.0852 34.5467 23.681C32.7864 23.1873 32.6417 20.4374 34.3756 20.4374C34.9354 20.4374 35.1643 20.6616 35.2435 21.2868C35.3351 22.0112 35.2467 22.1054 34.6412 21.9288C34.1342 21.7805 34.0293 21.8307 34.2739 22.104C34.8193 22.7136 35.6131 22.1438 35.6131 21.1425C35.6131 19.9255 34.5397 18.8664 31.0369 16.6264C25.0592 12.803 23.4509 9.80069 25.8336 6.91103C27.6607 4.69491 30.315 4.155 32.1077 5.63467ZM59.248 5.01942C60.5523 5.76831 61.7017 7.25118 62.0283 8.60644C62.6637 11.2441 61.1295 13.2612 55.9866 16.5504C51.6496 19.3238 50.4255 20.8788 51.6696 22.0329C52.1985 22.5234 53.1049 22.281 53.1049 21.649C53.1049 21.3622 52.9542 21.3789 52.6037 21.7038C52.1899 22.0876 52.056 22.0851 51.8379 21.6906C51.4254 20.9446 51.8245 20.2596 52.6717 20.2596C54.1023 20.2596 54.0752 22.6567 52.6368 23.3892C51.0988 24.1726 49.6065 22.7864 49.6065 20.5749C49.6065 19.4905 52.3464 16.6872 55.2001 14.8525C58.3362 12.8357 59.7836 11.1243 59.7836 9.43246C59.7836 6.88046 56.8723 5.96416 54.6359 7.81205L53.7203 8.56876L53.9334 7.57213C54.2158 6.25277 54.6572 5.67377 55.8082 5.11325C56.996 4.53461 58.3397 4.498 59.248 5.01942ZM40.5588 8.30894C39.7628 9.55544 39.1115 10.6644 39.1115 10.7728C39.1115 10.8812 39.5383 11.3095 40.0595 11.7246L41.0079 12.4792L41.6487 11.3045L42.2896 10.1298L42.2905 13.9507L42.2918 17.7716H44.089H45.8862L45.6807 14.3062C45.5678 12.4003 45.4747 9.76088 45.4737 8.44152L45.4721 6.04235H43.7392H42.0059L40.5588 8.30894ZM58.6848 7.98123C60.3134 9.80105 59.3972 11.2903 54.5879 14.6403L51.2769 16.9463L52.0265 15.0522C52.4389 14.0101 52.9411 12.3964 53.1427 11.4659C53.5683 9.50177 54.7393 7.93361 56.1141 7.48683C57.6102 7.0006 57.8487 7.04645 58.6848 7.98123ZM32.1357 8.26913C32.9655 8.89434 33.3325 9.55047 33.7765 11.2015C34.0907 12.3715 34.6326 14.078 34.9805 14.9939C35.3285 15.9099 35.6131 16.7451 35.6131 16.8496C35.6131 17.2008 29.1017 12.3861 28.3778 11.4997C26.1586 8.78202 29.2677 6.10917 32.1357 8.26913ZM96.8055 19.0156C97.1172 20.1886 97.7062 21.8278 98.1145 22.6588L98.8568 24.1694H97.7663C96.7578 24.1694 96.6754 24.2529 96.6754 25.2737C96.6754 26.1346 96.5644 26.3304 96.1723 26.1623C95.8956 26.0436 95.3947 25.9466 95.0592 25.9466C94.5758 25.9466 94.4492 25.6921 94.4492 24.721C94.4492 23.5008 94.4425 23.4951 92.8489 23.3882L91.2482 23.2808L92.0821 21.4144C93.0092 19.3401 95.6418 16.0918 96.0053 16.5738C96.1338 16.7437 96.4938 17.8427 96.8055 19.0156ZM42.633 24.7505C41.7168 26.0521 41.7457 27.1522 42.6893 26.8945C43.4017 26.7001 44.8017 27.5254 44.4417 27.9277C44.0511 28.3639 41.781 28.4804 40.9182 28.1087C40.2443 27.8186 40.0468 27.524 40.1231 26.9233C40.1921 26.3788 40.4074 26.1591 40.7993 26.2334C41.3087 26.3301 41.2973 26.2569 40.6984 25.5876C39.7844 24.5661 40.3515 23.814 42.0358 23.814H43.292L42.633 24.7505ZM93.0578 24.0176L93.9722 24.2209L93.8666 26.6834C93.7508 29.3825 93.7956 29.3399 91.5074 28.9173C90.1589 28.6681 90.1036 28.4456 90.6875 25.6181C91.0803 23.7155 91.2342 23.6117 93.0578 24.0176ZM99.7368 25.5474C99.9773 25.9306 100.882 27.1721 101.748 28.3056C102.613 29.4394 103.264 30.4307 103.194 30.5085C103.068 30.65 96.9407 29.916 96.7839 29.7408C96.7384 29.69 96.789 28.4787 96.8965 27.0491L97.0914 24.4495L98.1956 24.6499C98.8031 24.7601 99.4967 25.1639 99.7368 25.5474ZM91.8041 25.1113C91.6849 25.2449 91.5869 25.7408 91.5869 26.2131C91.5869 27.197 92.3184 27.1426 92.4914 26.146C92.6132 25.4436 92.1419 24.7338 91.8041 25.1113ZM98.1648 26.1776C97.8391 26.5419 97.903 28.0792 98.2443 28.0792C98.6765 28.0792 99.0155 26.6425 98.6736 26.2604C98.5133 26.0813 98.2844 26.044 98.1648 26.1776ZM96.1777 28.533C96.1545 30.4712 95.8568 30.2953 100.256 30.9425C101.787 31.1679 103.264 31.256 103.538 31.1387C103.825 31.0157 104.512 31.3314 105.162 31.8851C105.905 32.5185 106.613 32.8171 107.244 32.7634C108.474 32.6589 109.079 33.2379 109.079 34.5203C109.079 36.2306 107.936 37.1516 106.021 36.9852C105.418 36.9326 105.296 37.2536 104.823 40.1418C104.534 41.9101 104.207 44.0907 104.097 44.9878C103.922 46.4134 103.733 46.7322 102.592 47.5227C101.874 48.02 100.982 48.7362 100.61 49.1147C99.9404 49.7957 99.9226 49.7954 98.861 49.0721C98.271 48.6704 97.5379 48.3409 97.232 48.3402C96.553 48.3384 96.5371 47.7022 97.1525 45.1399C97.8261 42.3348 97.7796 42.0345 96.6268 41.7512C96.0257 41.6037 94.8948 40.7023 93.8039 39.5017C91.7955 37.2905 90.7142 34.7058 90.401 31.3669L90.2257 29.5009L91.1448 29.5428C92.1043 29.5869 94.1776 30.0966 93.6948 30.1698C93.1262 30.2558 94.2355 31.2777 94.8855 31.2667C95.5362 31.256 95.5394 31.2361 94.9698 30.7538C94.4117 30.2814 94.4059 30.1574 94.8709 28.6326C95.1425 27.7419 95.2421 27.0129 95.0926 27.0129C94.9428 27.0129 94.7482 27.213 94.6597 27.4571C94.5672 27.7141 94.489 27.6292 94.4743 27.256C94.4549 26.7562 94.647 26.6357 95.3238 26.7228C96.1453 26.8284 96.1971 26.9382 96.1777 28.533ZM42.3974 28.7954C43.1263 28.7986 43.9376 28.9585 44.2 29.1508C44.6239 29.4621 44.6239 29.5421 44.2 29.872C43.5512 30.3767 40.701 30.0717 40.3546 29.4607C39.9247 28.7022 40.0131 28.3361 40.5687 28.5743C40.8454 28.693 41.6681 28.7925 42.3974 28.7954ZM61.9278 33.9914C71.0273 38.5527 81.5056 42.815 88.7246 44.8915C91.4107 45.6638 91.7459 45.8486 91.7459 46.5567C91.7459 47.2291 91.1846 47.6326 88.1375 49.1499C86.153 50.138 84.4531 51.1677 84.3602 51.4378C84.2677 51.7083 84.511 52.3093 84.9012 52.7735C85.2914 53.2377 85.5242 53.7744 85.4183 53.966C85.3124 54.1576 84.2954 54.9225 83.1584 55.6657C81.7505 56.5863 81.1348 57.1923 81.2286 57.5651C81.7571 59.6718 82.1012 62.7132 82.1458 65.6736C82.1909 68.6749 82.064 69.6011 81.1863 72.6859C79.2231 79.5827 77.6866 87.5469 76.9316 94.7384L76.5567 98.3083L74.6284 99.4386C73.5681 100.06 72.6414 100.503 72.5695 100.423C72.2425 100.057 73.8865 86.4248 75.0785 79.6169C75.849 75.2145 77.8679 66.1051 79.0103 61.874C79.4546 60.2284 79.7612 58.818 79.6915 58.7402C79.6219 58.6623 79.3967 59.1692 79.1906 59.8665C78.9848 60.5639 78.7511 61.1344 78.6713 61.1344C77.8851 61.1344 72.0953 57.2349 67.5697 53.6578C61.2443 48.6573 52.4571 40.3469 50.2502 37.2777L49.3111 35.9715L50.7864 32.408L52.2618 28.8444L54.7479 30.2413C56.1154 31.0097 59.3463 32.6973 61.9278 33.9914ZM44.8147 31.1533C45.2066 31.5414 44.096 32.055 42.8178 32.0764C41.4795 32.0991 40.3836 31.5784 40.3836 30.9201C40.3836 30.6582 44.5358 30.8768 44.8147 31.1533ZM97.9476 33.6708C96.9811 34.2623 96.7747 34.4926 97.3115 34.3799C97.7488 34.2878 98.3572 34.0952 98.6631 33.9516C99.4624 33.5759 99.4051 34.9806 98.5836 35.8987C98.2338 36.2896 98.085 36.6095 98.2532 36.6095C98.9188 36.6095 99.8558 35.0119 99.8558 33.8766C99.8558 32.5146 99.8399 32.5132 97.9476 33.6708ZM96.5409 45.8451C96.247 47.661 96.0181 48.1366 94.9743 49.0984C93.6093 50.3555 93.463 50.2734 92.8043 47.8821C92.4796 46.7031 92.5114 46.4202 93.0613 45.5966C93.6548 44.7088 95.2761 43.8049 96.3825 43.7452C96.8236 43.7214 96.8427 43.9787 96.5409 45.8451ZM105.986 45.5167C105.851 45.6567 105.418 45.8796 105.024 46.0125C104.457 46.2041 104.308 46.1138 104.308 45.5785C104.308 44.5989 104.59 44.4258 105.462 44.8698C105.886 45.0859 106.123 45.377 105.986 45.5167ZM112.482 46.0544C121.436 48.1216 139.363 60.105 166.641 82.257C179.289 92.5276 186.189 98.5681 186.306 99.4699C186.608 101.809 184.591 109.535 182.354 114.605C181.082 117.489 177.563 123.36 177.138 123.308C176.912 123.281 171.904 116.697 164.722 106.985C156.393 95.7222 150.243 87.6091 145.222 81.2618C141.231 76.2161 141.017 75.8663 140.504 73.5596C139.567 69.3459 137.846 66.2153 134.389 62.4392C128.961 56.5081 120.784 51.9635 113.393 50.7692C110.191 50.2517 105.849 50.7142 102.668 51.9116C101.606 52.3122 100.7 52.5915 100.656 52.5329C100.612 52.4743 100.482 51.8444 100.367 51.1336C100.165 49.8803 100.209 49.8035 101.836 48.6157C103.915 47.0966 105.896 46.2041 107.966 45.8533C108.84 45.7054 109.669 45.5639 109.808 45.5398C109.946 45.5152 111.149 45.747 112.482 46.0544ZM92.3597 48.5432C92.5315 49.3088 92.2863 49.7954 90.8599 51.5171C89.922 52.6491 88.7357 54.3165 88.224 55.2218C87.7123 56.127 87.2159 56.8681 87.1208 56.8685C87.026 56.8688 86.7795 56.1633 86.5731 55.3007C86.3667 54.438 85.8458 53.2786 85.4158 52.7238L84.6338 51.7154L88.1897 49.6902C90.1456 48.5762 91.8378 47.6564 91.9501 47.6464C92.062 47.6361 92.2465 48.0399 92.3597 48.5432ZM99.4576 50.2915C100.439 51.5668 100.39 53.0732 99.3358 53.9998C97.5764 55.5466 94.766 54.5304 94.2698 52.1686C94.1057 51.3881 94.2606 50.9829 95.0681 50.0804C95.9618 49.0817 96.2146 48.9825 97.406 49.1609C98.305 49.2956 98.9758 49.6653 99.4576 50.2915ZM93.3281 50.3417C93.9279 51.2583 93.5368 52.4984 92.4958 52.9804C91.2081 53.5765 89.4217 56.0069 89.0073 57.7261C88.558 59.5921 88.8235 61.2623 89.8438 62.9855L90.6706 64.382L89.8635 67.112C87.774 74.1809 86.4106 83.0027 85.8102 93.3415L85.4365 99.7798L82.8664 99.1365C81.4531 98.7828 79.6527 98.2742 78.8656 98.0066L77.4344 97.5196L77.5232 95.7656C77.6806 92.6577 79.204 83.1299 80.333 78.1951C83.0344 66.3862 86.9048 56.9037 91.2501 51.4488C91.9899 50.5201 92.6746 49.7605 92.7716 49.7605C92.8686 49.7605 93.1192 50.0221 93.3281 50.3417ZM114.665 51.5558C121.606 52.9296 129.799 57.9323 134.879 63.8975C142.491 72.838 141.867 81.5245 133.13 88.2233C130.659 90.1181 126.889 92.0353 122.595 93.5814C117.325 95.4787 116.92 95.5246 116.181 94.3094C114.669 91.8242 114.682 91.6514 116.595 88.8016C118.298 86.2659 123.078 77.6964 123.067 77.1988C123.057 76.7346 118.32 73.1629 116.076 71.9274C113.642 70.5871 111.278 69.577 111.083 69.7941C111.016 69.8691 111.637 70.3109 112.463 70.7751C113.749 71.4984 114.026 71.8492 114.389 73.2191C115.014 75.5756 117.348 85.8717 117.348 86.2737C117.348 86.4639 116.627 87.683 115.747 88.9828C114.433 90.9228 113.984 91.3461 113.242 91.3461C111.344 91.3461 110.33 91.7815 109.86 92.7977C108.642 95.4293 109.927 99.037 112.319 99.7041C113.015 99.8982 113.381 99.7208 114.28 98.7544C116.545 96.32 116.925 96.0289 117.991 95.9102L119.081 95.789L119.472 98.0993C120.206 102.444 120.393 102.13 116.314 103.378C110.923 105.026 108.723 105.374 103.672 105.376C99.4414 105.379 94.7765 104.758 94.7609 104.19C94.7577 104.066 94.5421 101.885 94.2822 99.3433C93.1612 88.3854 93.3552 76.3732 94.7784 68.5984C95.8167 62.9261 95.8781 62.7701 97.3904 61.9455C99.9626 60.5426 100.018 60.5543 100.436 62.5788C100.642 63.5737 100.81 64.5799 100.81 64.8152C100.81 65.0505 99.7718 66.4378 98.5032 67.8982C97.2342 69.3584 95.783 71.433 95.2783 72.5082C94.204 74.7954 94.4683 74.5551 96.1822 71.6864C96.8608 70.5501 98.3353 68.6791 99.4585 67.5289L101.501 65.4376L100.977 63.4219C100.242 60.5973 100.42 60.2746 102.558 60.5554L104.293 60.7832L104.15 59.8036C103.78 57.2655 103.335 52.507 103.455 52.373C103.529 52.2905 104.502 52.0015 105.619 51.7307C108.093 51.1307 112.124 51.0525 114.665 51.5558ZM103.187 55.3586C103.3 56.8734 103.462 58.5305 103.547 59.0405C103.699 59.9454 103.654 59.9725 101.7 60.1594C100.598 60.2646 99.4557 60.4601 99.1612 60.5938C98.6908 60.8074 98.7032 60.6712 99.2629 59.4752C99.7429 58.4494 99.8586 57.6938 99.7327 56.4139C99.5196 54.2511 99.7193 53.7041 100.937 53.1115C102.825 52.1931 102.961 52.33 103.187 55.3586ZM94.3493 53.7321C94.7539 54.1572 95.0853 54.6264 95.0853 54.775C95.0853 54.9232 94.6337 55.8569 94.0816 56.8493C93.5294 57.842 92.7601 59.8843 92.3721 61.3878L91.6667 64.1218L90.6961 63.037C88.4727 60.5518 89.3292 55.6931 92.3537 53.6315C93.5651 52.8059 93.462 52.8009 94.3493 53.7321ZM86.5063 56.545C86.7309 57.4197 86.5009 58.2404 85.0939 61.5836C84.1694 63.7802 83.2583 65.9771 83.069 66.4659C82.7694 67.2393 82.7208 67.0783 82.6925 65.2218C82.6743 64.0489 82.4568 61.8157 82.2084 60.2589C81.9604 58.7021 81.8335 57.3426 81.9263 57.2378C82.0192 57.1329 82.9072 56.4654 83.8991 55.7549C85.8563 54.3534 85.9514 54.3822 86.5063 56.545ZM99.1472 57.1311C98.9405 59.9159 97.7024 61.4319 94.8789 62.3574L94.1951 62.5813L94.8105 59.4585C95.1492 57.7411 95.4908 56.0961 95.5703 55.8029C95.6752 55.4147 96.2 55.2644 97.5014 55.2502L99.2881 55.2306L99.1472 57.1311ZM95.0853 56.336C95.0853 56.4338 95.0137 56.5137 94.9263 56.5137C94.8388 56.5137 94.7672 56.4338 94.7672 56.336C94.7672 56.2383 94.8388 56.1583 94.9263 56.1583C95.0137 56.1583 95.0853 56.2383 95.0853 56.336ZM94.1576 59.8648C93.2947 63.38 93.297 63.4002 94.4861 63.1344C95.3995 62.93 95.4602 62.9752 95.2624 63.712C93.9181 68.7097 92.8616 78.0529 92.8609 84.9483C92.8606 89.0322 93.3246 97.5925 93.6662 99.8022L93.8468 100.972L92.1603 100.758C89.4166 100.409 86.0557 99.8555 85.9482 99.7354C85.752 99.5161 86.8285 86.8126 87.4573 81.9272C88.1417 76.6113 89.2029 70.9941 90.3027 66.8671C90.9038 64.6116 91.0453 64.3645 91.5608 64.673C92.0805 64.9837 92.201 64.7495 92.6975 62.4665C93.2318 60.0105 94.4343 56.7341 94.6947 57.0252C94.7637 57.1023 94.522 58.3801 94.1576 59.8648ZM114.637 92.7408C114.744 93.1172 115.171 93.9841 115.586 94.6676C116.315 95.869 116.321 95.9301 115.756 96.5006C115.436 96.8255 114.553 97.3071 113.795 97.5715C112.592 97.9909 112.534 98.0549 113.331 98.0755C114.107 98.0958 114.185 98.18 113.849 98.6325C113.384 99.2598 112.474 99.3192 111.575 98.7818C110.291 98.0133 109.548 94.2976 110.43 93.0543C110.953 92.3186 111.505 92.1188 113.112 92.0851C114.159 92.063 114.484 92.2027 114.637 92.7408ZM135.157 94.0119C135.157 94.1096 135.086 94.1896 134.998 94.1896C134.911 94.1896 134.839 94.1096 134.839 94.0119C134.839 93.9141 134.911 93.8341 134.998 93.8341C135.086 93.8341 135.157 93.9141 135.157 94.0119ZM136.152 95.5224C136.548 96.0862 136.536 96.0986 136.032 95.6568C135.502 95.1922 135.334 94.9004 135.596 94.9004C135.662 94.9004 135.912 95.1805 136.152 95.5224ZM81.2413 99.3142C84.7047 100.455 89.1609 101.295 91.7675 101.297L93.6971 101.298L93.9938 103.164L94.2902 105.03L96.3574 105.453C99.9025 106.179 105.2 106.399 108.284 105.948C110.957 105.558 115.578 104.478 116.752 103.968C117.173 103.786 117.453 104.389 118.264 107.231C122.145 120.816 122.634 134.304 120.529 169.719C120.192 175.388 119.817 183.03 119.696 186.7L119.475 193.373L114.691 193.275L109.907 193.177L108.706 190.867C106.945 187.481 103.398 178.719 100.694 171.077C94.2059 152.737 89.9754 135.828 88.9724 124.224C88.7526 121.682 88.5217 120.083 88.4591 120.669C88.0809 124.206 89.8578 136.192 92.0919 145.176C93.3631 150.289 93.3622 149.734 92.1167 157.812C90.7492 166.682 89.6787 180.062 89.6787 188.284V191.933H85.2698H80.8606L80.0458 189.89C73.3929 173.205 70.1006 155.462 70.1693 136.664C70.2129 124.724 71.2675 115.119 73.7204 104.319C74.6011 100.442 74.6198 100.403 75.9419 99.5833C76.6753 99.1287 77.2754 98.5902 77.2754 98.3865C77.2754 98.1832 77.526 98.0968 77.832 98.1953C78.1379 98.2934 79.6724 98.797 81.2413 99.3142ZM131.341 106.807C131.341 106.905 131.269 106.985 131.182 106.985C131.095 106.985 131.023 106.905 131.023 106.807C131.023 106.71 131.095 106.63 131.182 106.63C131.269 106.63 131.341 106.71 131.341 106.807ZM131.818 107.696C131.926 107.891 131.943 108.051 131.856 108.051C131.768 108.051 131.608 107.891 131.5 107.696C131.392 107.501 131.375 107.341 131.463 107.341C131.55 107.341 131.71 107.501 131.818 107.696ZM132.941 109.493C133.424 110.502 133.094 110.338 132.458 109.252C132.157 108.739 132.068 108.428 132.26 108.561C132.453 108.693 132.759 109.113 132.941 109.493ZM98.902 168.297C99.8284 171.034 101.064 174.542 101.647 176.093C102.231 177.643 102.674 178.941 102.633 178.976C102.592 179.011 101.486 178.898 100.174 178.725C98.8619 178.551 96.1621 178.514 94.1744 178.641L90.5603 178.873L90.7743 176.251C91.6836 165.119 92.734 155.37 93.3739 152.125C93.5056 151.459 94.0081 152.748 95.3836 157.279C96.3924 160.602 97.9759 165.56 98.902 168.297ZM38.7934 165.454C38.7934 165.552 38.865 165.631 38.9524 165.631C39.0399 165.631 39.1115 165.552 39.1115 165.454C39.1115 165.356 39.0399 165.276 38.9524 165.276C38.865 165.276 38.7934 165.356 38.7934 165.454ZM39.4295 165.454C39.4295 165.552 39.501 165.631 39.5885 165.631C39.676 165.631 39.7475 165.552 39.7475 165.454C39.7475 165.356 39.676 165.276 39.5885 165.276C39.501 165.276 39.4295 165.356 39.4295 165.454ZM40.4631 165.876C40.7694 165.966 41.2699 165.966 41.5762 165.876C41.8825 165.787 41.6319 165.714 41.0197 165.714C40.4074 165.714 40.1568 165.787 40.4631 165.876ZM44.2795 166.248C45.1105 166.321 46.4698 166.321 47.3008 166.248C48.1318 166.175 47.4519 166.115 45.7901 166.115C44.1284 166.115 43.4485 166.175 44.2795 166.248ZM141.984 174.707C147.532 176.322 151.075 180.926 151.599 187.201C151.703 188.435 151.821 189.445 151.862 189.445C151.903 189.445 152.705 189.053 153.644 188.574C161.255 184.69 168.569 189.372 168.182 197.881L168.074 200.254L169.716 200.156C170.75 200.095 171.721 200.268 172.335 200.623C173.273 201.165 174.275 202.771 174.276 203.734C174.276 204.027 175.54 204.536 177.739 205.129C184.683 207.001 187.225 209.382 183.83 210.836C181.905 211.659 172.273 212.184 159.328 212.169L146.13 212.154L143.744 208.949C140.69 204.845 134.556 198.192 129.986 194.026C125.977 190.372 125.73 189.869 126.092 186.109C126.396 182.963 127.361 180.478 129.051 178.489C132.205 174.778 137.206 173.316 141.984 174.707ZM102.362 179.831C102.948 180.004 103.418 180.813 104.449 183.417C105.838 186.925 108.487 192.373 109.326 193.444C109.608 193.804 110.261 194.066 110.877 194.066C111.785 194.066 111.941 194.19 111.941 194.91C111.941 195.374 112.03 196.254 112.14 196.865C112.322 197.883 112.269 197.976 111.504 197.976C110.517 197.976 110.523 197.928 111.203 200.339C111.496 201.381 111.675 202.275 111.6 202.326C111.525 202.378 110.082 203.171 108.394 204.089C105.068 205.896 103.036 207.625 103.036 208.648C103.036 209.74 105.01 210.206 109.556 210.185C111.83 210.175 114.95 209.966 116.489 209.719C120.07 209.146 120.421 208.7 119.885 205.401C119.686 204.173 119.568 201.881 119.622 200.306C119.715 197.577 119.687 197.437 119.011 197.329C118.494 197.246 118.289 196.957 118.254 196.263L118.206 195.31L118.078 196.242C117.966 197.049 117.755 197.203 116.491 197.397C112.993 197.933 112.895 197.881 112.416 195.221L112.208 194.066H116.011H119.812L120.011 192.955C120.121 192.344 120.21 190.816 120.21 189.558V187.272L121.804 188.27C122.681 188.819 124.746 190.387 126.392 191.756C134.925 198.845 143.273 208.483 151.579 220.832L154.484 225.151L153.525 225.67C151.188 226.935 149.893 230.329 148.303 239.361C147.682 242.892 146.888 246.632 146.541 247.671C145 252.279 142.774 250.814 135.693 240.526C131.037 233.762 128.973 231.221 126.839 229.629C123.135 226.865 121.376 227.807 118.803 233.934C117.954 235.954 116.144 240.166 114.781 243.293C111.243 251.412 108.587 254.845 105.844 254.845C104.001 254.845 102.288 252.842 98.0967 245.786C93.0076 237.218 91.1156 235.296 87.7705 235.296C84.8099 235.296 82.0901 237.59 78.1812 243.384C73.2062 250.758 69.3322 253.925 65.332 253.887C60.0873 253.838 56.0957 248.254 54.0138 238.055C52.9863 233.02 52.0977 231.386 50.3867 231.386C48.8891 231.386 46.7252 233.722 42.3331 240.08C36.7688 248.134 34.8635 250.086 33.2453 249.392C31.9163 248.823 30.9806 243.202 31.3718 238.14C31.5744 235.519 31.6246 235.396 34.3445 230.853C37.611 225.397 41.6751 219.276 45.7892 213.615C49.3493 208.716 59.194 197.635 62.9639 194.283C67.5919 190.167 76.1391 184.224 76.9793 184.537C77.1609 184.604 77.9668 186.376 78.7702 188.474L80.2309 192.289H81.4563C82.4428 192.289 82.682 192.419 82.682 192.955C82.682 193.322 82.7701 194.114 82.8776 194.715C83.0538 195.699 82.9819 195.834 82.162 196.053C80.776 196.424 80.7719 196.437 81.4022 198.484L81.9918 200.4L78.759 202.198C71.9525 205.985 71.4096 207.875 76.9574 208.471C79.3948 208.733 87.5501 208.101 88.9949 207.538C90.2865 207.035 90.4458 206.262 90.0031 202.649C89.8078 201.053 89.7449 198.789 89.8632 197.618C90.0486 195.788 90.006 195.488 89.5607 195.488C88.7297 195.488 88.8378 192.787 89.6787 192.541C90.2731 192.367 90.3164 192.045 90.3383 187.613C90.3513 185.004 90.4585 182.15 90.5768 181.271L90.7918 179.671L93.1771 179.468C95.7353 179.251 101.12 179.463 102.362 179.831ZM43.1794 187.829C46.4424 189.486 49.2885 193.637 49.2885 196.74V197.511L50.9582 196.867C51.8763 196.512 52.9545 196.217 53.3536 196.21C54.2524 196.196 56.2277 197.097 56.9913 197.869C57.531 198.415 57.3688 198.667 53.9728 202.565C49.7659 207.393 46.7821 211.163 43.5929 215.682L41.2887 218.946L30.5796 218.945C14.8261 218.942 5.35988 218.126 2.03739 216.484C-0.175803 215.39 -0.232096 213.41 1.91463 212.186C3.76145 211.133 6.84032 210.427 9.61389 210.421L12.0786 210.416V209.235C12.0786 202.665 19.16 198.34 25.0143 201.335C26.0238 201.851 27.0739 202.501 27.3477 202.778C27.7965 203.232 27.8445 202.94 27.8334 199.829C27.8165 195.028 28.4449 193.129 30.9937 190.278C32.5876 188.496 33.3302 187.952 34.9974 187.348C37.8171 186.325 40.5315 186.485 43.1794 187.829ZM88.7246 194.029V195.414L86.1622 195.667C84.7527 195.807 83.5563 195.863 83.5031 195.793C83.45 195.723 83.3133 194.986 83.1994 194.155L82.9924 192.644H85.8585H88.7246V194.029ZM83.4036 198.209C83.1883 198.306 82.7589 198.312 82.4495 198.222C82.1401 198.132 82.3162 198.052 82.841 198.045C83.3658 198.038 83.6189 198.112 83.4036 198.209ZM83.8679 199.257C83.7623 199.375 83.4879 199.388 83.2586 199.285C83.0048 199.171 83.0802 199.087 83.4507 199.07C83.7859 199.055 83.9735 199.139 83.8679 199.257ZM112.975 199.988C112.756 200.087 112.398 200.087 112.18 199.988C111.961 199.89 112.14 199.809 112.577 199.809C113.014 199.809 113.193 199.89 112.975 199.988ZM113.611 201.055C113.392 201.153 113.034 201.153 112.816 201.055C112.597 200.956 112.776 200.875 113.213 200.875C113.65 200.875 113.829 200.956 113.611 201.055Z" fill="black" stroke="black" stroke-width="2" mask="url(#path-1-inside-1_2026_116)"/>
</svg>
